# Blender 3.6.4
# www.blender.org
mtllib ost27.mtl
o Cube
v -1.648953 0.162360 0.936661
v -1.528690 0.617703 -1.475146
v -2.168061 -1.103064 0.499559
v -2.150864 -0.938229 -1.735175
v -0.336232 -3.053360 0.454159
v -0.323813 -2.943661 -1.069853
v -1.777890 -3.083277 0.420763
v -1.765404 -2.962173 -1.097015
v -0.886446 -3.181426 -0.267159
v -0.883506 -3.152906 -0.624593
v -1.208375 -3.186225 -0.270190
v -1.205435 -3.157705 -0.627624
v -1.224607 -4.050898 -0.543177
v -1.226915 -4.017541 -0.186157
v -0.905013 -4.024046 -0.183469
v -0.902705 -4.057403 -0.540489
v -1.505230 -4.872402 -0.653131
v -1.503107 -4.586789 -0.172645
v -0.650874 -4.555246 -0.167202
v -0.647048 -4.569097 -0.659022
v -0.936765 -4.157437 0.609418
v -1.213680 -4.145252 0.606490
v -0.717998 -4.454623 0.638598
v -1.444868 -4.439935 0.632527
v -1.366933 1.805309 -1.001392
v -1.322957 1.749607 0.757047
v -0.493014 3.181068 -0.105356
v 0.002316 3.085683 0.157587
v -2.234389 0.396186 -1.747688
v -1.752699 0.953483 -1.432739
v -1.699866 0.887961 0.991557
v -2.094603 1.929352 0.209321
v -2.204136 2.017628 -0.398687
v -2.929869 2.329446 0.276329
v -5.032272 -0.374111 1.066306
v -2.586969 0.370317 -1.162088
v -5.282754 0.713201 1.963884
v -5.507074 0.267312 1.000268
v -4.695766 0.993487 1.405617
v -4.895082 0.997764 1.011773
v 1.685360 -0.268310 1.032104
v 1.503328 0.808141 -1.094597
v 2.200535 -1.412204 0.230338
v 2.116416 -0.533130 -1.817261
v 0.368371 -3.243781 -0.362831
v 0.311813 -2.658068 -1.786911
v 1.812625 -3.272454 -0.541439
v 1.751288 -2.630368 -1.920726
v 0.899639 -3.135559 -1.193557
v 0.885194 -2.984349 -1.518376
v 1.221309 -3.135118 -1.207656
v 1.206864 -2.983908 -1.532475
v 1.229560 -3.850260 -1.765291
v 1.243302 -3.943347 -1.419276
v 0.921659 -3.954262 -1.409438
v 0.907917 -3.861175 -1.755454
v 1.505709 -4.345263 -2.042191
v 1.518732 -4.431874 -1.592912
v 0.668662 -4.460874 -1.571801
v 0.649011 -4.296710 -2.034697
v 0.978982 -4.355131 -0.714104
v 1.255648 -4.339350 -0.720846
v 0.761538 -4.646479 -0.783849
v 1.487825 -4.621833 -0.806063
v 1.345801 1.777835 -0.896381
v 1.372119 1.713017 0.842488
v 0.466759 3.194139 -0.164845
v 2.193510 0.695499 -1.420519
v 1.718078 0.940682 -1.347237
v 1.760477 0.857330 1.056337
v 2.241979 2.202818 0.004711
v 2.235931 2.218152 -0.901452
v 3.007947 2.369572 -0.095668
v 4.747465 -0.492077 -1.218690
v 2.539709 0.734857 -1.508569
v 5.185978 -0.148529 0.096337
v 5.300813 0.022392 -0.969163
v 4.619242 0.452549 -0.132333
v 4.798866 0.664572 -0.475319
v 0.000000 0.659971 -2.353794
v 0.004041 -1.061631 0.687630
v -0.005554 -0.730789 -2.249159
v 0.007748 -0.051270 1.398901
v -0.000000 1.618504 -1.958405
v 0.004512 1.435441 1.367522
v -0.012210 3.272923 -0.519878
v -0.417366 3.191308 -0.162150
v 0.000000 0.061724 -2.536163
v 0.013883 0.461319 1.567440
v -0.004454 3.094597 0.159875
v 0.409202 3.282206 -0.123443
v 0.056298 3.079314 -0.494545
v -0.503377 4.184460 -0.819081
v -0.218182 4.369155 -0.557515
v 0.156631 4.337997 -0.762515
v -0.068144 3.864778 -0.994008
v -0.798594 5.657888 -1.119546
v -0.480360 5.675587 -0.819288
v -0.136995 5.802699 -1.059462
v -0.423694 5.687601 -1.472213
v -1.212603 7.303437 -0.526792
v -0.839168 7.108011 -0.320707
v -0.550847 7.447794 -0.467354
v -0.982083 7.852533 -0.541440
v -1.625300 8.298338 0.726774
v -1.156926 8.068287 0.863800
v -0.810147 8.476759 0.800803
v -1.268155 8.698504 0.569658
vn -0.1705 -0.4124 0.8949
vn -0.9809 -0.1931 -0.0225
vn -0.9287 0.3702 0.0219
vn -0.0594 -0.0790 0.9951
vn 0.9873 -0.1580 -0.0150
vn -0.0086 0.0999 0.9950
vn -0.2691 -0.9599 -0.0788
vn 0.3054 -0.9498 -0.0673
vn 0.0161 -0.9867 0.1616
vn 0.0190 -0.9143 -0.4046
vn 0.0293 0.9862 0.1628
vn -0.9997 0.0211 -0.0075
vn 0.0086 -0.0935 -0.9956
vn 0.9998 -0.0209 0.0075
vn 0.1840 -0.9393 0.2896
vn -0.9153 0.3764 -0.1436
vn -0.0453 0.1696 -0.9845
vn 0.8976 0.4405 -0.0180
vn -0.0064 0.0930 0.9956
vn 0.8652 0.4974 0.0637
vn -0.8612 0.5073 0.0324
vn 0.0094 -0.9884 0.1519
vn -0.4456 0.6224 -0.6434
vn -0.9850 0.1728 0.0032
vn -0.4868 0.3592 -0.7962
vn -0.3266 0.6527 -0.6836
vn -0.3504 0.9234 0.1569
vn -0.2905 0.2750 0.9165
vn -0.9145 0.4033 0.0329
vn 0.4250 -0.5547 0.7153
vn 0.4391 -0.4598 0.7719
vn -0.0077 0.9464 0.3228
vn -0.6434 0.3603 0.6755
vn -0.2379 -0.9703 -0.0436
vn -0.5381 0.3782 -0.7533
vn -0.6549 0.7546 -0.0411
vn -0.6171 0.2790 -0.7357
vn -0.3378 0.6433 0.6870
vn 0.2669 -0.9486 -0.1699
vn 0.2612 0.3981 0.8794
vn -0.4771 0.8424 0.2506
vn -0.3365 0.6634 -0.6683
vn -0.2251 0.5759 0.7859
vn -0.3212 0.0984 0.9419
vn -0.0992 -0.3936 -0.9139
vn -0.3591 0.1253 -0.9249
vn -0.2712 0.6349 -0.7234
vn 0.0939 -0.5572 0.8251
vn 0.9804 -0.1615 -0.1133
vn 0.9284 0.3556 0.1074
vn 0.1155 -0.4088 0.9053
vn -0.9868 -0.1610 -0.0189
vn 0.0404 -0.2529 0.9666
vn 0.2673 -0.8690 -0.4164
vn -0.3503 -0.8681 -0.3516
vn -0.0333 -0.9865 -0.1605
vn -0.0491 -0.6951 -0.7173
vn -0.0249 0.8673 0.4971
vn 0.9990 0.0345 -0.0294
vn -0.0405 0.2591 -0.9650
vn -0.9990 -0.0342 0.0295
vn -0.0155 -0.9643 -0.2645
vn 0.8840 0.4616 0.0745
vn 0.0038 0.5131 -0.8583
vn -0.8971 0.4091 0.1671
vn 0.0383 -0.2596 0.9650
vn -0.8631 0.4336 0.2588
vn 0.8477 0.4897 0.2038
vn 0.0267 -0.9721 -0.2329
vn 0.4762 0.5955 -0.6470
vn 0.9875 0.1576 -0.0067
vn 0.5876 0.2815 -0.7586
vn -0.1829 0.3592 -0.9152
vn 0.3299 0.8533 0.4037
vn 0.2522 0.2653 0.9306
vn 0.9121 0.4099 -0.0005
vn -0.4658 -0.5711 0.6759
vn 0.1745 -0.3422 0.9233
vn -0.0348 0.2853 0.9578
vn 0.5854 0.3334 0.7390
vn 0.4548 -0.8900 -0.0325
vn 0.4883 0.6440 -0.5889
vn 0.7520 0.5792 0.3147
vn 0.3831 0.4494 -0.8070
vn 0.3040 0.6506 0.6960
vn -0.5329 -0.8164 -0.2226
vn 0.1132 0.0762 0.9906
vn 0.6045 0.4961 0.6233
vn 0.2884 0.8522 -0.4365
vn 0.1862 0.5811 0.7922
vn 0.2784 0.0864 0.9566
vn 0.0887 -0.0895 -0.9920
vn 0.3829 0.2840 -0.8790
vn 0.2631 0.7170 -0.6456
vn 0.1868 0.4810 0.8566
vn 0.5667 0.0048 0.8239
vn -0.6279 0.3410 0.6996
vn -0.5905 -0.4878 -0.6429
vn 0.8046 -0.1843 -0.5645
vn 0.3721 0.5214 0.7679
vn 0.7802 0.0066 -0.6255
vn 0.4822 0.2651 0.8350
vn -0.6833 0.0106 0.7301
vn -0.5933 -0.2941 -0.7493
vn 0.5881 -0.1350 0.7975
vn -0.6064 -0.3966 0.6892
vn -0.6150 0.1524 -0.7736
vn 0.6192 0.4225 -0.6618
vn -0.7647 0.3791 -0.5211
vn 0.6158 0.6813 -0.3957
vn 0.7119 -0.4541 0.5358
vn -0.5401 -0.7281 0.4221
vt 0.203125 0.375000
vt 0.109375 0.375000
vt 0.109375 0.062500
vt 0.203125 0.062500
vt 0.218750 0.375000
vt 0.218750 0.187500
vt 0.265625 0.250000
vt 0.265625 0.375000
vt 0.250000 0.144531
vt 0.226074 0.289062
vt 0.250000 0.250000
vt 0.328125 0.375000
vt 0.281250 0.312500
vt 0.328125 0.312500
vt 0.359375 0.250000
vt 0.343750 0.250000
vt 0.343750 0.062500
vt 0.359375 0.062500
vt 0.312500 0.187500
vt 0.312500 0.125000
vt 0.328125 0.062500
vt 0.328125 0.250000
vt 0.296875 0.125000
vt 0.296875 0.187500
vt 0.281250 0.250000
vt 0.281250 0.062500
vt 0.437500 0.187500
vt 0.437500 0.250000
vt 0.406250 0.250000
vt 0.406250 0.187500
vt 0.375000 0.250000
vt 0.375000 0.062500
vt 0.484375 0.375000
vt 0.468750 0.375000
vt 0.468750 0.312500
vt 0.484375 0.312500
vt 0.453125 0.250000
vt 0.453125 0.375000
vt 0.437500 0.375000
vt 0.453125 0.187500
vt 0.484375 0.125000
vt 0.437500 0.062500
vt 0.453125 0.062500
vt 0.390625 0.312500
vt 0.390625 0.125000
vt 0.406250 0.062500
vt 0.406250 0.375000
vt 0.453125 0.312500
vt 0.500000 0.187500
vt 0.562500 0.187500
vt 0.500000 0.500000
vt 0.500000 0.375000
vt 0.625000 0.062500
vt 0.578125 0.062500
vt 0.578125 0.187500
vt 0.625000 0.187500
vt 0.500000 0.062500
vt 0.562500 0.062500
vt 0.562500 0.375000
vt 0.609375 0.875000
vt 0.671875 0.875000
vt 0.640625 1.000000
vt 0.765625 0.437500
vt 0.718750 0.437500
vt 0.718750 0.250000
vt 0.765625 0.250000
vt 0.687500 0.437500
vt 0.640625 0.250000
vt 0.640625 0.437500
vt 0.593750 1.000000
vt 0.578125 1.000000
vt 0.578125 0.625000
vt 0.000000 0.062500
vt 0.093750 0.500000
vt 0.265625 0.500000
vt 0.578125 0.312500
vt 0.625000 0.312500
vt 0.562500 0.500000
vt 0.625000 0.375000
vt 0.656250 0.562500
vt 0.609375 0.562500
vt 0.609375 0.750000
vt 0.656250 0.750000
vt 0.468750 1.000000
vt 0.468750 0.625000
vt 0.625000 0.500000
vt 0.218750 0.062500
vt 0.265625 0.062500
vt 0.000000 0.375000
vt 0.093750 0.375000
vt 0.093750 0.062500
vt 0.765625 0.875000
vt 0.765625 1.000000
vt 0.281250 0.375000
vt 0.671875 0.500000
vt 0.687500 0.500000
vt 0.687500 0.625000
vt 0.671875 0.625000
vt 0.703125 0.500000
vt 0.703125 0.625000
vt 0.687500 0.812500
vt 0.671875 0.812500
vt 0.703125 0.812500
vt 0.734375 0.500000
vt 0.750000 0.500000
vt 0.750000 0.687500
vt 0.734375 0.687500
vt 0.718750 0.500000
vt 0.718750 0.687500
vt 0.750000 0.812500
vt 0.734375 0.812500
vt 0.718750 0.812500
s 0
usemtl Material
f 83/1/1 1/2/1 3/3/1 81/4/1
f 3/5/2 4/6/2 8/7/2 7/8/2
f 4/9/3 3/10/3 1/11/3 2/11/3
f 81/11/4 3/10/4 7/7/4 5/7/4
f 82/12/5 81/13/5 5/13/5 6/14/5
f 9/15/6 11/16/6 14/17/6 15/18/6
f 12/19/7 11/20/7 7/21/7 8/22/7
f 9/23/8 10/24/8 6/25/8 5/26/8
f 11/20/9 9/23/9 5/26/9 7/21/9
f 10/24/10 12/19/10 8/22/10 6/25/10
f 15/27/11 14/28/11 22/29/11 21/30/11
f 11/31/12 12/15/12 13/18/12 14/32/12
f 12/15/13 10/16/13 16/17/13 13/18/13
f 10/31/14 9/15/14 15/18/14 16/32/14
f 20/33/15 19/34/15 18/35/15 17/36/15
f 14/28/16 13/37/16 17/38/16 18/39/16
f 13/37/17 16/40/17 20/41/17 17/36/17
f 16/40/18 15/27/18 19/42/18 20/43/18
f 21/30/19 22/29/19 24/44/19 23/45/19
f 19/42/20 15/27/20 21/30/20 23/46/20
f 14/28/21 18/39/21 24/47/21 22/29/21
f 18/35/22 19/34/22 23/38/22 24/48/22
f 84/49/23 25/50/23 27/51/23 86/52/23
f 2/53/24 1/54/24 26/55/24 25/56/24
f 80/57/25 2/58/25 25/50/25 84/49/25
f 27/51/26 25/50/26 33/59/26
f 1/60/27 2/61/27 29/62/27
f 85/63/28 26/64/28 31/65/28 89/66/28
f 26/64/29 25/67/29 30/68/29 31/65/29
f 84/69/30 25/67/30 30/68/30
f 25/70/31 33/71/31 36/72/31
f 27/73/32 28/73/32 90/73/32 87/73/32
f 67/74/33 86/75/33 92/75/33 91/74/33
f 25/56/34 26/55/34 32/76/34 33/77/34
f 34/78/35 33/59/35 40/79/35
f 39/80/36 40/81/36 38/82/36 37/83/36
f 40/84/37 33/71/37 36/72/37 35/85/37
f 26/50/38 28/52/38 32/59/38
f 33/79/39 32/86/39 39/78/39 40/59/39
f 32/59/40 34/78/40 39/79/40
f 34/78/41 40/86/41 39/79/41
f 34/78/42 27/51/42 33/59/42
f 26/50/43 85/49/43 28/52/43
f 1/58/44 83/57/44 85/49/44 26/50/44
f 4/6/45 82/87/45 6/88/45 8/7/45
f 2/89/46 80/90/46 82/91/46 4/73/46
f 2/61/47 80/92/47 88/93/47 29/62/47
f 83/1/48 81/4/48 43/3/48 41/2/48
f 43/5/49 47/87/49 48/88/49 44/8/49
f 44/11/50 42/11/50 41/11/50 43/11/50
f 81/5/51 45/87/51 47/88/51 43/8/51
f 82/12/52 46/94/52 45/13/52 81/14/52
f 49/16/53 55/17/53 54/18/53 51/15/53
f 52/23/54 48/26/54 47/21/54 51/20/54
f 49/19/55 45/22/55 46/25/55 50/24/55
f 51/20/56 47/21/56 45/22/56 49/19/56
f 50/24/57 46/25/57 48/26/57 52/23/57
f 55/28/58 61/29/58 62/30/58 54/27/58
f 51/15/59 54/18/59 53/32/59 52/31/59
f 52/16/60 53/17/60 56/18/60 50/15/60
f 50/15/61 56/18/61 55/32/61 49/31/61
f 60/36/62 57/33/62 58/34/62 59/35/62
f 54/27/63 58/42/63 57/43/63 53/40/63
f 53/40/64 57/41/64 60/36/64 56/37/64
f 56/37/65 60/38/65 59/39/65 55/28/65
f 61/29/66 63/44/66 64/45/66 62/30/66
f 59/39/67 63/47/67 61/29/67 55/28/67
f 54/27/68 62/30/68 64/46/68 58/42/68
f 58/34/69 64/38/69 63/48/69 59/35/69
f 84/49/70 86/52/70 67/51/70 65/50/70
f 42/53/71 65/77/71 66/76/71 41/54/71
f 80/57/72 84/49/72 65/50/72 42/58/72
f 67/51/73 72/59/73 65/50/73
f 41/60/74 68/62/74 42/61/74
f 85/63/75 89/66/75 70/65/75 66/64/75
f 66/64/76 70/65/76 69/68/76 65/67/76
f 84/69/77 69/68/77 65/67/77
f 65/70/78 75/72/78 72/71/78
f 34/78/79 32/59/79 28/52/79 27/51/79
f 86/75/80 27/74/80 87/74/80 92/75/80
f 65/51/81 72/78/81 71/59/81 66/52/81
f 73/78/82 79/79/82 72/59/82
f 78/80/83 76/83/83 77/82/83 79/81/83
f 79/84/84 74/85/84 75/72/84 72/71/84
f 66/50/85 71/59/85 28/52/85
f 72/78/86 79/86/86 78/79/86 71/59/86
f 71/59/87 78/79/87 73/78/87
f 73/78/88 78/79/88 79/86/88
f 73/78/89 72/59/89 67/51/89
f 66/50/90 28/52/90 85/49/90
f 41/58/91 66/50/91 85/49/91 83/57/91
f 44/8/92 48/5/92 46/87/92 82/88/92
f 42/89/93 44/73/93 82/91/93 80/90/93
f 42/61/94 68/62/94 88/93/94 80/92/94
f 28/52/95 71/59/95 73/78/95 67/51/95
f 28/95/96 67/73/96 91/73/96 90/95/96
f 87/95/97 90/96/97 94/97/97 93/98/97
f 92/96/98 87/99/98 93/100/98 96/97/98
f 91/95/99 92/96/99 96/97/99 95/98/99
f 90/96/100 91/99/100 95/100/100 94/97/100
f 95/98/101 96/97/101 100/101/101 99/102/101
f 94/97/102 95/100/102 99/103/102 98/101/102
f 93/98/103 94/97/103 98/101/103 97/102/103
f 96/97/104 93/100/104 97/103/104 100/101/104
f 98/104/105 99/105/105 103/106/105 102/107/105
f 97/108/106 98/104/106 102/107/106 101/109/106
f 100/104/107 97/105/107 101/106/107 104/107/107
f 99/108/108 100/104/108 104/107/108 103/109/108
f 104/107/109 101/106/109 105/110/109 108/111/109
f 103/109/110 104/107/110 108/111/110 107/112/110
f 102/107/111 103/106/111 107/110/111 106/111/111
f 101/109/112 102/107/112 106/111/112 105/112/112
o Icosphere
v -0.026428 8.605101 1.831342
v -0.065737 9.120705 1.788169
v -0.685460 9.122716 0.916947
v -0.708110 10.509689 2.266119
v -0.388695 10.040205 1.273083
v -0.620206 8.650481 0.773896
v -0.576818 8.720455 0.714956
v 0.041617 9.068020 1.817319
v -0.623312 9.091555 0.823951
v 0.067455 8.686193 1.851853
v -0.826547 8.500072 0.618221
v 0.314046 7.913049 1.793777
v 0.004258 10.420965 1.792983
v -1.200300 10.578218 3.122139
v -2.542478 8.388494 1.906528
v -2.599266 8.905550 1.869384
v -2.115650 8.926560 0.893800
v -2.208594 10.369946 2.303273
v -2.672590 9.739694 1.247421
v -2.034825 8.483051 0.751776
v -2.107403 8.541693 0.701099
v -2.692292 8.838286 1.907051
v -2.169637 8.883192 0.801731
v -2.647960 8.456060 1.937063
v -1.679878 8.380722 0.527169
v -2.737994 7.633790 1.859914
v -2.885077 10.182579 1.896232
v -1.574705 10.544808 3.138769
v -1.294785 9.294777 3.063949
v -1.253677 8.760224 3.145093
v -1.609481 10.215027 0.848039
v -1.621397 10.600707 1.700038
v -1.285856 9.243162 3.183733
v -1.255622 8.848470 3.240955
v -1.197666 8.558648 4.089897
v -1.109759 7.790670 4.857502
vn 0.3586 0.9035 -0.2347
vn 0.8142 -0.0385 -0.5793
vn 0.7233 0.0994 0.6833
vn 0.9161 0.3849 0.1127
vn 0.8461 0.1323 -0.5164
vn 0.5077 -0.6579 0.5563
vn 0.6336 -0.6729 -0.3819
vn 0.7206 -0.5455 -0.4280
vn 0.0912 -0.9958 0.0026
vn 0.7498 0.3976 -0.5289
vn 0.8025 0.4380 0.4052
vn 0.7224 0.1324 0.6787
vn 0.2938 0.8972 -0.3297
vn 0.2635 0.8802 -0.3948
vn 0.3496 0.2386 -0.9060
vn 0.3113 0.9330 0.1806
vn 0.4122 0.8656 0.2844
vn -0.7253 0.0629 -0.6856
vn -0.5294 0.8166 -0.2301
vn -0.1192 0.9192 -0.3754
vn -0.8242 -0.3833 -0.4168
vn -0.6679 -0.0420 0.7431
vn -0.9352 0.1552 0.3183
vn -0.0316 0.5593 0.8284
vn -0.0819 0.9549 0.2856
vn -0.0238 0.2788 -0.9601
vn -0.9046 -0.0926 -0.4160
vn -0.3545 -0.7242 0.5915
vn -0.5307 -0.7954 -0.2926
vn -0.4124 -0.8752 -0.2530
vn -0.0747 0.8168 -0.5721
vn -0.8215 0.2446 -0.5151
vn -0.8403 0.2794 0.4646
vn -0.6804 0.0170 0.7327
vn -0.5540 0.7991 -0.2336
vn -0.4908 0.7911 -0.3650
vn -0.3969 0.1236 -0.9095
vn 0.0222 -0.0442 -0.9988
vn -0.4531 0.8660 0.2116
vn -0.5221 0.7912 0.3185
vn 0.6441 0.1742 -0.7448
vn 0.0840 -0.6352 -0.7677
vn 0.0926 -0.8778 -0.4699
vt 0.312500 0.750000
vt 0.312500 0.437500
vt 0.328125 0.500000
vt 0.328125 0.750000
vt 0.437500 0.750000
vt 0.437500 0.937500
vt 0.421875 0.812500
vt 0.437500 0.500000
vt 0.421875 0.625000
vt 0.453125 0.437500
vt 0.281250 0.562500
vt 0.296875 0.687500
vt 0.281250 0.687500
vt 0.218750 0.875000
vt 0.250000 0.750000
vt 0.250000 1.000000
vt 0.203125 0.937500
vt 0.187500 0.937500
vt 0.187500 0.812500
vt 0.156250 0.937500
vt 0.156250 0.812500
vt 0.390625 0.750000
vt 0.390625 0.812500
vt 0.125000 0.750000
vt 0.203125 0.750000
vt 0.203125 0.562500
vt -0.000000 0.562500
vt 0.109375 0.562500
vt 0.109375 1.000000
vt -0.000000 1.000000
vt 0.312500 1.000000
vt 0.328125 0.937500
vt 0.453125 1.000000
vt 0.343750 0.750000
vt 0.375000 0.625000
vt 0.234375 0.562500
vt 0.234375 0.687500
vt 0.218750 0.687500
vt 0.125000 0.937500
vt 0.140625 0.812500
vt 0.140625 0.937500
vt 0.296875 0.750000
vt 0.296875 1.000000
s 0
usemtl Material.001
f 111/113/113 110/114/113 116/115/113 117/116/113
f 110/117/114 111/118/114 113/119/114
f 137/120/115 110/117/115 112/121/115
f 110/117/116 113/119/116 112/121/116
f 117/116/117 116/115/117 118/114/117 115/113/117
f 138/120/118 109/115/118 118/114/118 142/122/118
f 109/115/119 114/116/119 115/113/119 118/114/119
f 114/123/120 109/124/120 119/125/120
f 144/126/121 134/127/121 120/128/121
f 119/129/122 109/130/122 120/131/122
f 109/130/123 143/132/123 144/133/123 120/131/123
f 116/115/124 141/120/124 142/122/124 118/114/124
f 112/121/125 113/119/125 140/134/125
f 113/119/126 139/135/126 140/134/126
f 111/118/127 139/135/127 113/119/127
f 109/136/128 138/137/128 143/138/128
f 110/114/129 137/122/129 141/120/129 116/115/129
f 110/139/130 137/140/130 122/141/130 121/142/130
f 125/143/131 131/144/131 130/118/131 124/145/131
f 111/113/132 117/116/132 131/144/132 125/143/132
f 124/146/133 127/144/133 125/115/133
f 137/120/134 126/147/134 124/115/134
f 124/115/135 126/147/135 127/146/135
f 137/120/136 112/121/136 126/147/136
f 112/121/137 140/134/137 126/147/137
f 117/116/138 115/113/138 129/143/138 131/144/138
f 131/144/139 129/143/139 132/145/139 130/118/139
f 138/120/140 142/122/140 132/145/140 123/118/140
f 123/118/141 132/145/141 129/143/141 128/144/141
f 128/148/142 133/149/142 123/150/142
f 114/123/143 119/125/143 133/149/143 128/148/143
f 133/151/144 134/152/144 123/153/144
f 123/153/145 134/152/145 144/133/145 143/132/145
f 130/118/146 132/145/146 142/122/146 141/120/146
f 126/147/147 140/134/147 127/146/147
f 127/146/148 140/134/148 139/135/148
f 125/144/149 127/146/149 139/135/149
f 125/144/150 139/135/150 111/118/150
f 123/136/151 143/138/151 138/137/151
f 124/145/152 130/118/152 141/120/152 137/122/152
f 124/140/153 135/141/153 136/142/153 137/139/153
f 128/144/154 129/143/154 115/113/154 114/116/154
f 120/128/155 134/127/155 133/154/155 119/155/155
o BezierCircle
v -26.683170 10.649023 -1.546623
v -26.439865 10.566792 -5.096894
v -25.731138 10.327261 -8.502262
v -24.588779 9.941174 -11.731503
v -23.044582 9.419273 -14.753392
v -21.130333 8.772306 -17.536705
v -18.877823 8.011015 -20.050215
v -16.318838 7.146144 -22.262699
v -13.485172 6.188437 -24.142933
v -10.408615 5.148640 -25.659693
v -7.120955 4.037494 -26.781750
v -3.653981 2.865746 -27.477882
v -0.039484 1.644138 -27.716871
v 3.575013 0.422530 -27.477888
v 7.041987 -0.749218 -26.781755
v 10.329647 -1.860364 -25.659697
v 13.406204 -2.900162 -24.142939
v 16.239868 -3.857868 -22.262705
v 18.798851 -4.722738 -20.050219
v 21.051361 -5.484029 -17.536705
v 22.965611 -6.130996 -14.753392
v 24.509808 -6.652895 -11.731503
v 25.652164 -7.038984 -8.502262
v 26.360889 -7.278514 -5.096893
v 26.604202 -7.360748 -1.546623
v 26.360897 -7.278516 2.003647
v 25.652170 -7.038985 5.409015
v 24.509811 -6.652897 8.638256
v 22.965614 -6.130998 11.660146
v 21.051365 -5.484031 14.443458
v 18.798855 -4.722739 16.956968
v 16.239870 -3.857868 19.169453
v 13.406204 -2.900162 21.049686
v 10.329647 -1.860364 22.566446
v 7.041987 -0.749218 23.688503
v 3.575013 0.422530 24.384636
v -0.039484 1.644138 24.623625
v -3.653981 2.865746 24.384642
v -7.120955 4.037494 23.688509
v -10.408615 5.148640 22.566450
v -13.485172 6.188437 21.049692
v -16.318836 7.146143 19.169458
v -18.877819 8.011014 16.956972
v -21.130329 8.772305 14.443460
v -23.044579 9.419271 11.660146
v -24.588776 9.941172 8.638256
v -25.731133 10.327259 5.409015
v -26.439857 10.566790 2.003647
l 145 146
l 146 147
l 147 148
l 148 149
l 149 150
l 150 151
l 151 152
l 152 153
l 153 154
l 154 155
l 155 156
l 156 157
l 157 158
l 158 159
l 159 160
l 160 161
l 161 162
l 162 163
l 163 164
l 164 165
l 165 166
l 166 167
l 167 168
l 168 169
l 169 170
l 170 171
l 171 172
l 172 173
l 173 174
l 174 175
l 175 176
l 176 177
l 177 178
l 178 179
l 179 180
l 180 181
l 181 182
l 182 183
l 183 184
l 184 185
l 185 186
l 186 187
l 187 188
l 188 189
l 189 190
l 190 191
l 191 192
l 192 145
