# Blender 3.6.4
# www.blender.org
mtllib ost23.mtl
o Cube
v -1.647017 0.242559 0.897636
v -1.527075 0.568431 -1.540576
v -2.168422 -1.029621 0.531882
v -2.152311 -1.008413 -1.708926
v -0.340361 -2.985504 0.604987
v -0.328810 -2.970589 -0.918183
v -1.782554 -3.005219 0.591521
v -1.770849 -2.988975 -0.931000
v -0.891794 -3.152464 -0.088484
v -0.889038 -3.148638 -0.447035
v -1.213734 -3.156757 -0.091005
v -1.210978 -3.152932 -0.449556
v -1.232008 -4.038143 -0.303754
v -1.233999 -3.980261 0.050120
v -0.912110 -3.987269 0.053078
v -0.910119 -4.045151 -0.300796
v -1.508359 -4.604791 -0.394860
v -1.510590 -4.514091 0.097628
v -0.659100 -4.516640 0.105771
v -0.655492 -4.557984 -0.384851
v -0.943604 -4.065641 0.853288
v -1.220494 -4.053081 0.849676
v -0.725455 -4.360588 0.902758
v -1.452296 -4.344763 0.896081
v -1.361307 1.800128 -1.011312
v -1.310972 1.756398 0.742916
v -0.504334 3.176193 -0.105012
v 0.001767 3.088002 0.156763
v -2.233255 0.329399 -1.802740
v -1.743315 0.945199 -1.438491
v -1.683316 0.895151 0.984234
v -2.040042 1.848018 0.225462
v -2.160081 1.928462 -0.380672
v -2.887667 2.207410 0.303823
v -4.809215 -0.600637 1.183888
v -2.488377 0.286364 -1.138602
v -5.094432 0.481295 2.077592
v -5.321270 0.012247 1.125632
v -4.540828 0.787601 1.499255
v -4.751504 0.776050 1.111519
v 1.695265 -0.460762 1.027815
v 1.503051 0.844137 -0.913751
v 2.204571 -1.517114 0.090438
v 2.107651 -0.360578 -1.801757
v 0.364149 -3.231920 -0.726905
v 0.298811 -2.458473 -2.057902
v 1.807378 -3.250923 -0.958557
v 1.736720 -2.406625 -2.223721
v 0.889662 -3.015686 -1.575002
v 0.873022 -2.816855 -1.872946
v 1.211213 -3.013398 -1.591433
v 1.194574 -2.814568 -1.889377
v 1.213632 -3.635473 -2.251351
v 1.229856 -3.780093 -1.923627
v 0.908276 -3.792081 -1.912997
v 0.892052 -3.647462 -2.240722
v 1.498711 -4.593494 -2.822635
v 1.504232 -4.300063 -2.200722
v 0.652957 -4.267890 -2.148460
v 0.630365 -4.047720 -2.586328
v 0.970133 -4.294047 -1.287159
v 1.246772 -4.277679 -1.293630
v 0.751539 -4.571208 -1.398643
v 1.477683 -4.544137 -1.422645
v 1.341518 1.760685 -0.857868
v 1.363060 1.671771 0.865230
v 0.477273 3.191214 -0.161107
v 2.189782 0.780760 -1.245724
v 1.708357 0.935580 -1.318191
v 1.746117 0.820453 1.064815
v 2.206841 2.129848 0.043093
v 2.226566 2.151893 -0.860123
v 2.970491 2.246664 -0.034673
v 4.569942 -0.678118 -1.204272
v 2.498332 0.697821 -1.492143
v 4.965329 -0.421277 0.143660
v 5.143056 -0.213790 -0.906603
v 4.451384 0.226139 -0.083249
v 4.661146 0.439704 -0.407668
v 0.000000 0.659971 -2.353794
v 0.004611 -1.067434 0.676525
v -0.006859 -0.718531 -2.237707
v 0.009915 -0.072639 1.387638
v -0.000000 1.618504 -1.958405
v 0.005264 1.424629 1.367401
v -0.012407 3.275544 -0.520749
v -0.418465 3.196668 -0.158125
v 0.000000 0.061724 -2.536163
v 0.013956 0.453731 1.563066
v -0.000691 3.091053 0.160449
v 0.416740 3.245448 -0.151045
v 0.016250 3.107448 -0.509935
v -0.459403 4.293989 -0.669848
v -0.138221 4.448948 -0.430484
v 0.215375 4.377409 -0.662569
v -0.074632 3.951267 -0.914207
v -0.626571 5.791908 -0.966341
v -0.286633 5.778430 -0.690658
v 0.048886 5.869137 -0.957004
v -0.277991 5.782082 -1.346080
v -0.832119 7.538712 -0.544963
v -0.468577 7.327033 -0.337405
v -0.156603 7.615484 -0.536084
v -0.546768 8.051838 -0.676024
v -1.072802 8.825773 0.475118
v -0.625216 8.578067 0.646532
v -0.240574 8.920927 0.486621
v -0.683551 9.139241 0.224932
vn -0.1853 -0.3862 0.9036
vn -0.9813 -0.1923 -0.0092
vn -0.9277 0.3732 0.0007
vn -0.0437 -0.0035 0.9990
vn 0.9867 -0.1618 -0.0132
vn -0.0077 0.1682 0.9857
vn -0.2712 -0.9624 -0.0124
vn 0.2977 -0.9546 -0.0072
vn 0.0112 -0.9741 0.2256
vn 0.0150 -0.9411 -0.3379
vn 0.0315 0.9950 0.0944
vn -0.9997 0.0228 -0.0084
vn 0.0077 -0.1619 -0.9868
vn 0.9997 -0.0225 0.0084
vn 0.0243 -0.9908 0.1332
vn -0.8891 0.4500 -0.0834
vn 0.0055 0.1601 -0.9871
vn 0.8975 0.4386 -0.0456
vn -0.0056 0.1614 0.9869
vn 0.8663 0.4987 0.0288
vn -0.8511 0.5249 0.0065
vn -0.0133 -0.9798 0.1997
vn -0.4459 0.6218 -0.6439
vn -0.9837 0.1799 -0.0005
vn -0.4744 0.3726 -0.7975
vn -0.3947 0.6640 -0.6350
vn -0.3541 0.9291 0.1068
vn -0.2943 0.2766 0.9148
vn -0.9163 0.3992 0.0332
vn 0.4265 -0.5495 0.7184
vn 0.5109 -0.4424 0.7371
vn -0.0401 0.9268 0.3734
vn -0.6093 0.3048 0.7320
vn -0.1454 -0.9885 -0.0415
vn -0.5769 0.3294 -0.7475
vn -0.6974 0.7160 -0.0291
vn -0.6561 0.2459 -0.7134
vn -0.3784 0.6591 0.6499
vn 0.3140 -0.9342 -0.1693
vn 0.2607 0.4259 0.8664
vn -0.5164 0.8171 0.2563
vn -0.3766 0.6463 -0.6637
vn -0.2292 0.5725 0.7872
vn -0.3321 0.0911 0.9388
vn -0.0902 -0.4432 -0.8919
vn -0.3501 0.0914 -0.9322
vn -0.2732 0.6206 -0.7350
vn 0.0582 -0.6167 0.7851
vn 0.9793 -0.1434 -0.1429
vn 0.9292 0.3388 0.1474
vn 0.1204 -0.5295 0.8398
vn -0.9867 -0.1604 -0.0246
vn 0.0474 -0.3970 0.9166
vn 0.2623 -0.7958 -0.5457
vn -0.3809 -0.8023 -0.4597
vn -0.0499 -0.9556 -0.2904
vn -0.0681 -0.5616 -0.8246
vn -0.0192 0.7817 0.6234
vn 0.9988 0.0376 -0.0318
vn -0.0474 0.4028 -0.9141
vn -0.9988 -0.0374 0.0319
vn -0.3066 -0.9490 0.0737
vn 0.9154 0.3940 -0.0827
vn 0.0793 0.5587 -0.8256
vn -0.8972 0.3794 0.2263
vn 0.0452 -0.4033 0.9139
vn -0.8602 0.3900 0.3286
vn 0.8684 0.4362 0.2357
vn -0.0193 -0.9415 -0.3364
vn 0.4943 0.5849 -0.6431
vn 0.9871 0.1600 0.0033
vn 0.6330 0.2323 -0.7385
vn -0.1585 0.3533 -0.9220
vn 0.3189 0.8010 0.5067
vn 0.2512 0.2565 0.9333
vn 0.9132 0.4074 0.0071
vn -0.4789 -0.5804 0.6587
vn 0.1646 -0.3671 0.9155
vn -0.0369 0.2813 0.9589
vn 0.6138 0.2628 0.7445
vn 0.4257 -0.9040 -0.0385
vn 0.5433 0.6242 -0.5613
vn 0.7723 0.5129 0.3748
vn 0.4414 0.4592 -0.7709
vn 0.3183 0.6508 0.6893
vn -0.5797 -0.7733 -0.2568
vn 0.0944 0.0452 0.9945
vn 0.6048 0.4271 0.6722
vn 0.3418 0.8479 -0.4054
vn 0.1884 0.5782 0.7939
vn 0.2750 0.0738 0.9586
vn 0.0685 0.0625 -0.9957
vn 0.3907 0.3454 -0.8533
vn 0.2661 0.7484 -0.6075
vn 0.1900 0.4749 0.8593
vn 0.4782 0.3305 0.8137
vn -0.5882 0.2954 0.7529
vn -0.6651 -0.3551 -0.6569
vn 0.7338 -0.1933 -0.6513
vn 0.4967 0.4070 0.7666
vn 0.7436 -0.0627 -0.6657
vn 0.5678 0.2193 0.7934
vn -0.6235 0.0835 0.7774
vn -0.6922 -0.2270 -0.6851
vn 0.6213 -0.1093 0.7759
vn -0.6013 -0.2492 0.7592
vn -0.6779 0.1172 -0.7258
vn 0.6533 0.2694 -0.7076
vn -0.7448 0.3441 -0.5717
vn 0.6632 0.5052 -0.5523
vn 0.6829 -0.4102 0.6045
vn -0.5889 -0.5556 0.5869
vt 0.203125 0.375000
vt 0.109375 0.375000
vt 0.109375 0.062500
vt 0.203125 0.062500
vt 0.218750 0.375000
vt 0.218750 0.187500
vt 0.265625 0.250000
vt 0.265625 0.375000
vt 0.250000 0.144531
vt 0.226074 0.289062
vt 0.250000 0.250000
vt 0.328125 0.375000
vt 0.281250 0.312500
vt 0.328125 0.312500
vt 0.359375 0.250000
vt 0.343750 0.250000
vt 0.343750 0.062500
vt 0.359375 0.062500
vt 0.312500 0.187500
vt 0.312500 0.125000
vt 0.328125 0.062500
vt 0.328125 0.250000
vt 0.296875 0.125000
vt 0.296875 0.187500
vt 0.281250 0.250000
vt 0.281250 0.062500
vt 0.437500 0.187500
vt 0.437500 0.250000
vt 0.406250 0.250000
vt 0.406250 0.187500
vt 0.375000 0.250000
vt 0.375000 0.062500
vt 0.484375 0.375000
vt 0.468750 0.375000
vt 0.468750 0.312500
vt 0.484375 0.312500
vt 0.453125 0.250000
vt 0.453125 0.375000
vt 0.437500 0.375000
vt 0.453125 0.187500
vt 0.484375 0.125000
vt 0.437500 0.062500
vt 0.453125 0.062500
vt 0.390625 0.312500
vt 0.390625 0.125000
vt 0.406250 0.062500
vt 0.406250 0.375000
vt 0.453125 0.312500
vt 0.500000 0.187500
vt 0.562500 0.187500
vt 0.500000 0.500000
vt 0.500000 0.375000
vt 0.625000 0.062500
vt 0.578125 0.062500
vt 0.578125 0.187500
vt 0.625000 0.187500
vt 0.500000 0.062500
vt 0.562500 0.062500
vt 0.562500 0.375000
vt 0.609375 0.875000
vt 0.671875 0.875000
vt 0.640625 1.000000
vt 0.765625 0.437500
vt 0.718750 0.437500
vt 0.718750 0.250000
vt 0.765625 0.250000
vt 0.687500 0.437500
vt 0.640625 0.250000
vt 0.640625 0.437500
vt 0.593750 1.000000
vt 0.578125 1.000000
vt 0.578125 0.625000
vt 0.000000 0.062500
vt 0.093750 0.500000
vt 0.265625 0.500000
vt 0.578125 0.312500
vt 0.625000 0.312500
vt 0.562500 0.500000
vt 0.625000 0.375000
vt 0.656250 0.562500
vt 0.609375 0.562500
vt 0.609375 0.750000
vt 0.656250 0.750000
vt 0.468750 1.000000
vt 0.468750 0.625000
vt 0.625000 0.500000
vt 0.218750 0.062500
vt 0.265625 0.062500
vt 0.000000 0.375000
vt 0.093750 0.375000
vt 0.093750 0.062500
vt 0.765625 0.875000
vt 0.765625 1.000000
vt 0.281250 0.375000
vt 0.671875 0.500000
vt 0.687500 0.500000
vt 0.687500 0.625000
vt 0.671875 0.625000
vt 0.703125 0.500000
vt 0.703125 0.625000
vt 0.687500 0.812500
vt 0.671875 0.812500
vt 0.703125 0.812500
vt 0.734375 0.500000
vt 0.750000 0.500000
vt 0.750000 0.687500
vt 0.734375 0.687500
vt 0.718750 0.500000
vt 0.718750 0.687500
vt 0.750000 0.812500
vt 0.734375 0.812500
vt 0.718750 0.812500
s 0
usemtl Material
f 83/1/1 1/2/1 3/3/1 81/4/1
f 3/5/2 4/6/2 8/7/2 7/8/2
f 4/9/3 3/10/3 1/11/3 2/11/3
f 81/11/4 3/10/4 7/7/4 5/7/4
f 82/12/5 81/13/5 5/13/5 6/14/5
f 9/15/6 11/16/6 14/17/6 15/18/6
f 12/19/7 11/20/7 7/21/7 8/22/7
f 9/23/8 10/24/8 6/25/8 5/26/8
f 11/20/9 9/23/9 5/26/9 7/21/9
f 10/24/10 12/19/10 8/22/10 6/25/10
f 15/27/11 14/28/11 22/29/11 21/30/11
f 11/31/12 12/15/12 13/18/12 14/32/12
f 12/15/13 10/16/13 16/17/13 13/18/13
f 10/31/14 9/15/14 15/18/14 16/32/14
f 20/33/15 19/34/15 18/35/15 17/36/15
f 14/28/16 13/37/16 17/38/16 18/39/16
f 13/37/17 16/40/17 20/41/17 17/36/17
f 16/40/18 15/27/18 19/42/18 20/43/18
f 21/30/19 22/29/19 24/44/19 23/45/19
f 19/42/20 15/27/20 21/30/20 23/46/20
f 14/28/21 18/39/21 24/47/21 22/29/21
f 18/35/22 19/34/22 23/38/22 24/48/22
f 84/49/23 25/50/23 27/51/23 86/52/23
f 2/53/24 1/54/24 26/55/24 25/56/24
f 80/57/25 2/58/25 25/50/25 84/49/25
f 27/51/26 25/50/26 33/59/26
f 1/60/27 2/61/27 29/62/27
f 85/63/28 26/64/28 31/65/28 89/66/28
f 26/64/29 25/67/29 30/68/29 31/65/29
f 84/69/30 25/67/30 30/68/30
f 25/70/31 33/71/31 36/72/31
f 27/73/32 28/73/32 90/73/32 87/73/32
f 67/74/33 86/75/33 92/75/33 91/74/33
f 25/56/34 26/55/34 32/76/34 33/77/34
f 34/78/35 33/59/35 40/79/35
f 39/80/36 40/81/36 38/82/36 37/83/36
f 40/84/37 33/71/37 36/72/37 35/85/37
f 26/50/38 28/52/38 32/59/38
f 33/79/39 32/86/39 39/78/39 40/59/39
f 32/59/40 34/78/40 39/79/40
f 34/78/41 40/86/41 39/79/41
f 34/78/42 27/51/42 33/59/42
f 26/50/43 85/49/43 28/52/43
f 1/58/44 83/57/44 85/49/44 26/50/44
f 4/6/45 82/87/45 6/88/45 8/7/45
f 2/89/46 80/90/46 82/91/46 4/73/46
f 2/61/47 80/92/47 88/93/47 29/62/47
f 83/1/48 81/4/48 43/3/48 41/2/48
f 43/5/49 47/87/49 48/88/49 44/8/49
f 44/11/50 42/11/50 41/11/50 43/11/50
f 81/5/51 45/87/51 47/88/51 43/8/51
f 82/12/52 46/94/52 45/13/52 81/14/52
f 49/16/53 55/17/53 54/18/53 51/15/53
f 52/23/54 48/26/54 47/21/54 51/20/54
f 49/19/55 45/22/55 46/25/55 50/24/55
f 51/20/56 47/21/56 45/22/56 49/19/56
f 50/24/57 46/25/57 48/26/57 52/23/57
f 55/28/58 61/29/58 62/30/58 54/27/58
f 51/15/59 54/18/59 53/32/59 52/31/59
f 52/16/60 53/17/60 56/18/60 50/15/60
f 50/15/61 56/18/61 55/32/61 49/31/61
f 60/36/62 57/33/62 58/34/62 59/35/62
f 54/27/63 58/42/63 57/43/63 53/40/63
f 53/40/64 57/41/64 60/36/64 56/37/64
f 56/37/65 60/38/65 59/39/65 55/28/65
f 61/29/66 63/44/66 64/45/66 62/30/66
f 59/39/67 63/47/67 61/29/67 55/28/67
f 54/27/68 62/30/68 64/46/68 58/42/68
f 58/34/69 64/38/69 63/48/69 59/35/69
f 84/49/70 86/52/70 67/51/70 65/50/70
f 42/53/71 65/77/71 66/76/71 41/54/71
f 80/57/72 84/49/72 65/50/72 42/58/72
f 67/51/73 72/59/73 65/50/73
f 41/60/74 68/62/74 42/61/74
f 85/63/75 89/66/75 70/65/75 66/64/75
f 66/64/76 70/65/76 69/68/76 65/67/76
f 84/69/77 69/68/77 65/67/77
f 65/70/78 75/72/78 72/71/78
f 34/78/79 32/59/79 28/52/79 27/51/79
f 86/75/80 27/74/80 87/74/80 92/75/80
f 65/51/81 72/78/81 71/59/81 66/52/81
f 73/78/82 79/79/82 72/59/82
f 78/80/83 76/83/83 77/82/83 79/81/83
f 79/84/84 74/85/84 75/72/84 72/71/84
f 66/50/85 71/59/85 28/52/85
f 72/78/86 79/86/86 78/79/86 71/59/86
f 71/59/87 78/79/87 73/78/87
f 73/78/88 78/79/88 79/86/88
f 73/78/89 72/59/89 67/51/89
f 66/50/90 28/52/90 85/49/90
f 41/58/91 66/50/91 85/49/91 83/57/91
f 44/8/92 48/5/92 46/87/92 82/88/92
f 42/89/93 44/73/93 82/91/93 80/90/93
f 42/61/94 68/62/94 88/93/94 80/92/94
f 28/52/95 71/59/95 73/78/95 67/51/95
f 28/95/96 67/73/96 91/73/96 90/95/96
f 87/95/97 90/96/97 94/97/97 93/98/97
f 92/96/98 87/99/98 93/100/98 96/97/98
f 91/95/99 92/96/99 96/97/99 95/98/99
f 90/96/100 91/99/100 95/100/100 94/97/100
f 95/98/101 96/97/101 100/101/101 99/102/101
f 94/97/102 95/100/102 99/103/102 98/101/102
f 93/98/103 94/97/103 98/101/103 97/102/103
f 96/97/104 93/100/104 97/103/104 100/101/104
f 98/104/105 99/105/105 103/106/105 102/107/105
f 97/108/106 98/104/106 102/107/106 101/109/106
f 100/104/107 97/105/107 101/106/107 104/107/107
f 99/108/108 100/104/108 104/107/108 103/109/108
f 104/107/109 101/106/109 105/110/109 108/111/109
f 103/109/110 104/107/110 108/111/110 107/112/110
f 102/107/111 103/106/111 107/110/111 106/111/111
f 101/109/112 102/107/112 106/111/112 105/112/112
o Icosphere
v 0.566761 9.170803 1.511309
v 0.530807 9.696026 1.469642
v -0.033978 9.666908 0.501631
v -0.108826 11.137194 1.936799
v 0.304784 10.660159 0.813012
v 0.006584 9.162457 0.394867
v 0.056650 9.235850 0.329147
v 0.636729 9.641835 1.501827
v 0.028516 9.623989 0.407230
v 0.660401 9.253366 1.534702
v -0.239737 8.928482 0.270452
v 0.900594 8.455483 1.481710
v 0.601093 11.014300 1.489172
v -0.656923 11.131500 2.805038
v -1.955115 8.958004 1.532819
v -2.007976 9.483850 1.494893
v -1.477845 9.530088 0.503128
v -1.614153 11.008884 1.950084
v -1.999092 10.443668 0.816562
v -1.421548 9.043340 0.391261
v -1.487137 9.106010 0.330231
v -2.102506 9.413306 1.529281
v -1.532280 9.478368 0.410124
v -2.060751 9.025103 1.559478
v -1.112178 8.864237 0.229925
v -2.162113 8.194335 1.498421
v -2.292753 10.774072 1.522309
v -1.031353 11.097116 2.810934
v -0.741679 9.831757 2.715870
v -0.698296 9.296050 2.787682
v -0.884863 10.865687 0.335941
v -0.918449 11.336884 1.237918
v -0.735942 9.777836 2.834831
v -0.703947 9.382343 2.885161
v -0.669295 9.076114 3.729601
v -0.597965 8.293711 4.484251
vn 0.4111 0.8756 -0.2537
vn 0.8574 -0.1369 -0.4961
vn 0.7018 0.0821 0.7076
vn 0.9186 0.3457 0.1914
vn 0.8809 0.0859 -0.4655
vn 0.4972 -0.6612 0.5617
vn 0.6522 -0.6876 -0.3192
vn 0.7316 -0.5773 -0.3627
vn 0.0849 -0.9963 -0.0113
vn 0.7442 0.3703 -0.5560
vn 0.7928 0.4256 0.4362
vn 0.7008 0.1243 0.7025
vn 0.4111 0.8837 -0.2238
vn 0.3183 0.8451 -0.4296
vn 0.3904 0.1516 -0.9081
vn 0.3019 0.9304 0.2079
vn 0.3997 0.8592 0.3193
vn -0.7062 0.0711 -0.7045
vn -0.5547 0.7944 -0.2473
vn -0.0841 0.8880 -0.4521
vn -0.8304 -0.3164 -0.4586
vn -0.6881 -0.0386 0.7246
vn -0.9555 0.1761 0.2367
vn -0.0373 0.5254 0.8501
vn -0.0763 0.9319 0.3547
vn -0.0191 0.2016 -0.9793
vn -0.8948 -0.0735 -0.4404
vn -0.3703 -0.7317 0.5722
vn -0.5355 -0.7874 -0.3053
vn -0.5965 -0.7301 -0.3334
vn -0.0293 0.5656 -0.8241
vn -0.8064 0.2429 -0.5392
vn -0.8449 0.2850 0.4527
vn -0.6959 0.0083 0.7180
vn -0.5771 0.7921 -0.1990
vn -0.4745 0.7728 -0.4214
vn -0.4180 0.0722 -0.9056
vn 0.0112 -0.1291 -0.9916
vn -0.4491 0.8669 0.2163
vn -0.5280 0.7827 0.3295
vn 0.6673 0.1846 -0.7215
vn 0.0573 -0.6770 -0.7338
vn 0.0773 -0.9044 -0.4196
vt 0.312500 0.750000
vt 0.312500 0.437500
vt 0.328125 0.500000
vt 0.328125 0.750000
vt 0.437500 0.750000
vt 0.437500 0.937500
vt 0.421875 0.812500
vt 0.437500 0.500000
vt 0.421875 0.625000
vt 0.453125 0.437500
vt 0.281250 0.562500
vt 0.296875 0.687500
vt 0.281250 0.687500
vt 0.218750 0.875000
vt 0.250000 0.750000
vt 0.250000 1.000000
vt 0.203125 0.937500
vt 0.187500 0.937500
vt 0.187500 0.812500
vt 0.156250 0.937500
vt 0.156250 0.812500
vt 0.390625 0.750000
vt 0.390625 0.812500
vt 0.125000 0.750000
vt 0.203125 0.750000
vt 0.203125 0.562500
vt -0.000000 0.562500
vt 0.109375 0.562500
vt 0.109375 1.000000
vt -0.000000 1.000000
vt 0.312500 1.000000
vt 0.328125 0.937500
vt 0.453125 1.000000
vt 0.343750 0.750000
vt 0.375000 0.625000
vt 0.234375 0.562500
vt 0.234375 0.687500
vt 0.218750 0.687500
vt 0.125000 0.937500
vt 0.140625 0.812500
vt 0.140625 0.937500
vt 0.296875 0.750000
vt 0.296875 1.000000
s 0
usemtl Material.001
f 111/113/113 110/114/113 116/115/113 117/116/113
f 110/117/114 111/118/114 113/119/114
f 137/120/115 110/117/115 112/121/115
f 110/117/116 113/119/116 112/121/116
f 117/116/117 116/115/117 118/114/117 115/113/117
f 138/120/118 109/115/118 118/114/118 142/122/118
f 109/115/119 114/116/119 115/113/119 118/114/119
f 114/123/120 109/124/120 119/125/120
f 144/126/121 134/127/121 120/128/121
f 119/129/122 109/130/122 120/131/122
f 109/130/123 143/132/123 144/133/123 120/131/123
f 116/115/124 141/120/124 142/122/124 118/114/124
f 112/121/125 113/119/125 140/134/125
f 113/119/126 139/135/126 140/134/126
f 111/118/127 139/135/127 113/119/127
f 109/136/128 138/137/128 143/138/128
f 110/114/129 137/122/129 141/120/129 116/115/129
f 110/139/130 137/140/130 122/141/130 121/142/130
f 125/143/131 131/144/131 130/118/131 124/145/131
f 111/113/132 117/116/132 131/144/132 125/143/132
f 124/146/133 127/144/133 125/115/133
f 137/120/134 126/147/134 124/115/134
f 124/115/135 126/147/135 127/146/135
f 137/120/136 112/121/136 126/147/136
f 112/121/137 140/134/137 126/147/137
f 117/116/138 115/113/138 129/143/138 131/144/138
f 131/144/139 129/143/139 132/145/139 130/118/139
f 138/120/140 142/122/140 132/145/140 123/118/140
f 123/118/141 132/145/141 129/143/141 128/144/141
f 128/148/142 133/149/142 123/150/142
f 114/123/143 119/125/143 133/149/143 128/148/143
f 133/151/144 134/152/144 123/153/144
f 123/153/145 134/152/145 144/133/145 143/132/145
f 130/118/146 132/145/146 142/122/146 141/120/146
f 126/147/147 140/134/147 127/146/147
f 127/146/148 140/134/148 139/135/148
f 125/144/149 127/146/149 139/135/149
f 125/144/150 139/135/150 111/118/150
f 123/136/151 143/138/151 138/137/151
f 124/145/152 130/118/152 141/120/152 137/122/152
f 124/140/153 135/141/153 136/142/153 137/139/153
f 128/144/154 129/143/154 115/113/154 114/116/154
f 120/128/155 134/127/155 133/154/155 119/155/155
o BezierCircle
v -26.683170 10.649023 -1.546623
v -26.439865 10.566792 -5.096894
v -25.731138 10.327261 -8.502262
v -24.588779 9.941174 -11.731503
v -23.044582 9.419273 -14.753392
v -21.130333 8.772306 -17.536705
v -18.877823 8.011015 -20.050215
v -16.318838 7.146144 -22.262699
v -13.485172 6.188437 -24.142933
v -10.408615 5.148640 -25.659693
v -7.120955 4.037494 -26.781750
v -3.653981 2.865746 -27.477882
v -0.039484 1.644138 -27.716871
v 3.575013 0.422530 -27.477888
v 7.041987 -0.749218 -26.781755
v 10.329647 -1.860364 -25.659697
v 13.406204 -2.900162 -24.142939
v 16.239868 -3.857868 -22.262705
v 18.798851 -4.722738 -20.050219
v 21.051361 -5.484029 -17.536705
v 22.965611 -6.130996 -14.753392
v 24.509808 -6.652895 -11.731503
v 25.652164 -7.038984 -8.502262
v 26.360889 -7.278514 -5.096893
v 26.604202 -7.360748 -1.546623
v 26.360897 -7.278516 2.003647
v 25.652170 -7.038985 5.409015
v 24.509811 -6.652897 8.638256
v 22.965614 -6.130998 11.660146
v 21.051365 -5.484031 14.443458
v 18.798855 -4.722739 16.956968
v 16.239870 -3.857868 19.169453
v 13.406204 -2.900162 21.049686
v 10.329647 -1.860364 22.566446
v 7.041987 -0.749218 23.688503
v 3.575013 0.422530 24.384636
v -0.039484 1.644138 24.623625
v -3.653981 2.865746 24.384642
v -7.120955 4.037494 23.688509
v -10.408615 5.148640 22.566450
v -13.485172 6.188437 21.049692
v -16.318836 7.146143 19.169458
v -18.877819 8.011014 16.956972
v -21.130329 8.772305 14.443460
v -23.044579 9.419271 11.660146
v -24.588776 9.941172 8.638256
v -25.731133 10.327259 5.409015
v -26.439857 10.566790 2.003647
l 145 146
l 146 147
l 147 148
l 148 149
l 149 150
l 150 151
l 151 152
l 152 153
l 153 154
l 154 155
l 155 156
l 156 157
l 157 158
l 158 159
l 159 160
l 160 161
l 161 162
l 162 163
l 163 164
l 164 165
l 165 166
l 166 167
l 167 168
l 168 169
l 169 170
l 170 171
l 171 172
l 172 173
l 173 174
l 174 175
l 175 176
l 176 177
l 177 178
l 178 179
l 179 180
l 180 181
l 181 182
l 182 183
l 183 184
l 184 185
l 185 186
l 186 187
l 187 188
l 188 189
l 189 190
l 190 191
l 191 192
l 192 145
