# Blender 3.6.4
# www.blender.org
mtllib ost22.mtl
o Cube
v -1.596538 0.658037 0.569641
v -1.475081 0.230522 -1.844805
v -2.182643 -0.527316 0.597100
v -2.185816 -1.307700 -1.490188
v -0.467159 -2.438630 1.359073
v -0.472813 -2.947709 -0.035521
v -1.922562 -2.307708 1.420063
v -1.924680 -2.877597 0.008082
v -1.049522 -2.759460 0.862155
v -1.050021 -2.893668 0.529636
v -1.371102 -2.744436 0.856574
v -1.371600 -2.878644 0.524055
v -1.281315 -3.582780 0.199493
v -1.275478 -3.710169 0.534633
v -0.955244 -3.677410 0.541508
v -0.961081 -3.550021 0.206368
v -1.504920 -4.047379 -0.110391
v -1.487678 -4.204018 0.317289
v -0.638397 -4.125900 0.328226
v -0.650562 -3.917225 -0.115797
v -0.943638 -4.148234 1.193936
v -1.219935 -4.170281 1.190367
v -0.689710 -4.398513 1.094381
v -1.412814 -4.472485 1.078857
v -1.350423 1.779082 -1.069981
v -1.292933 1.791229 0.645829
v -0.506697 3.175090 -0.104924
v 0.001648 3.088488 0.156590
v -2.192284 -0.060512 -2.037040
v -1.735334 0.919037 -1.473953
v -1.670073 0.943076 0.922241
v -2.027977 1.831168 0.228835
v -2.150177 1.909884 -0.376885
v -2.877932 2.181926 0.309602
v -4.760158 -0.646681 1.208444
v -2.466937 0.269235 -1.133712
v -5.052745 0.433966 2.101321
v -5.279856 -0.040102 1.151915
v -4.506438 0.745436 1.518815
v -4.719361 0.730415 1.132427
v 1.689639 -0.399963 1.033438
v 1.505891 0.834615 -0.971845
v 2.200262 -1.488056 0.139419
v 2.113003 -0.418200 -1.807649
v 0.360860 -3.240596 -0.610830
v 0.301937 -2.525935 -1.975120
v 1.804028 -3.266580 -0.822924
v 1.740418 -2.485416 -2.128376
v 0.889434 -3.060467 -1.454253
v 0.874454 -2.876504 -1.761685
v 1.211057 -3.059509 -1.469352
v 1.196077 -2.875546 -1.776783
v 1.215209 -3.713293 -2.097859
v 1.229742 -3.841643 -1.763351
v 0.908098 -3.852576 -1.753571
v 0.893564 -3.724225 -2.088080
v 1.499611 -4.654648 -2.611090
v 1.504369 -4.371133 -2.012212
v 0.652936 -4.338978 -1.966479
v 0.632617 -4.139521 -2.414463
v 0.966314 -4.323250 -1.103536
v 1.243008 -4.307666 -1.109577
v 0.747700 -4.605206 -1.202223
v 1.473990 -4.580519 -1.224306
v 1.340344 1.764611 -0.869164
v 1.359839 1.682314 0.859389
v 0.479476 3.190535 -0.160283
v 2.193923 0.753672 -1.301446
v 1.706483 0.934907 -1.326732
v 1.741881 0.828768 1.063395
v 2.198913 2.114526 0.051065
v 2.224113 2.137825 -0.851427
v 2.961596 2.220873 -0.022134
v 4.531698 -0.715708 -1.202273
v 2.489588 0.690127 -1.488621
v 4.916813 -0.476817 0.151891
v 5.108166 -0.262312 -0.894562
v 4.414361 0.179842 -0.074200
v 4.630409 0.393363 -0.394496
v 0.000000 0.659971 -2.353794
v 0.002495 -1.017233 0.688663
v -0.009387 -0.797348 -2.218081
v 0.015561 0.016926 1.344894
v -0.000000 1.618504 -1.958405
v 0.010316 1.450525 1.330777
v -0.012443 3.276068 -0.520920
v -0.418659 3.198529 -0.157447
v 0.000000 0.061724 -2.536163
v 0.016713 0.486624 1.540979
v -0.000102 3.090287 0.160478
v 0.417943 3.232802 -0.155724
v 0.008111 3.113663 -0.512210
v -0.428968 4.320318 -0.640571
v -0.099630 4.464128 -0.405136
v 0.248367 4.379860 -0.641618
v -0.059706 3.968829 -0.897213
v -0.548127 5.823517 -0.937351
v -0.205416 5.798579 -0.665934
v 0.129656 5.877395 -0.936592
v -0.204897 5.801299 -1.321417
v -0.688784 7.587544 -0.552997
v -0.330529 7.367959 -0.344483
v -0.010964 7.640972 -0.552658
v -0.387214 8.086166 -0.706739
v -0.875473 8.926739 0.412132
v -0.435177 8.671233 0.590822
v -0.040379 8.993122 0.413068
v -0.477917 9.215183 0.145448
vn -0.2727 -0.1934 0.9425
vn -0.9915 -0.1209 0.0481
vn -0.9019 0.4107 -0.1339
vn 0.0637 0.4184 0.9060
vn 0.9698 -0.2434 0.0124
vn -0.0094 -0.3237 0.9461
vn -0.3315 -0.8747 0.3535
vn 0.2298 -0.9123 0.3390
vn -0.0486 -0.8121 0.5816
vn -0.0469 -0.9978 0.0479
vn -0.0846 0.8098 0.5806
vn -0.9933 -0.1147 0.0106
vn 0.0056 0.4305 -0.9026
vn 0.9927 0.1199 -0.0106
vn 0.1131 -0.9150 -0.3873
vn -0.9286 0.3376 0.1538
vn -0.0819 0.5975 -0.7976
vn 0.8358 0.5109 0.2010
vn 0.0163 -0.3553 0.9346
vn 0.8004 0.5214 0.2957
vn -0.8995 0.3493 0.2624
vn 0.0963 -0.9378 -0.3336
vn -0.4363 0.6268 -0.6456
vn -0.9853 0.1679 -0.0331
vn -0.4368 0.3982 -0.8066
vn -0.4179 0.6738 -0.6094
vn -0.3279 0.9273 -0.1807
vn -0.3110 0.3053 0.9000
vn -0.9136 0.4058 0.0237
vn 0.4199 -0.5330 0.7346
vn 0.5479 -0.4353 0.7144
vn -0.0498 0.9199 0.3890
vn -0.6026 0.2878 0.7443
vn -0.1140 -0.9933 -0.0197
vn -0.5846 0.3187 -0.7461
vn -0.7061 0.7076 -0.0265
vn -0.6641 0.2385 -0.7086
vn -0.3605 0.6220 0.6951
vn 0.3239 -0.9308 -0.1692
vn 0.2603 0.4319 0.8636
vn -0.5246 0.8115 0.2575
vn -0.3849 0.6424 -0.6626
vn -0.2656 0.5608 0.7842
vn -0.4397 0.0294 0.8977
vn -0.0663 -0.7000 -0.7111
vn -0.3004 -0.0833 -0.9502
vn -0.2967 0.5639 -0.7707
vn 0.0470 -0.5820 0.8118
vn 0.9796 -0.1518 -0.1319
vn 0.9294 0.3430 0.1363
vn 0.1139 -0.4897 0.8644
vn -0.9866 -0.1621 -0.0191
vn 0.0427 -0.3515 0.9352
vn 0.2632 -0.8221 -0.5048
vn -0.3718 -0.8244 -0.4267
vn -0.0458 -0.9673 -0.2494
vn -0.0615 -0.6068 -0.7924
vn -0.0205 0.8114 0.5841
vn 0.9990 0.0344 -0.0292
vn -0.0427 0.3574 -0.9330
vn -0.9990 -0.0342 0.0293
vn -0.2917 -0.9529 0.0835
vn 0.9162 0.3918 -0.0841
vn 0.0759 0.5257 -0.8473
vn -0.8973 0.3916 0.2040
vn 0.0405 -0.3579 0.9329
vn -0.8609 0.4071 0.3052
vn 0.8672 0.4469 0.2197
vn -0.0171 -0.9562 -0.2923
vn 0.4903 0.5872 -0.6441
vn 0.9867 0.1623 0.0035
vn 0.6184 0.2506 -0.7448
vn -0.1388 0.3724 -0.9176
vn 0.3236 0.8187 0.4744
vn 0.2391 0.2641 0.9344
vn 0.9141 0.4054 0.0064
vn -0.4766 -0.5764 0.6638
vn 0.1409 -0.3771 0.9154
vn -0.0373 0.2805 0.9591
vn 0.6190 0.2489 0.7449
vn 0.4097 -0.9115 -0.0357
vn 0.5547 0.6197 -0.5553
vn 0.7756 0.4985 0.3873
vn 0.4537 0.4607 -0.7628
vn 0.3227 0.6537 0.6845
vn -0.5890 -0.7637 -0.2641
vn 0.0901 0.0388 0.9952
vn 0.6038 0.4124 0.6822
vn 0.3529 0.8465 -0.3986
vn 0.1805 0.5737 0.7989
vn 0.2543 0.0758 0.9642
vn 0.0698 0.0193 -0.9974
vn 0.3828 0.3093 -0.8705
vn 0.2662 0.7375 -0.6207
vn 0.1908 0.4737 0.8598
vn 0.4249 0.4608 0.7792
vn -0.5774 0.2946 0.7615
vn -0.6809 -0.3169 -0.6603
vn 0.7181 -0.2042 -0.6653
vn 0.5235 0.3750 0.7651
vn 0.7355 -0.0868 -0.6720
vn 0.5850 0.2006 0.7858
vn -0.6106 0.1058 0.7848
vn -0.7113 -0.2019 -0.6733
vn 0.6256 -0.1135 0.7719
vn -0.6013 -0.2111 0.7706
vn -0.6873 0.1219 -0.7161
vn 0.6608 0.2290 -0.7148
vn -0.7374 0.3448 -0.5808
vn 0.6749 0.4571 -0.5792
vn 0.6730 -0.4078 0.6171
vn -0.6014 -0.5091 0.6157
vt 0.203125 0.375000
vt 0.109375 0.375000
vt 0.109375 0.062500
vt 0.203125 0.062500
vt 0.218750 0.375000
vt 0.218750 0.187500
vt 0.265625 0.250000
vt 0.265625 0.375000
vt 0.250000 0.144531
vt 0.226074 0.289062
vt 0.250000 0.250000
vt 0.328125 0.375000
vt 0.281250 0.312500
vt 0.328125 0.312500
vt 0.359375 0.250000
vt 0.343750 0.250000
vt 0.343750 0.062500
vt 0.359375 0.062500
vt 0.312500 0.187500
vt 0.312500 0.125000
vt 0.328125 0.062500
vt 0.328125 0.250000
vt 0.296875 0.125000
vt 0.296875 0.187500
vt 0.281250 0.250000
vt 0.281250 0.062500
vt 0.437500 0.187500
vt 0.437500 0.250000
vt 0.406250 0.250000
vt 0.406250 0.187500
vt 0.375000 0.250000
vt 0.375000 0.062500
vt 0.484375 0.375000
vt 0.468750 0.375000
vt 0.468750 0.312500
vt 0.484375 0.312500
vt 0.453125 0.250000
vt 0.453125 0.375000
vt 0.437500 0.375000
vt 0.453125 0.187500
vt 0.484375 0.125000
vt 0.437500 0.062500
vt 0.453125 0.062500
vt 0.390625 0.312500
vt 0.390625 0.125000
vt 0.406250 0.062500
vt 0.406250 0.375000
vt 0.453125 0.312500
vt 0.500000 0.187500
vt 0.562500 0.187500
vt 0.500000 0.500000
vt 0.500000 0.375000
vt 0.625000 0.062500
vt 0.578125 0.062500
vt 0.578125 0.187500
vt 0.625000 0.187500
vt 0.500000 0.062500
vt 0.562500 0.062500
vt 0.562500 0.375000
vt 0.609375 0.875000
vt 0.671875 0.875000
vt 0.640625 1.000000
vt 0.765625 0.437500
vt 0.718750 0.437500
vt 0.718750 0.250000
vt 0.765625 0.250000
vt 0.687500 0.437500
vt 0.640625 0.250000
vt 0.640625 0.437500
vt 0.593750 1.000000
vt 0.578125 1.000000
vt 0.578125 0.625000
vt 0.000000 0.062500
vt 0.093750 0.500000
vt 0.265625 0.500000
vt 0.578125 0.312500
vt 0.625000 0.312500
vt 0.562500 0.500000
vt 0.625000 0.375000
vt 0.656250 0.562500
vt 0.609375 0.562500
vt 0.609375 0.750000
vt 0.656250 0.750000
vt 0.468750 1.000000
vt 0.468750 0.625000
vt 0.625000 0.500000
vt 0.218750 0.062500
vt 0.265625 0.062500
vt 0.000000 0.375000
vt 0.093750 0.375000
vt 0.093750 0.062500
vt 0.765625 0.875000
vt 0.765625 1.000000
vt 0.281250 0.375000
vt 0.671875 0.500000
vt 0.687500 0.500000
vt 0.687500 0.625000
vt 0.671875 0.625000
vt 0.703125 0.500000
vt 0.703125 0.625000
vt 0.687500 0.812500
vt 0.671875 0.812500
vt 0.703125 0.812500
vt 0.734375 0.500000
vt 0.750000 0.500000
vt 0.750000 0.687500
vt 0.734375 0.687500
vt 0.718750 0.500000
vt 0.718750 0.687500
vt 0.750000 0.812500
vt 0.734375 0.812500
vt 0.718750 0.812500
s 0
usemtl Material
f 83/1/1 1/2/1 3/3/1 81/4/1
f 3/5/2 4/6/2 8/7/2 7/8/2
f 4/9/3 3/10/3 1/11/3 2/11/3
f 81/11/4 3/10/4 7/7/4 5/7/4
f 82/12/5 81/13/5 5/13/5 6/14/5
f 9/15/6 11/16/6 14/17/6 15/18/6
f 12/19/7 11/20/7 7/21/7 8/22/7
f 9/23/8 10/24/8 6/25/8 5/26/8
f 11/20/9 9/23/9 5/26/9 7/21/9
f 10/24/10 12/19/10 8/22/10 6/25/10
f 15/27/11 14/28/11 22/29/11 21/30/11
f 11/31/12 12/15/12 13/18/12 14/32/12
f 12/15/13 10/16/13 16/17/13 13/18/13
f 10/31/14 9/15/14 15/18/14 16/32/14
f 20/33/15 19/34/15 18/35/15 17/36/15
f 14/28/16 13/37/16 17/38/16 18/39/16
f 13/37/17 16/40/17 20/41/17 17/36/17
f 16/40/18 15/27/18 19/42/18 20/43/18
f 21/30/19 22/29/19 24/44/19 23/45/19
f 19/42/20 15/27/20 21/30/20 23/46/20
f 14/28/21 18/39/21 24/47/21 22/29/21
f 18/35/22 19/34/22 23/38/22 24/48/22
f 84/49/23 25/50/23 27/51/23 86/52/23
f 2/53/24 1/54/24 26/55/24 25/56/24
f 80/57/25 2/58/25 25/50/25 84/49/25
f 27/51/26 25/50/26 33/59/26
f 1/60/27 2/61/27 29/62/27
f 85/63/28 26/64/28 31/65/28 89/66/28
f 26/64/29 25/67/29 30/68/29 31/65/29
f 84/69/30 25/67/30 30/68/30
f 25/70/31 33/71/31 36/72/31
f 27/73/32 28/73/32 90/73/32 87/73/32
f 67/74/33 86/75/33 92/75/33 91/74/33
f 25/56/34 26/55/34 32/76/34 33/77/34
f 34/78/35 33/59/35 40/79/35
f 39/80/36 40/81/36 38/82/36 37/83/36
f 40/84/37 33/71/37 36/72/37 35/85/37
f 26/50/38 28/52/38 32/59/38
f 33/79/39 32/86/39 39/78/39 40/59/39
f 32/59/40 34/78/40 39/79/40
f 34/78/41 40/86/41 39/79/41
f 34/78/42 27/51/42 33/59/42
f 26/50/43 85/49/43 28/52/43
f 1/58/44 83/57/44 85/49/44 26/50/44
f 4/6/45 82/87/45 6/88/45 8/7/45
f 2/89/46 80/90/46 82/91/46 4/73/46
f 2/61/47 80/92/47 88/93/47 29/62/47
f 83/1/48 81/4/48 43/3/48 41/2/48
f 43/5/49 47/87/49 48/88/49 44/8/49
f 44/11/50 42/11/50 41/11/50 43/11/50
f 81/5/51 45/87/51 47/88/51 43/8/51
f 82/12/52 46/94/52 45/13/52 81/14/52
f 49/16/53 55/17/53 54/18/53 51/15/53
f 52/23/54 48/26/54 47/21/54 51/20/54
f 49/19/55 45/22/55 46/25/55 50/24/55
f 51/20/56 47/21/56 45/22/56 49/19/56
f 50/24/57 46/25/57 48/26/57 52/23/57
f 55/28/58 61/29/58 62/30/58 54/27/58
f 51/15/59 54/18/59 53/32/59 52/31/59
f 52/16/60 53/17/60 56/18/60 50/15/60
f 50/15/61 56/18/61 55/32/61 49/31/61
f 60/36/62 57/33/62 58/34/62 59/35/62
f 54/27/63 58/42/63 57/43/63 53/40/63
f 53/40/64 57/41/64 60/36/64 56/37/64
f 56/37/65 60/38/65 59/39/65 55/28/65
f 61/29/66 63/44/66 64/45/66 62/30/66
f 59/39/67 63/47/67 61/29/67 55/28/67
f 54/27/68 62/30/68 64/46/68 58/42/68
f 58/34/69 64/38/69 63/48/69 59/35/69
f 84/49/70 86/52/70 67/51/70 65/50/70
f 42/53/71 65/77/71 66/76/71 41/54/71
f 80/57/72 84/49/72 65/50/72 42/58/72
f 67/51/73 72/59/73 65/50/73
f 41/60/74 68/62/74 42/61/74
f 85/63/75 89/66/75 70/65/75 66/64/75
f 66/64/76 70/65/76 69/68/76 65/67/76
f 84/69/77 69/68/77 65/67/77
f 65/70/78 75/72/78 72/71/78
f 34/78/79 32/59/79 28/52/79 27/51/79
f 86/75/80 27/74/80 87/74/80 92/75/80
f 65/51/81 72/78/81 71/59/81 66/52/81
f 73/78/82 79/79/82 72/59/82
f 78/80/83 76/83/83 77/82/83 79/81/83
f 79/84/84 74/85/84 75/72/84 72/71/84
f 66/50/85 71/59/85 28/52/85
f 72/78/86 79/86/86 78/79/86 71/59/86
f 71/59/87 78/79/87 73/78/87
f 73/78/88 78/79/88 79/86/88
f 73/78/89 72/59/89 67/51/89
f 66/50/90 28/52/90 85/49/90
f 41/58/91 66/50/91 85/49/91 83/57/91
f 44/8/92 48/5/92 46/87/92 82/88/92
f 42/89/93 44/73/93 82/91/93 80/90/93
f 42/61/94 68/62/94 88/93/94 80/92/94
f 28/52/95 71/59/95 73/78/95 67/51/95
f 28/95/96 67/73/96 91/73/96 90/95/96
f 87/95/97 90/96/97 94/97/97 93/98/97
f 92/96/98 87/99/98 93/100/98 96/97/98
f 91/95/99 92/96/99 96/97/99 95/98/99
f 90/96/100 91/99/100 95/100/100 94/97/100
f 95/98/101 96/97/101 100/101/101 99/102/101
f 94/97/102 95/100/102 99/103/102 98/101/102
f 93/98/103 94/97/103 98/101/103 97/102/103
f 96/97/104 93/100/104 97/103/104 100/101/104
f 98/104/105 99/105/105 103/106/105 102/107/105
f 97/108/106 98/104/106 102/107/106 101/109/106
f 100/104/107 97/105/107 101/106/107 104/107/107
f 99/108/108 100/104/108 104/107/108 103/109/108
f 104/107/109 101/106/109 105/110/109 108/111/109
f 103/109/110 104/107/110 108/111/110 107/112/110
f 102/107/111 103/106/111 107/110/111 106/111/111
f 101/109/112 102/107/112 106/111/112 105/112/112
o Icosphere
v 0.778594 9.257133 1.429626
v 0.752259 9.783633 1.382264
v 0.192431 9.747177 0.402230
v 0.140014 11.247931 1.831849
v 0.556202 10.747029 0.693553
v 0.219935 9.237334 0.307119
v 0.272120 9.309380 0.239431
v 0.857059 9.727766 1.415307
v 0.253829 9.700357 0.308240
v 0.873676 9.338483 1.452307
v -0.037612 8.995141 0.192167
v 1.098587 8.532713 1.408955
v 0.845670 11.102942 1.388879
v -0.415015 11.251163 2.704072
v -1.746916 9.089684 1.450418
v -1.790060 9.616979 1.406495
v -1.254600 9.645951 0.410736
v -1.367588 11.148240 1.845776
v -1.752552 10.585536 0.706947
v -1.211187 9.151692 0.309584
v -1.274742 9.215173 0.246386
v -1.885958 9.548014 1.441407
v -1.310316 9.592983 0.318482
v -1.851319 9.158781 1.475956
v -0.913101 8.955632 0.160690
v -1.968962 8.328903 1.426944
v -2.052016 10.913724 1.419980
v -0.789922 11.223249 2.709504
v -0.521247 9.949718 2.625196
v -0.486656 9.413984 2.701448
v -0.625721 10.971957 0.208422
v -0.650996 11.467129 1.110666
v -0.516649 9.896682 2.744604
v -0.491138 9.501149 2.798212
v -0.463336 9.201282 3.645185
v -0.406322 8.424000 4.406314
vn 0.4334 0.8605 -0.2679
vn 0.8582 -0.1713 -0.4839
vn 0.7015 0.0757 0.7086
vn 0.9248 0.3271 0.1942
vn 0.8854 0.0584 -0.4612
vn 0.4854 -0.6641 0.5687
vn 0.6412 -0.7047 -0.3038
vn 0.7200 -0.6006 -0.3477
vn 0.0663 -0.9978 -0.0029
vn 0.7477 0.3464 -0.5665
vn 0.7995 0.4149 0.4344
vn 0.7012 0.1188 0.7030
vn 0.4422 0.8693 -0.2208
vn 0.3403 0.8283 -0.4451
vn 0.3965 0.1209 -0.9100
vn 0.3170 0.9269 0.2011
vn 0.4133 0.8547 0.3140
vn -0.7036 0.0766 -0.7064
vn -0.5445 0.7982 -0.2577
vn -0.0638 0.8788 -0.4728
vn -0.8368 -0.2989 -0.4587
vn -0.6903 -0.0171 0.7233
vn -0.9540 0.1989 0.2242
vn -0.0273 0.5313 0.8467
vn -0.0586 0.9354 0.3486
vn -0.0170 0.1791 -0.9837
vn -0.8954 -0.0604 -0.4412
vn -0.3843 -0.7200 0.5778
vn -0.5497 -0.7808 -0.2970
vn -0.6287 -0.7026 -0.3334
vn -0.0171 0.5145 -0.8573
vn -0.8009 0.2505 -0.5438
vn -0.8394 0.3056 0.4495
vn -0.6965 0.0272 0.7170
vn -0.5650 0.7994 -0.2040
vn -0.4587 0.7735 -0.4374
vn -0.4215 0.0619 -0.9047
vn 0.0049 -0.1531 -0.9882
vn -0.4326 0.8772 0.2084
vn -0.5144 0.7942 0.3235
vn 0.6725 0.1663 -0.7212
vn 0.0395 -0.6924 -0.7204
vn 0.0578 -0.9136 -0.4026
vt 0.312500 0.750000
vt 0.312500 0.437500
vt 0.328125 0.500000
vt 0.328125 0.750000
vt 0.437500 0.750000
vt 0.437500 0.937500
vt 0.421875 0.812500
vt 0.437500 0.500000
vt 0.421875 0.625000
vt 0.453125 0.437500
vt 0.281250 0.562500
vt 0.296875 0.687500
vt 0.281250 0.687500
vt 0.218750 0.875000
vt 0.250000 0.750000
vt 0.250000 1.000000
vt 0.203125 0.937500
vt 0.187500 0.937500
vt 0.187500 0.812500
vt 0.156250 0.937500
vt 0.156250 0.812500
vt 0.390625 0.750000
vt 0.390625 0.812500
vt 0.125000 0.750000
vt 0.203125 0.750000
vt 0.203125 0.562500
vt -0.000000 0.562500
vt 0.109375 0.562500
vt 0.109375 1.000000
vt -0.000000 1.000000
vt 0.312500 1.000000
vt 0.328125 0.937500
vt 0.453125 1.000000
vt 0.343750 0.750000
vt 0.375000 0.625000
vt 0.234375 0.562500
vt 0.234375 0.687500
vt 0.218750 0.687500
vt 0.125000 0.937500
vt 0.140625 0.812500
vt 0.140625 0.937500
vt 0.296875 0.750000
vt 0.296875 1.000000
s 0
usemtl Material.001
f 111/113/113 110/114/113 116/115/113 117/116/113
f 110/117/114 111/118/114 113/119/114
f 137/120/115 110/117/115 112/121/115
f 110/117/116 113/119/116 112/121/116
f 117/116/117 116/115/117 118/114/117 115/113/117
f 138/120/118 109/115/118 118/114/118 142/122/118
f 109/115/119 114/116/119 115/113/119 118/114/119
f 114/123/120 109/124/120 119/125/120
f 144/126/121 134/127/121 120/128/121
f 119/129/122 109/130/122 120/131/122
f 109/130/123 143/132/123 144/133/123 120/131/123
f 116/115/124 141/120/124 142/122/124 118/114/124
f 112/121/125 113/119/125 140/134/125
f 113/119/126 139/135/126 140/134/126
f 111/118/127 139/135/127 113/119/127
f 109/136/128 138/137/128 143/138/128
f 110/114/129 137/122/129 141/120/129 116/115/129
f 110/139/130 137/140/130 122/141/130 121/142/130
f 125/143/131 131/144/131 130/118/131 124/145/131
f 111/113/132 117/116/132 131/144/132 125/143/132
f 124/146/133 127/144/133 125/115/133
f 137/120/134 126/147/134 124/115/134
f 124/115/135 126/147/135 127/146/135
f 137/120/136 112/121/136 126/147/136
f 112/121/137 140/134/137 126/147/137
f 117/116/138 115/113/138 129/143/138 131/144/138
f 131/144/139 129/143/139 132/145/139 130/118/139
f 138/120/140 142/122/140 132/145/140 123/118/140
f 123/118/141 132/145/141 129/143/141 128/144/141
f 128/148/142 133/149/142 123/150/142
f 114/123/143 119/125/143 133/149/143 128/148/143
f 133/151/144 134/152/144 123/153/144
f 123/153/145 134/152/145 144/133/145 143/132/145
f 130/118/146 132/145/146 142/122/146 141/120/146
f 126/147/147 140/134/147 127/146/147
f 127/146/148 140/134/148 139/135/148
f 125/144/149 127/146/149 139/135/149
f 125/144/150 139/135/150 111/118/150
f 123/136/151 143/138/151 138/137/151
f 124/145/152 130/118/152 141/120/152 137/122/152
f 124/140/153 135/141/153 136/142/153 137/139/153
f 128/144/154 129/143/154 115/113/154 114/116/154
f 120/128/155 134/127/155 133/154/155 119/155/155
o BezierCircle
v -26.683170 10.649023 -1.546623
v -26.439865 10.566792 -5.096894
v -25.731138 10.327261 -8.502262
v -24.588779 9.941174 -11.731503
v -23.044582 9.419273 -14.753392
v -21.130333 8.772306 -17.536705
v -18.877823 8.011015 -20.050215
v -16.318838 7.146144 -22.262699
v -13.485172 6.188437 -24.142933
v -10.408615 5.148640 -25.659693
v -7.120955 4.037494 -26.781750
v -3.653981 2.865746 -27.477882
v -0.039484 1.644138 -27.716871
v 3.575013 0.422530 -27.477888
v 7.041987 -0.749218 -26.781755
v 10.329647 -1.860364 -25.659697
v 13.406204 -2.900162 -24.142939
v 16.239868 -3.857868 -22.262705
v 18.798851 -4.722738 -20.050219
v 21.051361 -5.484029 -17.536705
v 22.965611 -6.130996 -14.753392
v 24.509808 -6.652895 -11.731503
v 25.652164 -7.038984 -8.502262
v 26.360889 -7.278514 -5.096893
v 26.604202 -7.360748 -1.546623
v 26.360897 -7.278516 2.003647
v 25.652170 -7.038985 5.409015
v 24.509811 -6.652897 8.638256
v 22.965614 -6.130998 11.660146
v 21.051365 -5.484031 14.443458
v 18.798855 -4.722739 16.956968
v 16.239870 -3.857868 19.169453
v 13.406204 -2.900162 21.049686
v 10.329647 -1.860364 22.566446
v 7.041987 -0.749218 23.688503
v 3.575013 0.422530 24.384636
v -0.039484 1.644138 24.623625
v -3.653981 2.865746 24.384642
v -7.120955 4.037494 23.688509
v -10.408615 5.148640 22.566450
v -13.485172 6.188437 21.049692
v -16.318836 7.146143 19.169458
v -18.877819 8.011014 16.956972
v -21.130329 8.772305 14.443460
v -23.044579 9.419271 11.660146
v -24.588776 9.941172 8.638256
v -25.731133 10.327259 5.409015
v -26.439857 10.566790 2.003647
l 145 146
l 146 147
l 147 148
l 148 149
l 149 150
l 150 151
l 151 152
l 152 153
l 153 154
l 154 155
l 155 156
l 156 157
l 157 158
l 158 159
l 159 160
l 160 161
l 161 162
l 162 163
l 163 164
l 164 165
l 165 166
l 166 167
l 167 168
l 168 169
l 169 170
l 170 171
l 171 172
l 172 173
l 173 174
l 174 175
l 175 176
l 176 177
l 177 178
l 178 179
l 179 180
l 180 181
l 181 182
l 182 183
l 183 184
l 184 185
l 185 186
l 186 187
l 187 188
l 188 189
l 189 190
l 190 191
l 191 192
l 192 145
