# Blender 3.6.4
# www.blender.org
mtllib ost38.mtl
o Cube
v -1.582148 0.574565 0.673500
v -1.448370 0.353143 -1.776912
v -2.193814 -0.623045 0.588706
v -2.191965 -1.185772 -1.573385
v -0.526921 -2.640871 1.174730
v -0.531166 -3.009873 -0.276401
v -1.986947 -2.495976 1.208138
v -1.985303 -2.907078 -0.257966
v -1.117995 -2.904927 0.612132
v -1.117608 -3.001741 0.266867
v -1.439047 -2.881518 0.605208
v -1.438660 -2.978332 0.259943
v -1.302780 -3.376695 -0.372634
v -1.287634 -3.649208 -0.140065
v -0.969987 -3.605954 -0.110069
v -0.985132 -3.333441 -0.342638
v -1.503767 -3.733159 -0.848562
v -1.471166 -3.980147 -0.563236
v -0.627167 -3.877727 -0.504579
v -0.654200 -3.484890 -0.793361
v -0.926582 -4.331329 0.235501
v -1.201018 -4.364348 0.214683
v -0.658219 -4.488053 0.034383
v -1.375482 -4.585722 -0.033350
v -1.364319 1.802761 -1.058119
v -1.327391 1.798982 0.669911
v -0.465397 3.190321 -0.105714
v 0.003508 3.080098 0.159566
v -2.167747 0.100871 -1.996604
v -1.764239 0.948963 -1.470498
v -1.723920 0.948639 0.935677
v -2.206758 2.131773 0.170052
v -2.289705 2.236254 -0.441781
v -3.003924 2.626790 0.210476
v -5.497493 0.215234 0.779338
v -2.800881 0.587229 -1.219819
v -5.666613 1.310867 1.685772
v -5.877466 0.915331 0.697448
v -5.008915 1.519709 1.177248
v -5.176888 1.557238 0.770758
v 1.669707 -0.045002 1.001351
v 1.515882 0.727190 -1.297816
v 2.185464 -1.268841 0.379043
v 2.131586 -0.746062 -1.796161
v 0.351025 -3.181697 0.064441
v 0.314319 -2.834472 -1.431944
v 1.793930 -3.220599 -0.043434
v 1.754671 -2.838281 -1.516784
v 0.890373 -3.200086 -0.722187
v 0.881128 -3.110051 -1.069159
v 1.212194 -3.203542 -0.731659
v 1.202949 -3.113507 -1.078631
v 1.222917 -4.007759 -1.150689
v 1.231570 -4.036804 -0.793390
v 0.909761 -4.044417 -0.786215
v 0.901108 -4.015372 -1.143514
v 1.503655 -4.798533 -1.385675
v 1.507141 -4.592029 -0.879579
v 0.655536 -4.570976 -0.857841
v 0.643059 -4.499357 -1.344195
v 0.955440 -4.313189 -0.029151
v 1.232269 -4.300043 -0.034786
v 0.736992 -4.611435 -0.048105
v 1.463652 -4.594244 -0.064306
v 1.358245 1.795803 -0.946460
v 1.395184 1.765280 0.805846
v 0.441364 3.199201 -0.172615
v 2.211848 0.554323 -1.604048
v 1.741933 0.947885 -1.383617
v 1.794567 0.908958 1.037453
v 2.309620 2.378278 -0.090217
v 2.243775 2.372628 -1.000144
v 3.065364 2.664681 -0.250334
v 5.139255 0.002151 -1.286986
v 2.638283 0.827883 -1.546282
v 5.641415 0.558682 -0.070914
v 5.620855 0.622391 -1.154062
v 4.962425 1.033912 -0.289782
v 5.069487 1.230699 -0.670138
v 0.000000 0.659971 -2.353794
v -0.000951 -1.004461 0.712151
v -0.006983 -0.829870 -2.240794
v 0.012676 0.063507 1.365419
v -0.000000 1.618504 -1.958405
v 0.011817 1.472761 1.329006
v -0.011586 3.265820 -0.517438
v -0.418659 3.198529 -0.157447
v 0.000000 0.061724 -2.536163
v 0.018815 0.500987 1.549725
v -0.000102 3.090287 0.160478
v 0.417943 3.232802 -0.155724
v 0.008111 3.113663 -0.512210
v -0.428968 4.320318 -0.640571
v -0.099630 4.464128 -0.405136
v 0.248367 4.379860 -0.641618
v -0.059707 3.968829 -0.897213
v -0.548127 5.823517 -0.937352
v -0.205416 5.798579 -0.665934
v 0.129656 5.877395 -0.936592
v -0.204897 5.801299 -1.321418
v -0.688784 7.587544 -0.552997
v -0.330529 7.367959 -0.344483
v -0.010964 7.640972 -0.552658
v -0.387214 8.086166 -0.706739
v -0.875473 8.926739 0.412132
v -0.435177 8.671233 0.590822
v -0.040379 8.993122 0.413067
v -0.477917 9.215183 0.145448
vn -0.2571 -0.2345 0.9375
vn -0.9946 -0.1004 0.0260
vn -0.8933 0.4380 -0.1007
vn 0.0187 0.2930 0.9559
vn 0.9656 -0.2598 0.0092
vn -0.0188 -0.7086 0.7054
vn -0.3560 -0.8999 0.2519
vn 0.2020 -0.9481 0.2454
vn -0.0749 -0.8699 0.4876
vn -0.0712 -0.9955 -0.0619
vn -0.1315 0.4238 0.8962
vn -0.9793 -0.1992 -0.0356
vn 0.0025 0.8623 -0.5063
vn 0.9761 0.2135 0.0400
vn 0.1837 -0.6469 -0.7401
vn -0.9467 0.1797 0.2675
vn -0.1770 0.8524 -0.4920
vn 0.8042 0.3974 0.4421
vn 0.0422 -0.7600 0.6486
vn 0.7682 0.3584 0.5305
vn -0.9152 0.1293 0.3817
vn 0.1437 -0.6491 -0.7470
vn -0.4275 0.6336 -0.6449
vn -0.9906 0.1335 -0.0299
vn -0.4415 0.3894 -0.8084
vn -0.1967 0.6383 -0.7443
vn -0.3013 0.9481 -0.1021
vn -0.2972 0.3051 0.9048
vn -0.9064 0.4221 0.0174
vn 0.4092 -0.5451 0.7317
vn 0.3171 -0.4833 0.8160
vn 0.0050 0.9389 0.3441
vn -0.6284 0.1617 0.7609
vn -0.3920 -0.9197 -0.0225
vn -0.4332 0.4809 -0.7623
vn -0.5449 0.8359 -0.0666
vn -0.5159 0.3452 -0.7840
vn -0.2375 0.5623 0.7921
vn 0.1531 -0.9729 -0.1734
vn 0.2534 0.3339 0.9079
vn -0.3785 0.8942 0.2390
vn -0.2388 0.6954 -0.6778
vn -0.2473 0.5692 0.7841
vn -0.4052 0.0529 0.9127
vn -0.1001 -0.6355 -0.7656
vn -0.3207 -0.0195 -0.9470
vn -0.2774 0.5922 -0.7565
vn 0.1143 -0.4639 0.8785
vn 0.9804 -0.1838 -0.0706
vn 0.9293 0.3640 0.0622
vn 0.0961 -0.2506 0.9633
vn -0.9872 -0.1593 -0.0092
vn 0.0263 -0.0741 0.9969
vn 0.2669 -0.9311 -0.2487
vn -0.3256 -0.9218 -0.2105
vn -0.0239 -0.9997 0.0016
vn -0.0337 -0.8238 -0.5659
vn -0.0256 0.9430 0.3318
vn 0.9995 0.0244 -0.0213
vn -0.0263 0.0805 -0.9964
vn -0.9995 -0.0242 0.0213
vn -0.1773 -0.9748 0.1353
vn 0.9118 0.3995 -0.0949
vn 0.0409 0.3238 -0.9452
vn -0.8974 0.4349 0.0744
vn 0.0241 -0.0810 0.9964
vn -0.8635 0.4768 0.1642
vn 0.8601 0.4987 0.1075
vn -0.0031 -0.9997 -0.0262
vn 0.4508 0.6102 -0.6515
vn 0.9886 0.1493 -0.0170
vn 0.5330 0.3287 -0.7797
vn -0.2671 0.3256 -0.9070
vn 0.3450 0.8965 0.2780
vn 0.2414 0.2833 0.9282
vn 0.9080 0.4187 -0.0125
vn -0.4461 -0.5613 0.6971
vn 0.2330 -0.2707 0.9340
vn -0.0284 0.2954 0.9549
vn 0.6557 0.0595 0.7526
vn 0.5406 -0.8408 -0.0287
vn 0.3495 0.6778 -0.6469
vn 0.6717 0.7215 0.1681
vn 0.2484 0.4097 -0.8777
vn 0.2728 0.6413 0.7171
vn -0.4059 -0.9021 -0.1466
vn 0.1499 0.1507 0.9771
vn 0.5711 0.6523 0.4983
vn 0.1581 0.8492 -0.5039
vn 0.1782 0.5795 0.7952
vn 0.2738 0.0924 0.9573
vn 0.1024 -0.2567 -0.9611
vn 0.3658 0.1935 -0.9103
vn 0.2655 0.6755 -0.6879
vn 0.1811 0.4972 0.8485
vn 0.5953 0.0412 0.8024
vn -0.5774 0.2946 0.7615
vn -0.6809 -0.3169 -0.6603
vn 0.7181 -0.2042 -0.6653
vn 0.5235 0.3750 0.7651
vn 0.7355 -0.0868 -0.6720
vn 0.5850 0.2006 0.7858
vn -0.6106 0.1058 0.7848
vn -0.7113 -0.2019 -0.6733
vn 0.6256 -0.1135 0.7719
vn -0.6013 -0.2111 0.7706
vn -0.6873 0.1219 -0.7161
vn 0.6608 0.2290 -0.7148
vn -0.7374 0.3448 -0.5808
vn 0.6749 0.4571 -0.5792
vn 0.6730 -0.4078 0.6171
vn -0.6014 -0.5091 0.6157
vt 0.203125 0.375000
vt 0.109375 0.375000
vt 0.109375 0.062500
vt 0.203125 0.062500
vt 0.218750 0.375000
vt 0.218750 0.187500
vt 0.265625 0.250000
vt 0.265625 0.375000
vt 0.250000 0.144531
vt 0.226074 0.289062
vt 0.250000 0.250000
vt 0.328125 0.375000
vt 0.281250 0.312500
vt 0.328125 0.312500
vt 0.359375 0.250000
vt 0.343750 0.250000
vt 0.343750 0.062500
vt 0.359375 0.062500
vt 0.312500 0.187500
vt 0.312500 0.125000
vt 0.328125 0.062500
vt 0.328125 0.250000
vt 0.296875 0.125000
vt 0.296875 0.187500
vt 0.281250 0.250000
vt 0.281250 0.062500
vt 0.437500 0.187500
vt 0.437500 0.250000
vt 0.406250 0.250000
vt 0.406250 0.187500
vt 0.375000 0.250000
vt 0.375000 0.062500
vt 0.484375 0.375000
vt 0.468750 0.375000
vt 0.468750 0.312500
vt 0.484375 0.312500
vt 0.453125 0.250000
vt 0.453125 0.375000
vt 0.437500 0.375000
vt 0.453125 0.187500
vt 0.484375 0.125000
vt 0.437500 0.062500
vt 0.453125 0.062500
vt 0.390625 0.312500
vt 0.390625 0.125000
vt 0.406250 0.062500
vt 0.406250 0.375000
vt 0.453125 0.312500
vt 0.500000 0.187500
vt 0.562500 0.187500
vt 0.500000 0.500000
vt 0.500000 0.375000
vt 0.625000 0.062500
vt 0.578125 0.062500
vt 0.578125 0.187500
vt 0.625000 0.187500
vt 0.500000 0.062500
vt 0.562500 0.062500
vt 0.562500 0.375000
vt 0.609375 0.875000
vt 0.671875 0.875000
vt 0.640625 1.000000
vt 0.765625 0.437500
vt 0.718750 0.437500
vt 0.718750 0.250000
vt 0.765625 0.250000
vt 0.687500 0.437500
vt 0.640625 0.250000
vt 0.640625 0.437500
vt 0.593750 1.000000
vt 0.578125 1.000000
vt 0.578125 0.625000
vt 0.000000 0.062500
vt 0.093750 0.500000
vt 0.265625 0.500000
vt 0.578125 0.312500
vt 0.625000 0.312500
vt 0.562500 0.500000
vt 0.625000 0.375000
vt 0.656250 0.562500
vt 0.609375 0.562500
vt 0.609375 0.750000
vt 0.656250 0.750000
vt 0.468750 1.000000
vt 0.468750 0.625000
vt 0.625000 0.500000
vt 0.218750 0.062500
vt 0.265625 0.062500
vt 0.000000 0.375000
vt 0.093750 0.375000
vt 0.093750 0.062500
vt 0.765625 0.875000
vt 0.765625 1.000000
vt 0.281250 0.375000
vt 0.671875 0.500000
vt 0.687500 0.500000
vt 0.687500 0.625000
vt 0.671875 0.625000
vt 0.703125 0.500000
vt 0.703125 0.625000
vt 0.687500 0.812500
vt 0.671875 0.812500
vt 0.703125 0.812500
vt 0.734375 0.500000
vt 0.750000 0.500000
vt 0.750000 0.687500
vt 0.734375 0.687500
vt 0.718750 0.500000
vt 0.718750 0.687500
vt 0.750000 0.812500
vt 0.734375 0.812500
vt 0.718750 0.812500
s 0
usemtl Material
f 83/1/1 1/2/1 3/3/1 81/4/1
f 3/5/2 4/6/2 8/7/2 7/8/2
f 4/9/3 3/10/3 1/11/3 2/11/3
f 81/11/4 3/10/4 7/7/4 5/7/4
f 82/12/5 81/13/5 5/13/5 6/14/5
f 9/15/6 11/16/6 14/17/6 15/18/6
f 12/19/7 11/20/7 7/21/7 8/22/7
f 9/23/8 10/24/8 6/25/8 5/26/8
f 11/20/9 9/23/9 5/26/9 7/21/9
f 10/24/10 12/19/10 8/22/10 6/25/10
f 15/27/11 14/28/11 22/29/11 21/30/11
f 11/31/12 12/15/12 13/18/12 14/32/12
f 12/15/13 10/16/13 16/17/13 13/18/13
f 10/31/14 9/15/14 15/18/14 16/32/14
f 20/33/15 19/34/15 18/35/15 17/36/15
f 14/28/16 13/37/16 17/38/16 18/39/16
f 13/37/17 16/40/17 20/41/17 17/36/17
f 16/40/18 15/27/18 19/42/18 20/43/18
f 21/30/19 22/29/19 24/44/19 23/45/19
f 19/42/20 15/27/20 21/30/20 23/46/20
f 14/28/21 18/39/21 24/47/21 22/29/21
f 18/35/22 19/34/22 23/38/22 24/48/22
f 84/49/23 25/50/23 27/51/23 86/52/23
f 2/53/24 1/54/24 26/55/24 25/56/24
f 80/57/25 2/58/25 25/50/25 84/49/25
f 27/51/26 25/50/26 33/59/26
f 1/60/27 2/61/27 29/62/27
f 85/63/28 26/64/28 31/65/28 89/66/28
f 26/64/29 25/67/29 30/68/29 31/65/29
f 84/69/30 25/67/30 30/68/30
f 25/70/31 33/71/31 36/72/31
f 27/73/32 28/73/32 90/73/32 87/73/32
f 67/74/33 86/75/33 92/75/33 91/74/33
f 25/56/34 26/55/34 32/76/34 33/77/34
f 34/78/35 33/59/35 40/79/35
f 39/80/36 40/81/36 38/82/36 37/83/36
f 40/84/37 33/71/37 36/72/37 35/85/37
f 26/50/38 28/52/38 32/59/38
f 33/79/39 32/86/39 39/78/39 40/59/39
f 32/59/40 34/78/40 39/79/40
f 34/78/41 40/86/41 39/79/41
f 34/78/42 27/51/42 33/59/42
f 26/50/43 85/49/43 28/52/43
f 1/58/44 83/57/44 85/49/44 26/50/44
f 4/6/45 82/87/45 6/88/45 8/7/45
f 2/89/46 80/90/46 82/91/46 4/73/46
f 2/61/47 80/92/47 88/93/47 29/62/47
f 83/1/48 81/4/48 43/3/48 41/2/48
f 43/5/49 47/87/49 48/88/49 44/8/49
f 44/11/50 42/11/50 41/11/50 43/11/50
f 81/5/51 45/87/51 47/88/51 43/8/51
f 82/12/52 46/94/52 45/13/52 81/14/52
f 49/16/53 55/17/53 54/18/53 51/15/53
f 52/23/54 48/26/54 47/21/54 51/20/54
f 49/19/55 45/22/55 46/25/55 50/24/55
f 51/20/56 47/21/56 45/22/56 49/19/56
f 50/24/57 46/25/57 48/26/57 52/23/57
f 55/28/58 61/29/58 62/30/58 54/27/58
f 51/15/59 54/18/59 53/32/59 52/31/59
f 52/16/60 53/17/60 56/18/60 50/15/60
f 50/15/61 56/18/61 55/32/61 49/31/61
f 60/36/62 57/33/62 58/34/62 59/35/62
f 54/27/63 58/42/63 57/43/63 53/40/63
f 53/40/64 57/41/64 60/36/64 56/37/64
f 56/37/65 60/38/65 59/39/65 55/28/65
f 61/29/66 63/44/66 64/45/66 62/30/66
f 59/39/67 63/47/67 61/29/67 55/28/67
f 54/27/68 62/30/68 64/46/68 58/42/68
f 58/34/69 64/38/69 63/48/69 59/35/69
f 84/49/70 86/52/70 67/51/70 65/50/70
f 42/53/71 65/77/71 66/76/71 41/54/71
f 80/57/72 84/49/72 65/50/72 42/58/72
f 67/51/73 72/59/73 65/50/73
f 41/60/74 68/62/74 42/61/74
f 85/63/75 89/66/75 70/65/75 66/64/75
f 66/64/76 70/65/76 69/68/76 65/67/76
f 84/69/77 69/68/77 65/67/77
f 65/70/78 75/72/78 72/71/78
f 34/78/79 32/59/79 28/52/79 27/51/79
f 86/75/80 27/74/80 87/74/80 92/75/80
f 65/51/81 72/78/81 71/59/81 66/52/81
f 73/78/82 79/79/82 72/59/82
f 78/80/83 76/83/83 77/82/83 79/81/83
f 79/84/84 74/85/84 75/72/84 72/71/84
f 66/50/85 71/59/85 28/52/85
f 72/78/86 79/86/86 78/79/86 71/59/86
f 71/59/87 78/79/87 73/78/87
f 73/78/88 78/79/88 79/86/88
f 73/78/89 72/59/89 67/51/89
f 66/50/90 28/52/90 85/49/90
f 41/58/91 66/50/91 85/49/91 83/57/91
f 44/8/92 48/5/92 46/87/92 82/88/92
f 42/89/93 44/73/93 82/91/93 80/90/93
f 42/61/94 68/62/94 88/93/94 80/92/94
f 28/52/95 71/59/95 73/78/95 67/51/95
f 28/95/96 67/73/96 91/73/96 90/95/96
f 87/95/97 90/96/97 94/97/97 93/98/97
f 92/96/98 87/99/98 93/100/98 96/97/98
f 91/95/99 92/96/99 96/97/99 95/98/99
f 90/96/100 91/99/100 95/100/100 94/97/100
f 95/98/101 96/97/101 100/101/101 99/102/101
f 94/97/102 95/100/102 99/103/102 98/101/102
f 93/98/103 94/97/103 98/101/103 97/102/103
f 96/97/104 93/100/104 97/103/104 100/101/104
f 98/104/105 99/105/105 103/106/105 102/107/105
f 97/108/106 98/104/106 102/107/106 101/109/106
f 100/104/107 97/105/107 101/106/107 104/107/107
f 99/108/108 100/104/108 104/107/108 103/109/108
f 104/107/109 101/106/109 105/110/109 108/111/109
f 103/109/110 104/107/110 108/111/110 107/112/110
f 102/107/111 103/106/111 107/110/111 106/111/111
f 101/109/112 102/107/112 106/111/112 105/112/112
o Icosphere
v 0.778594 9.257133 1.429626
v 0.752259 9.783633 1.382264
v 0.192431 9.747177 0.402230
v 0.140014 11.247931 1.831849
v 0.556202 10.747029 0.693553
v 0.219936 9.237334 0.307119
v 0.272120 9.309380 0.239430
v 0.857059 9.727766 1.415306
v 0.253829 9.700357 0.308239
v 0.873676 9.338483 1.452307
v -0.037612 8.995141 0.192166
v 1.098587 8.532713 1.408954
v 0.845670 11.102942 1.388879
v -0.415015 11.251163 2.704072
v -1.746916 9.089684 1.450418
v -1.790060 9.616979 1.406495
v -1.254600 9.645951 0.410736
v -1.367588 11.148240 1.845776
v -1.752552 10.585536 0.706946
v -1.211187 9.151692 0.309584
v -1.274742 9.215173 0.246386
v -1.885958 9.548014 1.441407
v -1.310316 9.592983 0.318482
v -1.851319 9.158781 1.475956
v -0.913101 8.955632 0.160690
v -1.968962 8.328903 1.426944
v -2.052016 10.913724 1.419979
v -0.789922 11.223249 2.709503
v -0.521247 9.949718 2.625196
v -0.486656 9.413984 2.701448
v -0.625721 10.971957 0.208422
v -0.650996 11.467129 1.110666
v -0.516649 9.896682 2.744603
v -0.491138 9.501149 2.798211
v -0.463336 9.201282 3.645185
v -0.406322 8.424000 4.406314
vn 0.4334 0.8605 -0.2679
vn 0.8582 -0.1713 -0.4839
vn 0.7015 0.0757 0.7086
vn 0.9248 0.3271 0.1942
vn 0.8854 0.0584 -0.4612
vn 0.4854 -0.6641 0.5687
vn 0.6412 -0.7047 -0.3038
vn 0.7200 -0.6006 -0.3477
vn 0.0663 -0.9978 -0.0029
vn 0.7477 0.3464 -0.5665
vn 0.7995 0.4149 0.4344
vn 0.7012 0.1188 0.7030
vn 0.4422 0.8693 -0.2208
vn 0.3403 0.8283 -0.4451
vn 0.3965 0.1209 -0.9100
vn 0.3170 0.9269 0.2011
vn 0.4133 0.8547 0.3140
vn -0.7036 0.0766 -0.7064
vn -0.5445 0.7982 -0.2577
vn -0.0638 0.8788 -0.4728
vn -0.8368 -0.2989 -0.4587
vn -0.6903 -0.0171 0.7233
vn -0.9540 0.1989 0.2242
vn -0.0273 0.5313 0.8467
vn -0.0586 0.9354 0.3486
vn -0.0170 0.1791 -0.9837
vn -0.8954 -0.0604 -0.4412
vn -0.3843 -0.7200 0.5778
vn -0.5497 -0.7808 -0.2970
vn -0.6287 -0.7026 -0.3334
vn -0.0171 0.5145 -0.8573
vn -0.8009 0.2505 -0.5438
vn -0.8394 0.3056 0.4495
vn -0.6965 0.0272 0.7170
vn -0.5650 0.7994 -0.2040
vn -0.4587 0.7735 -0.4374
vn -0.4215 0.0619 -0.9047
vn 0.0049 -0.1531 -0.9882
vn -0.4326 0.8772 0.2084
vn -0.5144 0.7942 0.3235
vn 0.6725 0.1663 -0.7212
vn 0.0395 -0.6924 -0.7204
vn 0.0578 -0.9136 -0.4026
vt 0.312500 0.750000
vt 0.312500 0.437500
vt 0.328125 0.500000
vt 0.328125 0.750000
vt 0.437500 0.750000
vt 0.437500 0.937500
vt 0.421875 0.812500
vt 0.437500 0.500000
vt 0.421875 0.625000
vt 0.453125 0.437500
vt 0.281250 0.562500
vt 0.296875 0.687500
vt 0.281250 0.687500
vt 0.218750 0.875000
vt 0.250000 0.750000
vt 0.250000 1.000000
vt 0.203125 0.937500
vt 0.187500 0.937500
vt 0.187500 0.812500
vt 0.156250 0.937500
vt 0.156250 0.812500
vt 0.390625 0.750000
vt 0.390625 0.812500
vt 0.125000 0.750000
vt 0.203125 0.750000
vt 0.203125 0.562500
vt -0.000000 0.562500
vt 0.109375 0.562500
vt 0.109375 1.000000
vt -0.000000 1.000000
vt 0.312500 1.000000
vt 0.328125 0.937500
vt 0.453125 1.000000
vt 0.343750 0.750000
vt 0.375000 0.625000
vt 0.234375 0.562500
vt 0.234375 0.687500
vt 0.218750 0.687500
vt 0.125000 0.937500
vt 0.140625 0.812500
vt 0.140625 0.937500
vt 0.296875 0.750000
vt 0.296875 1.000000
s 0
usemtl Material.001
f 111/113/113 110/114/113 116/115/113 117/116/113
f 110/117/114 111/118/114 113/119/114
f 137/120/115 110/117/115 112/121/115
f 110/117/116 113/119/116 112/121/116
f 117/116/117 116/115/117 118/114/117 115/113/117
f 138/120/118 109/115/118 118/114/118 142/122/118
f 109/115/119 114/116/119 115/113/119 118/114/119
f 114/123/120 109/124/120 119/125/120
f 144/126/121 134/127/121 120/128/121
f 119/129/122 109/130/122 120/131/122
f 109/130/123 143/132/123 144/133/123 120/131/123
f 116/115/124 141/120/124 142/122/124 118/114/124
f 112/121/125 113/119/125 140/134/125
f 113/119/126 139/135/126 140/134/126
f 111/118/127 139/135/127 113/119/127
f 109/136/128 138/137/128 143/138/128
f 110/114/129 137/122/129 141/120/129 116/115/129
f 110/139/130 137/140/130 122/141/130 121/142/130
f 125/143/131 131/144/131 130/118/131 124/145/131
f 111/113/132 117/116/132 131/144/132 125/143/132
f 124/146/133 127/144/133 125/115/133
f 137/120/134 126/147/134 124/115/134
f 124/115/135 126/147/135 127/146/135
f 137/120/136 112/121/136 126/147/136
f 112/121/137 140/134/137 126/147/137
f 117/116/138 115/113/138 129/143/138 131/144/138
f 131/144/139 129/143/139 132/145/139 130/118/139
f 138/120/140 142/122/140 132/145/140 123/118/140
f 123/118/141 132/145/141 129/143/141 128/144/141
f 128/148/142 133/149/142 123/150/142
f 114/123/143 119/125/143 133/149/143 128/148/143
f 133/151/144 134/152/144 123/153/144
f 123/153/145 134/152/145 144/133/145 143/132/145
f 130/118/146 132/145/146 142/122/146 141/120/146
f 126/147/147 140/134/147 127/146/147
f 127/146/148 140/134/148 139/135/148
f 125/144/149 127/146/149 139/135/149
f 125/144/150 139/135/150 111/118/150
f 123/136/151 143/138/151 138/137/151
f 124/145/152 130/118/152 141/120/152 137/122/152
f 124/140/153 135/141/153 136/142/153 137/139/153
f 128/144/154 129/143/154 115/113/154 114/116/154
f 120/128/155 134/127/155 133/154/155 119/155/155
o BezierCircle
v -26.683170 10.649023 -1.546623
v -26.439865 10.566792 -5.096894
v -25.731138 10.327261 -8.502262
v -24.588779 9.941174 -11.731503
v -23.044582 9.419273 -14.753392
v -21.130333 8.772306 -17.536705
v -18.877823 8.011015 -20.050215
v -16.318838 7.146144 -22.262699
v -13.485172 6.188437 -24.142933
v -10.408615 5.148640 -25.659693
v -7.120955 4.037494 -26.781750
v -3.653981 2.865746 -27.477882
v -0.039484 1.644138 -27.716871
v 3.575013 0.422530 -27.477888
v 7.041987 -0.749218 -26.781755
v 10.329647 -1.860364 -25.659697
v 13.406204 -2.900162 -24.142939
v 16.239868 -3.857868 -22.262705
v 18.798851 -4.722738 -20.050219
v 21.051361 -5.484029 -17.536705
v 22.965611 -6.130996 -14.753392
v 24.509808 -6.652895 -11.731503
v 25.652164 -7.038984 -8.502262
v 26.360889 -7.278514 -5.096893
v 26.604202 -7.360748 -1.546623
v 26.360897 -7.278516 2.003647
v 25.652170 -7.038985 5.409015
v 24.509811 -6.652897 8.638256
v 22.965614 -6.130998 11.660146
v 21.051365 -5.484031 14.443458
v 18.798855 -4.722739 16.956968
v 16.239870 -3.857868 19.169453
v 13.406204 -2.900162 21.049686
v 10.329647 -1.860364 22.566446
v 7.041987 -0.749218 23.688503
v 3.575013 0.422530 24.384636
v -0.039484 1.644138 24.623625
v -3.653981 2.865746 24.384642
v -7.120955 4.037494 23.688509
v -10.408615 5.148640 22.566450
v -13.485172 6.188437 21.049692
v -16.318836 7.146143 19.169458
v -18.877819 8.011014 16.956972
v -21.130329 8.772305 14.443460
v -23.044579 9.419271 11.660146
v -24.588776 9.941172 8.638256
v -25.731133 10.327259 5.409015
v -26.439857 10.566790 2.003647
l 145 146
l 146 147
l 147 148
l 148 149
l 149 150
l 150 151
l 151 152
l 152 153
l 153 154
l 154 155
l 155 156
l 156 157
l 157 158
l 158 159
l 159 160
l 160 161
l 161 162
l 162 163
l 163 164
l 164 165
l 165 166
l 166 167
l 167 168
l 168 169
l 169 170
l 170 171
l 171 172
l 172 173
l 173 174
l 174 175
l 175 176
l 176 177
l 177 178
l 178 179
l 179 180
l 180 181
l 181 182
l 182 183
l 183 184
l 184 185
l 185 186
l 186 187
l 187 188
l 188 189
l 189 190
l 190 191
l 191 192
l 192 145
