# Blender 3.6.4
# www.blender.org
mtllib ost46.mtl
o Cube
v -1.650334 0.100091 0.962418
v -1.529742 0.652011 -1.423507
v -2.167873 -1.156841 0.471677
v -2.149817 -0.883791 -1.751891
v -0.333492 -3.097825 0.337177
v -0.320402 -2.916495 -1.183127
v -1.774789 -3.134256 0.288128
v -1.761681 -2.934162 -1.221263
v -0.882843 -3.195137 -0.403441
v -0.879756 -3.148015 -0.758899
v -1.204763 -3.200228 -0.406911
v -1.201676 -3.153106 -0.762370
v -1.219595 -4.049511 -0.724633
v -1.222138 -4.034825 -0.366361
v -0.900229 -4.041003 -0.363823
v -0.897685 -4.055689 -0.722095
v -1.503107 -5.073046 -0.871871
v -1.498057 -4.630636 -0.381724
v -0.645327 -4.571966 -0.375130
v -0.641324 -4.565248 -0.866872
v -0.932203 -4.215611 0.421009
v -1.209134 -4.203684 0.418554
v -0.713020 -4.513603 0.434780
v -1.439908 -4.499653 0.429048
v -1.371806 1.809568 -0.994027
v -1.333623 1.744739 0.767021
v -0.482483 3.185023 -0.105570
v 0.002794 3.083541 0.158347
v -2.235096 0.444329 -1.703145
v -1.760979 0.960599 -1.428518
v -1.714734 0.883322 0.996286
v -2.140757 2.005893 0.194328
v -2.240304 2.100820 -0.415258
v -2.962795 2.442899 0.251021
v -5.222570 -0.155146 0.956940
v -2.672837 0.451090 -1.184031
v -5.441508 0.936097 1.857988
v -5.661834 0.510435 0.884356
v -4.825781 1.190397 1.318554
v -5.013709 1.208236 0.919527
v 1.696626 -0.453004 1.027799
v 1.501373 0.844037 -0.920886
v 2.206588 -1.511995 0.094349
v 2.106174 -0.365189 -1.804088
v 0.367694 -3.234165 -0.713091
v 0.300113 -2.467376 -2.047839
v 1.811247 -3.251571 -0.944590
v 1.738036 -2.414377 -2.214321
v 0.892567 -3.021180 -1.561427
v 0.875326 -2.824022 -1.860446
v 1.214098 -3.018478 -1.578185
v 1.196857 -2.821321 -1.877204
v 1.216861 -3.644184 -2.234655
v 1.233629 -3.786964 -1.906153
v 0.912079 -3.799400 -1.895144
v 0.895311 -3.656620 -2.223646
v 1.499979 -4.474259 -2.738993
v 1.508113 -4.290435 -2.172207
v 0.657285 -4.276904 -2.127725
v 0.633851 -4.055984 -2.565283
v 0.975332 -4.297801 -1.266602
v 1.251939 -4.281034 -1.273433
v 0.757069 -4.575916 -1.376340
v 1.483145 -4.547836 -1.401198
v 1.351233 1.769158 -0.862332
v 1.384047 1.684456 0.861213
v 0.457034 3.196401 -0.168024
v 2.189296 0.780688 -1.253835
v 1.726957 0.945571 -1.322023
v 1.776486 0.835052 1.061613
v 2.270667 2.270120 -0.031274
v 2.241308 2.278198 -0.939428
v 3.035382 2.482924 -0.153711
v 4.903956 -0.310279 -1.239224
v 2.577604 0.769757 -1.523279
v 5.373643 0.114550 0.040982
v 5.433702 0.247388 -1.034397
v 4.761263 0.669652 -0.186236
v 4.912959 0.877726 -0.544776
v 0.000000 0.659971 -2.353794
v 0.004888 -1.081670 0.671447
v -0.006876 -0.698060 -2.239325
v 0.009752 -0.100071 1.395670
v -0.000000 1.618504 -1.958405
v 0.005663 1.414920 1.376694
v -0.011994 3.270328 -0.518999
v -0.415344 3.212639 -0.174756
v 0.000000 0.061724 -2.536163
v 0.015457 0.439868 1.569819
v -0.010029 3.099440 0.157734
v 0.391951 3.140017 -0.038958
v 0.063396 3.039526 -0.472331
v 0.090202 4.232206 -0.919063
v 0.353080 4.293743 -0.586835
v 0.726693 4.122679 -0.706168
v 0.388296 3.757025 -0.986812
v 0.445308 5.703442 -1.138797
v 0.665704 5.597495 -0.775559
v 1.078266 5.583107 -0.921594
v 0.876656 5.587050 -1.396088
v 0.562815 7.397786 -0.542532
v 0.774340 7.078424 -0.271680
v 1.195885 7.276972 -0.325918
v 0.984735 7.815211 -0.476603
v 0.293325 8.536712 0.626786
v 0.590604 8.150078 0.857464
v 1.073190 8.388449 0.894401
v 0.803517 8.758780 0.574242
vn -0.1602 -0.4417 0.8827
vn -0.9807 -0.1930 -0.0327
vn -0.9293 0.3674 0.0378
vn -0.0641 -0.1292 0.9895
vn 0.9877 -0.1554 -0.0195
vn -0.0092 0.0478 0.9988
vn -0.2677 -0.9548 -0.1289
vn 0.3119 -0.9435 -0.1122
vn 0.0200 -0.9934 0.1133
vn 0.0222 -0.8906 -0.4543
vn 0.0277 0.9764 0.2140
vn -0.9998 0.0201 -0.0070
vn 0.0093 -0.0415 -0.9991
vn 0.9998 -0.0198 0.0070
vn 0.2867 -0.8758 0.3883
vn -0.9242 0.3373 -0.1790
vn -0.0734 0.1879 -0.9795
vn 0.8977 0.4407 0.0028
vn -0.0071 0.0410 0.9991
vn 0.8644 0.4946 0.0901
vn -0.8685 0.4932 0.0504
vn 0.0272 -0.9929 0.1162
vn -0.4450 0.6234 -0.6429
vn -0.9860 0.1666 0.0052
vn -0.4973 0.3471 -0.7951
vn -0.2668 0.6387 -0.7217
vn -0.3473 0.9173 0.1947
vn -0.2865 0.2694 0.9194
vn -0.9128 0.4072 0.0322
vn 0.4234 -0.5590 0.7130
vn 0.3746 -0.4705 0.7989
vn -0.1018 0.8778 0.4680
vn -0.6558 0.3767 0.6542
vn -0.3129 -0.9487 -0.0458
vn -0.4998 0.4200 -0.7575
vn -0.6139 0.7877 -0.0514
vn -0.5794 0.3066 -0.7552
vn -0.3042 0.6289 0.7155
vn 0.2233 -0.9596 -0.1709
vn 0.2597 0.3729 0.8908
vn -0.4399 0.8638 0.2458
vn -0.2993 0.6772 -0.6722
vn -0.2173 0.5754 0.7885
vn -0.3119 0.0950 0.9453
vn -0.0971 -0.3483 -0.9323
vn -0.3629 0.1467 -0.9202
vn -0.2702 0.6458 -0.7141
vn 0.0654 -0.6194 0.7824
vn 0.9794 -0.1427 -0.1430
vn 0.9290 0.3405 0.1449
vn 0.1223 -0.5253 0.8421
vn -0.9867 -0.1609 -0.0251
vn 0.0489 -0.3918 0.9187
vn 0.2630 -0.7984 -0.5416
vn -0.3789 -0.8055 -0.4556
vn -0.0482 -0.9571 -0.2857
vn -0.0676 -0.5669 -0.8210
vn -0.0199 0.7851 0.6191
vn 0.9987 0.0390 -0.0330
vn -0.0489 0.3977 -0.9162
vn -0.9987 -0.0388 0.0331
vn -0.2472 -0.9686 -0.0280
vn 0.9124 0.4069 -0.0440
vn 0.0658 0.5664 -0.8215
vn -0.8969 0.3793 0.2272
vn 0.0468 -0.3982 0.9161
vn -0.8605 0.3904 0.3273
vn 0.8633 0.4433 0.2414
vn -0.0064 -0.9393 -0.3430
vn 0.4872 0.5897 -0.6441
vn 0.9888 0.1492 -0.0053
vn 0.6306 0.2290 -0.7416
vn -0.2480 0.2937 -0.9232
vn 0.3175 0.8037 0.5032
vn 0.2501 0.2565 0.9336
vn 0.9089 0.4171 0.0016
vn -0.4711 -0.5839 0.6611
vn 0.2513 -0.3001 0.9202
vn -0.0326 0.2891 0.9567
vn 0.5855 0.3286 0.7411
vn 0.5073 -0.8608 -0.0423
vn 0.4361 0.6593 -0.6125
vn 0.7262 0.6369 0.2587
vn 0.3304 0.4368 -0.8367
vn 0.2897 0.6425 0.7094
vn -0.4865 -0.8522 -0.1924
vn 0.1287 0.1048 0.9861
vn 0.5971 0.5579 0.5764
vn 0.2387 0.8533 -0.4636
vn 0.1835 0.5799 0.7938
vn 0.2780 0.0728 0.9578
vn 0.0693 0.0559 -0.9960
vn 0.3912 0.3464 -0.8526
vn 0.2643 0.7485 -0.6082
vn 0.1843 0.4869 0.8538
vn -0.0201 -0.9500 -0.3116
vn -0.5372 0.6056 0.5871
vn -0.5862 -0.2726 -0.7629
vn 0.7606 -0.5427 -0.3562
vn 0.4027 0.4037 0.8215
vn 0.8381 -0.3004 -0.4554
vn 0.3315 0.0580 0.9417
vn -0.7823 0.2708 0.5609
vn -0.4444 -0.0568 -0.8940
vn 0.2889 -0.3316 0.8981
vn -0.8551 -0.1143 0.5058
vn -0.3226 0.3573 -0.8765
vn 0.8754 0.1295 -0.4657
vn -0.4156 0.6198 -0.6657
vn 0.9049 0.3687 -0.2126
vn 0.3355 -0.6679 0.6644
vn -0.8612 -0.4404 0.2537
vt 0.203125 0.375000
vt 0.109375 0.375000
vt 0.109375 0.062500
vt 0.203125 0.062500
vt 0.218750 0.375000
vt 0.218750 0.187500
vt 0.265625 0.250000
vt 0.265625 0.375000
vt 0.250000 0.144531
vt 0.226074 0.289062
vt 0.250000 0.250000
vt 0.328125 0.375000
vt 0.281250 0.312500
vt 0.328125 0.312500
vt 0.359375 0.250000
vt 0.343750 0.250000
vt 0.343750 0.062500
vt 0.359375 0.062500
vt 0.312500 0.187500
vt 0.312500 0.125000
vt 0.328125 0.062500
vt 0.328125 0.250000
vt 0.296875 0.125000
vt 0.296875 0.187500
vt 0.281250 0.250000
vt 0.281250 0.062500
vt 0.437500 0.187500
vt 0.437500 0.250000
vt 0.406250 0.250000
vt 0.406250 0.187500
vt 0.375000 0.250000
vt 0.375000 0.062500
vt 0.484375 0.375000
vt 0.468750 0.375000
vt 0.468750 0.312500
vt 0.484375 0.312500
vt 0.453125 0.250000
vt 0.453125 0.375000
vt 0.437500 0.375000
vt 0.453125 0.187500
vt 0.484375 0.125000
vt 0.437500 0.062500
vt 0.453125 0.062500
vt 0.390625 0.312500
vt 0.390625 0.125000
vt 0.406250 0.062500
vt 0.406250 0.375000
vt 0.453125 0.312500
vt 0.500000 0.187500
vt 0.562500 0.187500
vt 0.500000 0.500000
vt 0.500000 0.375000
vt 0.625000 0.062500
vt 0.578125 0.062500
vt 0.578125 0.187500
vt 0.625000 0.187500
vt 0.500000 0.062500
vt 0.562500 0.062500
vt 0.562500 0.375000
vt 0.609375 0.875000
vt 0.671875 0.875000
vt 0.640625 1.000000
vt 0.765625 0.437500
vt 0.718750 0.437500
vt 0.718750 0.250000
vt 0.765625 0.250000
vt 0.687500 0.437500
vt 0.640625 0.250000
vt 0.640625 0.437500
vt 0.593750 1.000000
vt 0.578125 1.000000
vt 0.578125 0.625000
vt 0.000000 0.062500
vt 0.093750 0.500000
vt 0.265625 0.500000
vt 0.578125 0.312500
vt 0.625000 0.312500
vt 0.562500 0.500000
vt 0.625000 0.375000
vt 0.656250 0.562500
vt 0.609375 0.562500
vt 0.609375 0.750000
vt 0.656250 0.750000
vt 0.468750 1.000000
vt 0.468750 0.625000
vt 0.625000 0.500000
vt 0.218750 0.062500
vt 0.265625 0.062500
vt 0.000000 0.375000
vt 0.093750 0.375000
vt 0.093750 0.062500
vt 0.765625 0.875000
vt 0.765625 1.000000
vt 0.281250 0.375000
vt 0.671875 0.500000
vt 0.687500 0.500000
vt 0.687500 0.625000
vt 0.671875 0.625000
vt 0.703125 0.500000
vt 0.703125 0.625000
vt 0.687500 0.812500
vt 0.671875 0.812500
vt 0.703125 0.812500
vt 0.734375 0.500000
vt 0.750000 0.500000
vt 0.750000 0.687500
vt 0.734375 0.687500
vt 0.718750 0.500000
vt 0.718750 0.687500
vt 0.750000 0.812500
vt 0.734375 0.812500
vt 0.718750 0.812500
s 0
usemtl Material
f 83/1/1 1/2/1 3/3/1 81/4/1
f 3/5/2 4/6/2 8/7/2 7/8/2
f 4/9/3 3/10/3 1/11/3 2/11/3
f 81/11/4 3/10/4 7/7/4 5/7/4
f 82/12/5 81/13/5 5/13/5 6/14/5
f 9/15/6 11/16/6 14/17/6 15/18/6
f 12/19/7 11/20/7 7/21/7 8/22/7
f 9/23/8 10/24/8 6/25/8 5/26/8
f 11/20/9 9/23/9 5/26/9 7/21/9
f 10/24/10 12/19/10 8/22/10 6/25/10
f 15/27/11 14/28/11 22/29/11 21/30/11
f 11/31/12 12/15/12 13/18/12 14/32/12
f 12/15/13 10/16/13 16/17/13 13/18/13
f 10/31/14 9/15/14 15/18/14 16/32/14
f 20/33/15 19/34/15 18/35/15 17/36/15
f 14/28/16 13/37/16 17/38/16 18/39/16
f 13/37/17 16/40/17 20/41/17 17/36/17
f 16/40/18 15/27/18 19/42/18 20/43/18
f 21/30/19 22/29/19 24/44/19 23/45/19
f 19/42/20 15/27/20 21/30/20 23/46/20
f 14/28/21 18/39/21 24/47/21 22/29/21
f 18/35/22 19/34/22 23/38/22 24/48/22
f 84/49/23 25/50/23 27/51/23 86/52/23
f 2/53/24 1/54/24 26/55/24 25/56/24
f 80/57/25 2/58/25 25/50/25 84/49/25
f 27/51/26 25/50/26 33/59/26
f 1/60/27 2/61/27 29/62/27
f 85/63/28 26/64/28 31/65/28 89/66/28
f 26/64/29 25/67/29 30/68/29 31/65/29
f 84/69/30 25/67/30 30/68/30
f 25/70/31 33/71/31 36/72/31
f 27/73/32 28/73/32 90/73/32 87/73/32
f 67/74/33 86/75/33 92/75/33 91/74/33
f 25/56/34 26/55/34 32/76/34 33/77/34
f 34/78/35 33/59/35 40/79/35
f 39/80/36 40/81/36 38/82/36 37/83/36
f 40/84/37 33/71/37 36/72/37 35/85/37
f 26/50/38 28/52/38 32/59/38
f 33/79/39 32/86/39 39/78/39 40/59/39
f 32/59/40 34/78/40 39/79/40
f 34/78/41 40/86/41 39/79/41
f 34/78/42 27/51/42 33/59/42
f 26/50/43 85/49/43 28/52/43
f 1/58/44 83/57/44 85/49/44 26/50/44
f 4/6/45 82/87/45 6/88/45 8/7/45
f 2/89/46 80/90/46 82/91/46 4/73/46
f 2/61/47 80/92/47 88/93/47 29/62/47
f 83/1/48 81/4/48 43/3/48 41/2/48
f 43/5/49 47/87/49 48/88/49 44/8/49
f 44/11/50 42/11/50 41/11/50 43/11/50
f 81/5/51 45/87/51 47/88/51 43/8/51
f 82/12/52 46/94/52 45/13/52 81/14/52
f 49/16/53 55/17/53 54/18/53 51/15/53
f 52/23/54 48/26/54 47/21/54 51/20/54
f 49/19/55 45/22/55 46/25/55 50/24/55
f 51/20/56 47/21/56 45/22/56 49/19/56
f 50/24/57 46/25/57 48/26/57 52/23/57
f 55/28/58 61/29/58 62/30/58 54/27/58
f 51/15/59 54/18/59 53/32/59 52/31/59
f 52/16/60 53/17/60 56/18/60 50/15/60
f 50/15/61 56/18/61 55/32/61 49/31/61
f 60/36/62 57/33/62 58/34/62 59/35/62
f 54/27/63 58/42/63 57/43/63 53/40/63
f 53/40/64 57/41/64 60/36/64 56/37/64
f 56/37/65 60/38/65 59/39/65 55/28/65
f 61/29/66 63/44/66 64/45/66 62/30/66
f 59/39/67 63/47/67 61/29/67 55/28/67
f 54/27/68 62/30/68 64/46/68 58/42/68
f 58/34/69 64/38/69 63/48/69 59/35/69
f 84/49/70 86/52/70 67/51/70 65/50/70
f 42/53/71 65/77/71 66/76/71 41/54/71
f 80/57/72 84/49/72 65/50/72 42/58/72
f 67/51/73 72/59/73 65/50/73
f 41/60/74 68/62/74 42/61/74
f 85/63/75 89/66/75 70/65/75 66/64/75
f 66/64/76 70/65/76 69/68/76 65/67/76
f 84/69/77 69/68/77 65/67/77
f 65/70/78 75/72/78 72/71/78
f 34/78/79 32/59/79 28/52/79 27/51/79
f 86/75/80 27/74/80 87/74/80 92/75/80
f 65/51/81 72/78/81 71/59/81 66/52/81
f 73/78/82 79/79/82 72/59/82
f 78/80/83 76/83/83 77/82/83 79/81/83
f 79/84/84 74/85/84 75/72/84 72/71/84
f 66/50/85 71/59/85 28/52/85
f 72/78/86 79/86/86 78/79/86 71/59/86
f 71/59/87 78/79/87 73/78/87
f 73/78/88 78/79/88 79/86/88
f 73/78/89 72/59/89 67/51/89
f 66/50/90 28/52/90 85/49/90
f 41/58/91 66/50/91 85/49/91 83/57/91
f 44/8/92 48/5/92 46/87/92 82/88/92
f 42/89/93 44/73/93 82/91/93 80/90/93
f 42/61/94 68/62/94 88/93/94 80/92/94
f 28/52/95 71/59/95 73/78/95 67/51/95
f 28/95/96 67/73/96 91/73/96 90/95/96
f 87/95/97 90/96/97 94/97/97 93/98/97
f 92/96/98 87/99/98 93/100/98 96/97/98
f 91/95/99 92/96/99 96/97/99 95/98/99
f 90/96/100 91/99/100 95/100/100 94/97/100
f 95/98/101 96/97/101 100/101/101 99/102/101
f 94/97/102 95/100/102 99/103/102 98/101/102
f 93/98/103 94/97/103 98/101/103 97/102/103
f 96/97/104 93/100/104 97/103/104 100/101/104
f 98/104/105 99/105/105 103/106/105 102/107/105
f 97/108/106 98/104/106 102/107/106 101/109/106
f 100/104/107 97/105/107 101/106/107 104/107/107
f 99/108/108 100/104/108 104/107/108 103/109/108
f 104/107/109 101/106/109 105/110/109 108/111/109
f 103/109/110 104/107/110 108/111/110 107/112/110
f 102/107/111 103/106/111 107/110/111 106/111/111
f 101/109/112 102/107/112 106/111/112 105/112/112
o Icosphere
v 1.798570 8.351852 1.866624
v 1.897778 8.861716 1.830335
v 1.368786 9.004845 0.981841
v 1.592208 10.385665 2.302660
v 1.833568 9.811253 1.373157
v 1.322190 8.530056 0.833323
v 1.387585 8.585836 0.777148
v 1.987100 8.781322 1.861941
v 1.432340 8.953155 0.896248
v 1.910084 8.404688 1.891243
v 1.126279 8.417269 0.693814
v 1.937928 7.579610 1.848376
v 2.309404 10.100141 1.857564
v 1.157109 10.569214 3.136046
v -0.670908 8.848739 1.812969
v -0.588269 9.363800 1.783424
v -0.019433 9.280904 0.779113
v 0.122467 10.681961 2.245970
v -0.386793 10.252285 1.080900
v -0.042857 8.820891 0.645465
v -0.092347 8.898021 0.592055
v -0.696185 9.323215 1.817167
v -0.067748 9.253868 0.681912
v -0.755289 8.941928 1.841506
v 0.326046 8.612196 0.440101
v -1.052341 8.182734 1.731174
v -0.527523 10.673147 1.825120
v 0.786535 10.639291 3.138296
v 0.739875 9.354445 3.050916
v 0.633042 8.827667 3.122426
v 0.806242 10.360192 0.816434
v 0.759639 10.758599 1.660897
v 0.730444 9.300977 3.169846
v 0.651542 8.912089 3.219953
v 0.599981 8.607761 4.064219
v 0.451642 7.835812 4.818424
vn 0.5924 0.7752 -0.2193
vn 0.8144 -0.2061 -0.5425
vn 0.7080 -0.0757 0.7022
vn 0.9758 0.1449 0.1638
vn 0.8785 -0.0871 -0.4698
vn 0.2874 -0.7741 0.5640
vn 0.4455 -0.8260 -0.3454
vn 0.6569 -0.6316 -0.4118
vn -0.1972 -0.9803 -0.0141
vn 0.8594 0.1665 -0.4834
vn 0.8771 0.2025 0.4356
vn 0.7077 -0.0712 0.7029
vn 0.5792 0.7521 -0.3144
vn 0.5761 0.7510 -0.3225
vn 0.5191 0.1120 -0.8474
vn 0.5532 0.8067 0.2078
vn 0.6237 0.7185 0.3079
vn -0.6591 0.2551 -0.7075
vn -0.3038 0.9231 -0.2357
vn 0.2329 0.9001 -0.3682
vn -0.8623 -0.1790 -0.4737
vn -0.6852 0.1172 0.7189
vn -0.8869 0.3930 0.2427
vn 0.0772 0.5429 0.8362
vn 0.1760 0.9330 0.3139
vn 0.1801 0.2571 -0.9495
vn -0.8678 0.1409 -0.4766
vn -0.5656 -0.6065 0.5589
vn -0.7073 -0.6085 -0.3597
vn -0.5907 -0.7491 -0.2999
vn 0.2889 0.7683 -0.5713
vn -0.6793 0.4593 -0.5724
vn -0.7528 0.4853 0.4447
vn -0.6795 0.1902 0.7086
vn -0.3043 0.9292 -0.2097
vn -0.1751 0.8867 -0.4280
vn -0.2296 0.2085 -0.9507
vn 0.1313 -0.0662 -0.9891
vn -0.2015 0.9554 0.2160
vn -0.2980 0.8979 0.3241
vn 0.6988 0.0067 -0.7153
vn -0.0329 -0.6335 -0.7731
vn -0.1354 -0.8666 -0.4804
vt 0.312500 0.750000
vt 0.312500 0.437500
vt 0.328125 0.500000
vt 0.328125 0.750000
vt 0.437500 0.750000
vt 0.437500 0.937500
vt 0.421875 0.812500
vt 0.437500 0.500000
vt 0.421875 0.625000
vt 0.453125 0.437500
vt 0.281250 0.562500
vt 0.296875 0.687500
vt 0.281250 0.687500
vt 0.218750 0.875000
vt 0.250000 0.750000
vt 0.250000 1.000000
vt 0.203125 0.937500
vt 0.187500 0.937500
vt 0.187500 0.812500
vt 0.156250 0.937500
vt 0.156250 0.812500
vt 0.390625 0.750000
vt 0.390625 0.812500
vt 0.125000 0.750000
vt 0.203125 0.750000
vt 0.203125 0.562500
vt -0.000000 0.562500
vt 0.109375 0.562500
vt 0.109375 1.000000
vt -0.000000 1.000000
vt 0.312500 1.000000
vt 0.328125 0.937500
vt 0.453125 1.000000
vt 0.343750 0.750000
vt 0.375000 0.625000
vt 0.234375 0.562500
vt 0.234375 0.687500
vt 0.218750 0.687500
vt 0.125000 0.937500
vt 0.140625 0.812500
vt 0.140625 0.937500
vt 0.296875 0.750000
vt 0.296875 1.000000
s 0
usemtl Material.001
f 111/113/113 110/114/113 116/115/113 117/116/113
f 110/117/114 111/118/114 113/119/114
f 137/120/115 110/117/115 112/121/115
f 110/117/116 113/119/116 112/121/116
f 117/116/117 116/115/117 118/114/117 115/113/117
f 138/120/118 109/115/118 118/114/118 142/122/118
f 109/115/119 114/116/119 115/113/119 118/114/119
f 114/123/120 109/124/120 119/125/120
f 144/126/121 134/127/121 120/128/121
f 119/129/122 109/130/122 120/131/122
f 109/130/123 143/132/123 144/133/123 120/131/123
f 116/115/124 141/120/124 142/122/124 118/114/124
f 112/121/125 113/119/125 140/134/125
f 113/119/126 139/135/126 140/134/126
f 111/118/127 139/135/127 113/119/127
f 109/136/128 138/137/128 143/138/128
f 110/114/129 137/122/129 141/120/129 116/115/129
f 110/139/130 137/140/130 122/141/130 121/142/130
f 125/143/131 131/144/131 130/118/131 124/145/131
f 111/113/132 117/116/132 131/144/132 125/143/132
f 124/146/133 127/144/133 125/115/133
f 137/120/134 126/147/134 124/115/134
f 124/115/135 126/147/135 127/146/135
f 137/120/136 112/121/136 126/147/136
f 112/121/137 140/134/137 126/147/137
f 117/116/138 115/113/138 129/143/138 131/144/138
f 131/144/139 129/143/139 132/145/139 130/118/139
f 138/120/140 142/122/140 132/145/140 123/118/140
f 123/118/141 132/145/141 129/143/141 128/144/141
f 128/148/142 133/149/142 123/150/142
f 114/123/143 119/125/143 133/149/143 128/148/143
f 133/151/144 134/152/144 123/153/144
f 123/153/145 134/152/145 144/133/145 143/132/145
f 130/118/146 132/145/146 142/122/146 141/120/146
f 126/147/147 140/134/147 127/146/147
f 127/146/148 140/134/148 139/135/148
f 125/144/149 127/146/149 139/135/149
f 125/144/150 139/135/150 111/118/150
f 123/136/151 143/138/151 138/137/151
f 124/145/152 130/118/152 141/120/152 137/122/152
f 124/140/153 135/141/153 136/142/153 137/139/153
f 128/144/154 129/143/154 115/113/154 114/116/154
f 120/128/155 134/127/155 133/154/155 119/155/155
o BezierCircle
v -26.683170 10.649023 -1.546623
v -26.439865 10.566792 -5.096894
v -25.731138 10.327261 -8.502262
v -24.588779 9.941174 -11.731503
v -23.044582 9.419273 -14.753392
v -21.130333 8.772306 -17.536705
v -18.877823 8.011015 -20.050215
v -16.318838 7.146144 -22.262699
v -13.485172 6.188437 -24.142933
v -10.408615 5.148640 -25.659693
v -7.120955 4.037494 -26.781750
v -3.653981 2.865746 -27.477882
v -0.039484 1.644138 -27.716871
v 3.575013 0.422530 -27.477888
v 7.041987 -0.749218 -26.781755
v 10.329647 -1.860364 -25.659697
v 13.406204 -2.900162 -24.142939
v 16.239868 -3.857868 -22.262705
v 18.798851 -4.722738 -20.050219
v 21.051361 -5.484029 -17.536705
v 22.965611 -6.130996 -14.753392
v 24.509808 -6.652895 -11.731503
v 25.652164 -7.038984 -8.502262
v 26.360889 -7.278514 -5.096893
v 26.604202 -7.360748 -1.546623
v 26.360897 -7.278516 2.003647
v 25.652170 -7.038985 5.409015
v 24.509811 -6.652897 8.638256
v 22.965614 -6.130998 11.660146
v 21.051365 -5.484031 14.443458
v 18.798855 -4.722739 16.956968
v 16.239870 -3.857868 19.169453
v 13.406204 -2.900162 21.049686
v 10.329647 -1.860364 22.566446
v 7.041987 -0.749218 23.688503
v 3.575013 0.422530 24.384636
v -0.039484 1.644138 24.623625
v -3.653981 2.865746 24.384642
v -7.120955 4.037494 23.688509
v -10.408615 5.148640 22.566450
v -13.485172 6.188437 21.049692
v -16.318836 7.146143 19.169458
v -18.877819 8.011014 16.956972
v -21.130329 8.772305 14.443460
v -23.044579 9.419271 11.660146
v -24.588776 9.941172 8.638256
v -25.731133 10.327259 5.409015
v -26.439857 10.566790 2.003647
l 145 146
l 146 147
l 147 148
l 148 149
l 149 150
l 150 151
l 151 152
l 152 153
l 153 154
l 154 155
l 155 156
l 156 157
l 157 158
l 158 159
l 159 160
l 160 161
l 161 162
l 162 163
l 163 164
l 164 165
l 165 166
l 166 167
l 167 168
l 168 169
l 169 170
l 170 171
l 171 172
l 172 173
l 173 174
l 174 175
l 175 176
l 176 177
l 177 178
l 178 179
l 179 180
l 180 181
l 181 182
l 182 183
l 183 184
l 184 185
l 185 186
l 186 187
l 187 188
l 188 189
l 189 190
l 190 191
l 191 192
l 192 145
