# Blender 3.6.4
# www.blender.org
mtllib ost43.mtl
o Cube
v -1.646582 0.258802 0.888885
v -1.526768 0.557684 -1.553672
v -2.168462 -1.014158 0.537946
v -2.152640 -1.022693 -1.702882
v -0.341175 -2.970179 0.635575
v -0.329846 -2.974850 -0.886607
v -1.783473 -2.987611 0.626158
v -1.771978 -2.993083 -0.896441
v -0.892876 -3.144938 -0.051800
v -0.890169 -3.146227 -0.410369
v -1.214819 -3.149122 -0.054216
v -1.212112 -3.150412 -0.412785
v -1.233519 -4.033444 -0.254368
v -1.235433 -3.970520 0.098645
v -0.913547 -3.977630 0.101658
v -0.911633 -4.040554 -0.251355
v -1.508999 -4.553719 -0.345020
v -1.512106 -4.497618 0.152708
v -0.660767 -4.506310 0.161863
v -0.657220 -4.553484 -0.328306
v -0.944962 -4.044566 0.902909
v -1.221847 -4.031934 0.899156
v -0.726938 -4.338875 0.956552
v -1.453774 -4.322820 0.949748
v -1.376463 1.812175 -1.016542
v -1.344522 1.768655 0.736178
v -0.469779 3.189090 -0.105701
v 0.003332 3.080977 0.159255
v -2.233054 0.315122 -1.813531
v -1.769972 0.960621 -1.444159
v -1.731127 0.908614 0.977975
v -2.190845 2.099294 0.176272
v -2.278095 2.201467 -0.435020
v -2.994785 2.579650 0.220817
v -5.430888 0.118567 0.824921
v -2.769328 0.551736 -1.210618
v -5.612638 1.213296 1.730000
v -5.826249 0.810352 0.745268
v -4.965161 1.434163 1.213506
v -5.138413 1.466912 0.808822
v 1.695265 -0.460762 1.027815
v 1.503664 0.844280 -0.913730
v 2.204571 -1.517114 0.090438
v 2.107651 -0.360578 -1.801757
v 0.364149 -3.231920 -0.726906
v 0.298811 -2.458473 -2.057902
v 1.807378 -3.250923 -0.958557
v 1.736720 -2.406625 -2.223721
v 0.889662 -3.015686 -1.575002
v 0.873022 -2.816855 -1.872945
v 1.211213 -3.013398 -1.591433
v 1.194574 -2.814568 -1.889377
v 1.213632 -3.635473 -2.251350
v 1.229856 -3.780093 -1.923627
v 0.908276 -3.792081 -1.912997
v 0.892052 -3.647462 -2.240722
v 1.498711 -4.593494 -2.822635
v 1.504232 -4.300063 -2.200722
v 0.652957 -4.267890 -2.148459
v 0.630365 -4.047720 -2.586328
v 0.970133 -4.294047 -1.287158
v 1.246772 -4.277679 -1.293630
v 0.751539 -4.571208 -1.398643
v 1.477683 -4.544137 -1.422644
v 1.356773 1.773222 -0.862976
v 1.395294 1.690043 0.859594
v 0.445371 3.198581 -0.171501
v 2.192766 0.782360 -1.246189
v 1.737427 0.951466 -1.322901
v 1.792777 0.842309 1.059540
v 2.300489 2.350650 -0.075034
v 2.243845 2.348744 -0.984673
v 3.059350 2.618329 -0.225277
v 5.081170 -0.080012 -1.273039
v 2.622791 0.812756 -1.540462
v 5.577124 0.442860 -0.039683
v 5.576225 0.525098 -1.121776
v 4.914313 0.939157 -0.261377
v 5.032712 1.139396 -0.636536
v 0.000000 0.659971 -2.353794
v 0.004611 -1.065678 0.677083
v -0.006894 -0.721050 -2.237380
v 0.009983 -0.069340 1.386521
v -0.000000 1.618504 -1.958405
v 0.006372 1.424521 1.366995
v -0.011697 3.267010 -0.517854
v -0.418191 3.209363 -0.163927
v 0.000000 0.061724 -2.536163
v 0.016438 0.449441 1.565583
v -0.004127 3.092872 0.160109
v 0.412840 3.160586 -0.111969
v 0.023697 3.092180 -0.504056
v -0.137054 4.345016 -0.738903
v 0.183748 4.422782 -0.464522
v 0.534244 4.271419 -0.659558
v 0.179642 3.913777 -0.933476
v 0.077166 5.838763 -1.018397
v 0.373373 5.748075 -0.708917
v 0.747293 5.757969 -0.936570
v 0.452748 5.747447 -1.359582
v 0.234859 7.587218 -0.583463
v 0.515619 7.298010 -0.343499
v 0.904986 7.505965 -0.502094
v 0.642892 8.020150 -0.672794
v 0.188755 8.898468 0.433159
v 0.546397 8.554678 0.645233
v 1.014415 8.798923 0.533978
v 0.664138 9.112748 0.232001
vn -0.1882 -0.3795 0.9058
vn -0.9814 -0.1920 -0.0064
vn -0.9275 0.3737 -0.0037
vn -0.0409 0.0116 0.9991
vn 0.9866 -0.1626 -0.0125
vn -0.0075 0.1823 0.9832
vn -0.2717 -0.9624 0.0014
vn 0.2963 -0.9551 0.0052
vn 0.0103 -0.9710 0.2389
vn 0.0143 -0.9460 -0.3239
vn 0.0319 0.9963 0.0802
vn -0.9997 0.0231 -0.0086
vn 0.0075 -0.1760 -0.9844
vn 0.9997 -0.0228 0.0086
vn -0.0065 -0.9946 0.1039
vn -0.8814 0.4671 -0.0706
vn 0.0175 0.1598 -0.9870
vn 0.8976 0.4379 -0.0514
vn -0.0053 0.1755 0.9845
vn 0.8665 0.4987 0.0216
vn -0.8492 0.5281 0.0007
vn -0.0175 -0.9775 0.2101
vn -0.4355 0.6292 -0.6438
vn -0.9867 0.1625 -0.0074
vn -0.4695 0.3697 -0.8018
vn -0.2089 0.6315 -0.7467
vn -0.3548 0.9299 0.0964
vn -0.2879 0.2789 0.9161
vn -0.9107 0.4124 0.0249
vn 0.4155 -0.5542 0.7212
vn 0.3200 -0.4795 0.8171
vn -0.0703 0.8922 0.4462
vn -0.6377 0.2432 0.7308
vn -0.3810 -0.9238 -0.0377
vn -0.4508 0.4661 -0.7613
vn -0.5629 0.8242 -0.0629
vn -0.5325 0.3360 -0.7769
vn -0.2635 0.6020 0.7538
vn 0.1711 -0.9700 -0.1727
vn 0.2554 0.3437 0.9037
vn -0.3944 0.8869 0.2406
vn -0.2543 0.6912 -0.6765
vn -0.2217 0.5742 0.7881
vn -0.3329 0.0869 0.9390
vn -0.0892 -0.4540 -0.8865
vn -0.3485 0.0848 -0.9334
vn -0.2738 0.6177 -0.7372
vn 0.0575 -0.6161 0.7856
vn 0.9793 -0.1434 -0.1429
vn 0.9293 0.3385 0.1474
vn 0.1203 -0.5294 0.8398
vn -0.9867 -0.1605 -0.0244
vn 0.0474 -0.3970 0.9166
vn 0.2623 -0.7958 -0.5457
vn -0.3809 -0.8023 -0.4597
vn -0.0499 -0.9556 -0.2904
vn -0.0681 -0.5616 -0.8246
vn -0.0192 0.7817 0.6234
vn 0.9988 0.0376 -0.0318
vn -0.0474 0.4028 -0.9141
vn -0.9988 -0.0374 0.0319
vn -0.3066 -0.9490 0.0737
vn 0.9154 0.3940 -0.0827
vn 0.0793 0.5587 -0.8256
vn -0.8972 0.3794 0.2263
vn 0.0452 -0.4033 0.9139
vn -0.8602 0.3900 0.3286
vn 0.8684 0.4362 0.2357
vn -0.0193 -0.9415 -0.3364
vn 0.4839 0.5922 -0.6443
vn 0.9896 0.1433 -0.0079
vn 0.6313 0.2246 -0.7423
vn -0.2939 0.2585 -0.9202
vn 0.3168 0.8014 0.5074
vn 0.2452 0.2591 0.9342
vn 0.9063 0.4226 -0.0009
vn -0.4672 -0.5866 0.6615
vn 0.2948 -0.2600 0.9195
vn -0.0295 0.2938 0.9554
vn 0.6385 0.1419 0.7564
vn 0.5488 -0.8347 -0.0456
vn 0.3719 0.6738 -0.6385
vn 0.6871 0.7009 0.1913
vn 0.2690 0.4173 -0.8680
vn 0.2762 0.6382 0.7186
vn -0.4271 -0.8903 -0.1580
vn 0.1449 0.1390 0.9796
vn 0.5794 0.6289 0.5185
vn 0.1787 0.8509 -0.4940
vn 0.1795 0.5798 0.7947
vn 0.2732 0.0722 0.9592
vn 0.0684 0.0626 -0.9957
vn 0.3906 0.3449 -0.8535
vn 0.2647 0.7495 -0.6068
vn 0.1818 0.4945 0.8500
vn -0.1425 -0.8707 -0.4707
vn -0.5504 0.4476 0.7048
vn -0.6630 -0.2192 -0.7158
vn 0.7282 -0.3896 -0.5639
vn 0.5182 0.3160 0.7947
vn 0.7702 -0.2381 -0.5917
vn 0.5144 0.0846 0.8533
vn -0.6668 0.2274 0.7097
vn -0.6422 -0.0679 -0.7636
vn 0.4927 -0.2472 0.8343
vn -0.7202 -0.1011 0.6864
vn -0.5510 0.2681 -0.7902
vn 0.7696 0.1089 -0.6292
vn -0.5801 0.5049 -0.6392
vn 0.8168 0.3365 -0.4686
vn 0.5015 -0.5548 0.6638
vn -0.7602 -0.4027 0.5098
vt 0.203125 0.375000
vt 0.109375 0.375000
vt 0.109375 0.062500
vt 0.203125 0.062500
vt 0.218750 0.375000
vt 0.218750 0.187500
vt 0.265625 0.250000
vt 0.265625 0.375000
vt 0.250000 0.144531
vt 0.226074 0.289062
vt 0.250000 0.250000
vt 0.328125 0.375000
vt 0.281250 0.312500
vt 0.328125 0.312500
vt 0.359375 0.250000
vt 0.343750 0.250000
vt 0.343750 0.062500
vt 0.359375 0.062500
vt 0.312500 0.187500
vt 0.312500 0.125000
vt 0.328125 0.062500
vt 0.328125 0.250000
vt 0.296875 0.125000
vt 0.296875 0.187500
vt 0.281250 0.250000
vt 0.281250 0.062500
vt 0.437500 0.187500
vt 0.437500 0.250000
vt 0.406250 0.250000
vt 0.406250 0.187500
vt 0.375000 0.250000
vt 0.375000 0.062500
vt 0.484375 0.375000
vt 0.468750 0.375000
vt 0.468750 0.312500
vt 0.484375 0.312500
vt 0.453125 0.250000
vt 0.453125 0.375000
vt 0.437500 0.375000
vt 0.453125 0.187500
vt 0.484375 0.125000
vt 0.437500 0.062500
vt 0.453125 0.062500
vt 0.390625 0.312500
vt 0.390625 0.125000
vt 0.406250 0.062500
vt 0.406250 0.375000
vt 0.453125 0.312500
vt 0.500000 0.187500
vt 0.562500 0.187500
vt 0.500000 0.500000
vt 0.500000 0.375000
vt 0.625000 0.062500
vt 0.578125 0.062500
vt 0.578125 0.187500
vt 0.625000 0.187500
vt 0.500000 0.062500
vt 0.562500 0.062500
vt 0.562500 0.375000
vt 0.609375 0.875000
vt 0.671875 0.875000
vt 0.640625 1.000000
vt 0.765625 0.437500
vt 0.718750 0.437500
vt 0.718750 0.250000
vt 0.765625 0.250000
vt 0.687500 0.437500
vt 0.640625 0.250000
vt 0.640625 0.437500
vt 0.593750 1.000000
vt 0.578125 1.000000
vt 0.578125 0.625000
vt 0.000000 0.062500
vt 0.093750 0.500000
vt 0.265625 0.500000
vt 0.578125 0.312500
vt 0.625000 0.312500
vt 0.562500 0.500000
vt 0.625000 0.375000
vt 0.656250 0.562500
vt 0.609375 0.562500
vt 0.609375 0.750000
vt 0.656250 0.750000
vt 0.468750 1.000000
vt 0.468750 0.625000
vt 0.625000 0.500000
vt 0.218750 0.062500
vt 0.265625 0.062500
vt 0.000000 0.375000
vt 0.093750 0.375000
vt 0.093750 0.062500
vt 0.765625 0.875000
vt 0.765625 1.000000
vt 0.281250 0.375000
vt 0.671875 0.500000
vt 0.687500 0.500000
vt 0.687500 0.625000
vt 0.671875 0.625000
vt 0.703125 0.500000
vt 0.703125 0.625000
vt 0.687500 0.812500
vt 0.671875 0.812500
vt 0.703125 0.812500
vt 0.734375 0.500000
vt 0.750000 0.500000
vt 0.750000 0.687500
vt 0.734375 0.687500
vt 0.718750 0.500000
vt 0.718750 0.687500
vt 0.750000 0.812500
vt 0.734375 0.812500
vt 0.718750 0.812500
s 0
usemtl Material
f 83/1/1 1/2/1 3/3/1 81/4/1
f 3/5/2 4/6/2 8/7/2 7/8/2
f 4/9/3 3/10/3 1/11/3 2/11/3
f 81/11/4 3/10/4 7/7/4 5/7/4
f 82/12/5 81/13/5 5/13/5 6/14/5
f 9/15/6 11/16/6 14/17/6 15/18/6
f 12/19/7 11/20/7 7/21/7 8/22/7
f 9/23/8 10/24/8 6/25/8 5/26/8
f 11/20/9 9/23/9 5/26/9 7/21/9
f 10/24/10 12/19/10 8/22/10 6/25/10
f 15/27/11 14/28/11 22/29/11 21/30/11
f 11/31/12 12/15/12 13/18/12 14/32/12
f 12/15/13 10/16/13 16/17/13 13/18/13
f 10/31/14 9/15/14 15/18/14 16/32/14
f 20/33/15 19/34/15 18/35/15 17/36/15
f 14/28/16 13/37/16 17/38/16 18/39/16
f 13/37/17 16/40/17 20/41/17 17/36/17
f 16/40/18 15/27/18 19/42/18 20/43/18
f 21/30/19 22/29/19 24/44/19 23/45/19
f 19/42/20 15/27/20 21/30/20 23/46/20
f 14/28/21 18/39/21 24/47/21 22/29/21
f 18/35/22 19/34/22 23/38/22 24/48/22
f 84/49/23 25/50/23 27/51/23 86/52/23
f 2/53/24 1/54/24 26/55/24 25/56/24
f 80/57/25 2/58/25 25/50/25 84/49/25
f 27/51/26 25/50/26 33/59/26
f 1/60/27 2/61/27 29/62/27
f 85/63/28 26/64/28 31/65/28 89/66/28
f 26/64/29 25/67/29 30/68/29 31/65/29
f 84/69/30 25/67/30 30/68/30
f 25/70/31 33/71/31 36/72/31
f 27/73/32 28/73/32 90/73/32 87/73/32
f 67/74/33 86/75/33 92/75/33 91/74/33
f 25/56/34 26/55/34 32/76/34 33/77/34
f 34/78/35 33/59/35 40/79/35
f 39/80/36 40/81/36 38/82/36 37/83/36
f 40/84/37 33/71/37 36/72/37 35/85/37
f 26/50/38 28/52/38 32/59/38
f 33/79/39 32/86/39 39/78/39 40/59/39
f 32/59/40 34/78/40 39/79/40
f 34/78/41 40/86/41 39/79/41
f 34/78/42 27/51/42 33/59/42
f 26/50/43 85/49/43 28/52/43
f 1/58/44 83/57/44 85/49/44 26/50/44
f 4/6/45 82/87/45 6/88/45 8/7/45
f 2/89/46 80/90/46 82/91/46 4/73/46
f 2/61/47 80/92/47 88/93/47 29/62/47
f 83/1/48 81/4/48 43/3/48 41/2/48
f 43/5/49 47/87/49 48/88/49 44/8/49
f 44/11/50 42/11/50 41/11/50 43/11/50
f 81/5/51 45/87/51 47/88/51 43/8/51
f 82/12/52 46/94/52 45/13/52 81/14/52
f 49/16/53 55/17/53 54/18/53 51/15/53
f 52/23/54 48/26/54 47/21/54 51/20/54
f 49/19/55 45/22/55 46/25/55 50/24/55
f 51/20/56 47/21/56 45/22/56 49/19/56
f 50/24/57 46/25/57 48/26/57 52/23/57
f 55/28/58 61/29/58 62/30/58 54/27/58
f 51/15/59 54/18/59 53/32/59 52/31/59
f 52/16/60 53/17/60 56/18/60 50/15/60
f 50/15/61 56/18/61 55/32/61 49/31/61
f 60/36/62 57/33/62 58/34/62 59/35/62
f 54/27/63 58/42/63 57/43/63 53/40/63
f 53/40/64 57/41/64 60/36/64 56/37/64
f 56/37/65 60/38/65 59/39/65 55/28/65
f 61/29/66 63/44/66 64/45/66 62/30/66
f 59/39/67 63/47/67 61/29/67 55/28/67
f 54/27/68 62/30/68 64/46/68 58/42/68
f 58/34/69 64/38/69 63/48/69 59/35/69
f 84/49/70 86/52/70 67/51/70 65/50/70
f 42/53/71 65/77/71 66/76/71 41/54/71
f 80/57/72 84/49/72 65/50/72 42/58/72
f 67/51/73 72/59/73 65/50/73
f 41/60/74 68/62/74 42/61/74
f 85/63/75 89/66/75 70/65/75 66/64/75
f 66/64/76 70/65/76 69/68/76 65/67/76
f 84/69/77 69/68/77 65/67/77
f 65/70/78 75/72/78 72/71/78
f 34/78/79 32/59/79 28/52/79 27/51/79
f 86/75/80 27/74/80 87/74/80 92/75/80
f 65/51/81 72/78/81 71/59/81 66/52/81
f 73/78/82 79/79/82 72/59/82
f 78/80/83 76/83/83 77/82/83 79/81/83
f 79/84/84 74/85/84 75/72/84 72/71/84
f 66/50/85 71/59/85 28/52/85
f 72/78/86 79/86/86 78/79/86 71/59/86
f 71/59/87 78/79/87 73/78/87
f 73/78/88 78/79/88 79/86/88
f 73/78/89 72/59/89 67/51/89
f 66/50/90 28/52/90 85/49/90
f 41/58/91 66/50/91 85/49/91 83/57/91
f 44/8/92 48/5/92 46/87/92 82/88/92
f 42/89/93 44/73/93 82/91/93 80/90/93
f 42/61/94 68/62/94 88/93/94 80/92/94
f 28/52/95 71/59/95 73/78/95 67/51/95
f 28/95/96 67/73/96 91/73/96 90/95/96
f 87/95/97 90/96/97 94/97/97 93/98/97
f 92/96/98 87/99/98 93/100/98 96/97/98
f 91/95/99 92/96/99 96/97/99 95/98/99
f 90/96/100 91/99/100 95/100/100 94/97/100
f 95/98/101 96/97/101 100/101/101 99/102/101
f 94/97/102 95/100/102 99/103/102 98/101/102
f 93/98/103 94/97/103 98/101/103 97/102/103
f 96/97/104 93/100/104 97/103/104 100/101/104
f 98/104/105 99/105/105 103/106/105 102/107/105
f 97/108/106 98/104/106 102/107/106 101/109/106
f 100/104/107 97/105/107 101/106/107 104/107/107
f 99/108/108 100/104/108 104/107/108 103/109/108
f 104/107/109 101/106/109 105/110/109 108/111/109
f 103/109/110 104/107/110 108/111/110 107/112/110
f 102/107/111 103/106/111 107/110/111 106/111/111
f 101/109/112 102/107/112 106/111/112 105/112/112
o Icosphere
v 1.814105 8.887963 1.552349
v 1.890153 9.407447 1.503767
v 1.363931 9.480580 0.549466
v 1.544770 10.956206 1.939323
v 1.875118 10.375775 0.873420
v 1.306007 8.980234 0.442428
v 1.372234 9.039860 0.378380
v 1.981970 9.332550 1.538813
v 1.421610 9.423990 0.458967
v 1.922673 8.948943 1.576824
v 1.038908 8.806006 0.314739
v 1.989579 8.116697 1.544991
v 2.236999 10.679624 1.508179
v 1.013628 11.088422 2.785279
v -0.693101 9.223834 1.501135
v -0.633455 9.747480 1.456629
v -0.069622 9.667443 0.463642
v 0.048767 11.156934 1.901977
v -0.412948 10.673963 0.746225
v -0.107095 9.180134 0.357010
v -0.156363 9.254175 0.294696
v -0.740993 9.699493 1.489769
v -0.127472 9.628080 0.368355
v -0.782525 9.312338 1.524933
v 0.183889 8.942034 0.195802
v -1.054157 8.524284 1.461428
v -0.639840 11.067908 1.463435
v 0.640055 11.135090 2.782601
v 0.660906 9.836587 2.711519
v 0.587286 9.305321 2.791253
v 0.787677 10.832468 0.334681
v 0.796626 11.309489 1.223241
v 0.652798 9.784763 2.831271
v 0.598464 9.392509 2.887450
v 0.551359 9.100682 3.736375
v 0.439776 8.334362 4.502560
vn 0.5854 0.7711 -0.2503
vn 0.8259 -0.2985 -0.4783
vn 0.6913 -0.0486 0.7209
vn 0.9644 0.1547 0.2146
vn 0.8910 -0.1016 -0.4425
vn 0.3315 -0.7422 0.5824
vn 0.4972 -0.8167 -0.2928
vn 0.6228 -0.7030 -0.3435
vn -0.1328 -0.9911 0.0033
vn 0.8258 0.1929 -0.5300
vn 0.8569 0.2563 0.4473
vn 0.6976 -0.0152 0.7163
vn 0.5909 0.7712 -0.2368
vn 0.5180 0.7514 -0.4086
vn 0.4621 0.0564 -0.8850
vn 0.4921 0.8468 0.2020
vn 0.5690 0.7599 0.3144
vn -0.6610 0.2056 -0.7217
vn -0.3688 0.8897 -0.2691
vn 0.1421 0.8794 -0.4543
vn -0.8638 -0.1606 -0.4775
vn -0.6956 0.1125 0.7095
vn -0.9048 0.3730 0.2056
vn 0.0514 0.5392 0.8406
vn 0.1168 0.9337 0.3386
vn 0.0813 0.1907 -0.9783
vn -0.8773 0.1049 -0.4683
vn -0.5309 -0.6263 0.5708
vn -0.6820 -0.6577 -0.3199
vn -0.7009 -0.6298 -0.3349
vn 0.1573 0.5728 -0.8045
vn -0.7173 0.4025 -0.5688
vn -0.7752 0.4630 0.4298
vn -0.6932 0.1674 0.7011
vn -0.3838 0.8965 -0.2213
vn -0.2677 0.8500 -0.4536
vn -0.3380 0.1458 -0.9298
vn 0.0410 -0.1397 -0.9893
vn -0.2569 0.9465 0.1952
vn -0.3547 0.8828 0.3080
vn 0.7059 0.0284 -0.7077
vn -0.0542 -0.6823 -0.7290
vn -0.1047 -0.9046 -0.4133
vt 0.312500 0.750000
vt 0.312500 0.437500
vt 0.328125 0.500000
vt 0.328125 0.750000
vt 0.437500 0.750000
vt 0.437500 0.937500
vt 0.421875 0.812500
vt 0.437500 0.500000
vt 0.421875 0.625000
vt 0.453125 0.437500
vt 0.281250 0.562500
vt 0.296875 0.687500
vt 0.281250 0.687500
vt 0.218750 0.875000
vt 0.250000 0.750000
vt 0.250000 1.000000
vt 0.203125 0.937500
vt 0.187500 0.937500
vt 0.187500 0.812500
vt 0.156250 0.937500
vt 0.156250 0.812500
vt 0.390625 0.750000
vt 0.390625 0.812500
vt 0.125000 0.750000
vt 0.203125 0.750000
vt 0.203125 0.562500
vt -0.000000 0.562500
vt 0.109375 0.562500
vt 0.109375 1.000000
vt -0.000000 1.000000
vt 0.312500 1.000000
vt 0.328125 0.937500
vt 0.453125 1.000000
vt 0.343750 0.750000
vt 0.375000 0.625000
vt 0.234375 0.562500
vt 0.234375 0.687500
vt 0.218750 0.687500
vt 0.125000 0.937500
vt 0.140625 0.812500
vt 0.140625 0.937500
vt 0.296875 0.750000
vt 0.296875 1.000000
s 0
usemtl Material.001
f 111/113/113 110/114/113 116/115/113 117/116/113
f 110/117/114 111/118/114 113/119/114
f 137/120/115 110/117/115 112/121/115
f 110/117/116 113/119/116 112/121/116
f 117/116/117 116/115/117 118/114/117 115/113/117
f 138/120/118 109/115/118 118/114/118 142/122/118
f 109/115/119 114/116/119 115/113/119 118/114/119
f 114/123/120 109/124/120 119/125/120
f 144/126/121 134/127/121 120/128/121
f 119/129/122 109/130/122 120/131/122
f 109/130/123 143/132/123 144/133/123 120/131/123
f 116/115/124 141/120/124 142/122/124 118/114/124
f 112/121/125 113/119/125 140/134/125
f 113/119/126 139/135/126 140/134/126
f 111/118/127 139/135/127 113/119/127
f 109/136/128 138/137/128 143/138/128
f 110/114/129 137/122/129 141/120/129 116/115/129
f 110/139/130 137/140/130 122/141/130 121/142/130
f 125/143/131 131/144/131 130/118/131 124/145/131
f 111/113/132 117/116/132 131/144/132 125/143/132
f 124/146/133 127/144/133 125/115/133
f 137/120/134 126/147/134 124/115/134
f 124/115/135 126/147/135 127/146/135
f 137/120/136 112/121/136 126/147/136
f 112/121/137 140/134/137 126/147/137
f 117/116/138 115/113/138 129/143/138 131/144/138
f 131/144/139 129/143/139 132/145/139 130/118/139
f 138/120/140 142/122/140 132/145/140 123/118/140
f 123/118/141 132/145/141 129/143/141 128/144/141
f 128/148/142 133/149/142 123/150/142
f 114/123/143 119/125/143 133/149/143 128/148/143
f 133/151/144 134/152/144 123/153/144
f 123/153/145 134/152/145 144/133/145 143/132/145
f 130/118/146 132/145/146 142/122/146 141/120/146
f 126/147/147 140/134/147 127/146/147
f 127/146/148 140/134/148 139/135/148
f 125/144/149 127/146/149 139/135/149
f 125/144/150 139/135/150 111/118/150
f 123/136/151 143/138/151 138/137/151
f 124/145/152 130/118/152 141/120/152 137/122/152
f 124/140/153 135/141/153 136/142/153 137/139/153
f 128/144/154 129/143/154 115/113/154 114/116/154
f 120/128/155 134/127/155 133/154/155 119/155/155
o BezierCircle
v -26.683170 10.649023 -1.546623
v -26.439865 10.566792 -5.096894
v -25.731138 10.327261 -8.502262
v -24.588779 9.941174 -11.731503
v -23.044582 9.419273 -14.753392
v -21.130333 8.772306 -17.536705
v -18.877823 8.011015 -20.050215
v -16.318838 7.146144 -22.262699
v -13.485172 6.188437 -24.142933
v -10.408615 5.148640 -25.659693
v -7.120955 4.037494 -26.781750
v -3.653981 2.865746 -27.477882
v -0.039484 1.644138 -27.716871
v 3.575013 0.422530 -27.477888
v 7.041987 -0.749218 -26.781755
v 10.329647 -1.860364 -25.659697
v 13.406204 -2.900162 -24.142939
v 16.239868 -3.857868 -22.262705
v 18.798851 -4.722738 -20.050219
v 21.051361 -5.484029 -17.536705
v 22.965611 -6.130996 -14.753392
v 24.509808 -6.652895 -11.731503
v 25.652164 -7.038984 -8.502262
v 26.360889 -7.278514 -5.096893
v 26.604202 -7.360748 -1.546623
v 26.360897 -7.278516 2.003647
v 25.652170 -7.038985 5.409015
v 24.509811 -6.652897 8.638256
v 22.965614 -6.130998 11.660146
v 21.051365 -5.484031 14.443458
v 18.798855 -4.722739 16.956968
v 16.239870 -3.857868 19.169453
v 13.406204 -2.900162 21.049686
v 10.329647 -1.860364 22.566446
v 7.041987 -0.749218 23.688503
v 3.575013 0.422530 24.384636
v -0.039484 1.644138 24.623625
v -3.653981 2.865746 24.384642
v -7.120955 4.037494 23.688509
v -10.408615 5.148640 22.566450
v -13.485172 6.188437 21.049692
v -16.318836 7.146143 19.169458
v -18.877819 8.011014 16.956972
v -21.130329 8.772305 14.443460
v -23.044579 9.419271 11.660146
v -24.588776 9.941172 8.638256
v -25.731133 10.327259 5.409015
v -26.439857 10.566790 2.003647
l 145 146
l 146 147
l 147 148
l 148 149
l 149 150
l 150 151
l 151 152
l 152 153
l 153 154
l 154 155
l 155 156
l 156 157
l 157 158
l 158 159
l 159 160
l 160 161
l 161 162
l 162 163
l 163 164
l 164 165
l 165 166
l 166 167
l 167 168
l 168 169
l 169 170
l 170 171
l 171 172
l 172 173
l 173 174
l 174 175
l 175 176
l 176 177
l 177 178
l 178 179
l 179 180
l 180 181
l 181 182
l 182 183
l 183 184
l 184 185
l 185 186
l 186 187
l 187 188
l 188 189
l 189 190
l 190 191
l 191 192
l 192 145
