# Blender 3.6.4
# www.blender.org
mtllib ost40.mtl
o Cube
v -1.555615 0.866133 0.221788
v -1.453428 -0.101237 -1.976380
v -2.177295 -0.157400 0.510936
v -2.213243 -1.478508 -1.253328
v -0.527254 -1.832861 1.761649
v -0.557046 -2.687508 0.598693
v -1.986045 -1.588071 1.835865
v -2.011966 -2.553693 0.658846
v -1.131796 -2.218141 1.447518
v -1.137901 -2.445543 1.170332
v -1.452564 -2.193529 1.434391
v -1.458669 -2.420931 1.157205
v -1.311979 -2.886568 0.574259
v -1.283934 -3.115774 0.848592
v -0.967799 -3.057049 0.865339
v -0.995844 -2.827842 0.591006
v -1.506238 -3.284482 0.146067
v -1.460670 -3.520570 0.486707
v -0.619679 -3.378665 0.515483
v -0.664780 -3.040176 0.165638
v -0.893254 -3.712658 1.325871
v -1.166487 -3.758257 1.315705
v -0.621581 -3.891256 1.148880
v -1.335429 -4.023860 1.111063
v -1.363739 1.763555 -1.110996
v -1.323867 1.803288 0.561592
v -0.464371 3.190597 -0.105715
v 0.003548 3.079892 0.159639
v -2.178343 -0.418327 -2.104626
v -1.764962 0.910533 -1.498446
v -1.721432 0.975066 0.858844
v -2.210386 2.139402 0.168595
v -2.292322 2.244409 -0.443360
v -3.005926 2.637831 0.208059
v -5.512712 0.238041 0.768655
v -2.808147 0.595601 -1.221977
v -5.678886 1.333864 1.675403
v -5.889063 0.940032 0.686255
v -5.018848 1.539854 1.168751
v -5.185569 1.578476 0.761848
v 1.678447 -0.233978 1.031922
v 1.512116 0.795789 -1.126944
v 2.191793 -1.395608 0.260551
v 2.123521 -0.572508 -1.812426
v 0.354798 -3.236550 -0.294885
v 0.308496 -2.688338 -1.733937
v 1.797803 -3.273724 -0.456835
v 1.748045 -2.672390 -1.854831
v 0.889427 -3.151443 -1.118229
v 0.877709 -3.009830 -1.447454
v 1.211172 -3.153085 -1.130386
v 1.199454 -3.011472 -1.459612
v 1.218877 -3.884422 -1.666628
v 1.230078 -3.967321 -1.317940
v 0.908329 -3.976273 -1.309732
v 0.897127 -3.893373 -1.658420
v 1.501614 -4.770542 -2.038502
v 1.505211 -4.515526 -1.490699
v 0.653580 -4.486138 -1.458609
v 0.637726 -4.344999 -1.928894
v 0.959399 -4.356725 -0.602542
v 1.236181 -4.342587 -0.608072
v 0.740811 -4.648874 -0.664977
v 1.467338 -4.628663 -0.683511
v 1.358803 1.790030 -0.907989
v 1.397411 1.734875 0.832838
v 0.440427 3.199336 -0.172870
v 2.205927 0.671475 -1.448403
v 1.742395 0.953373 -1.356553
v 1.797117 0.881478 1.049703
v 2.311676 2.384740 -0.093781
v 2.243691 2.378191 -1.003759
v 3.066608 2.675514 -0.256231
v 5.152631 0.021600 -1.290422
v 2.641907 0.831452 -1.547639
v 5.656036 0.585998 -0.078479
v 5.630972 0.645291 -1.161783
v 4.973346 1.056238 -0.296618
v 5.077765 1.252161 -0.678152
v 0.000000 0.659971 -2.353794
v 0.001680 -0.967873 0.693710
v -0.011687 -0.862936 -2.190542
v 0.019289 0.095489 1.295836
v -0.000000 1.618504 -1.958405
v 0.014547 1.469211 1.295571
v -0.011559 3.265537 -0.517340
v -0.418864 3.202837 -0.157395
v 0.000000 0.061724 -2.536163
v 0.021490 0.508109 1.521277
v -0.000000 3.089544 0.160486
v 0.418864 3.203733 -0.156192
v -0.000000 3.119742 -0.514104
v -0.339961 4.360894 -0.617357
v 0.000000 4.478095 -0.382062
v 0.339961 4.366062 -0.618945
v 0.000000 3.985499 -0.881481
v -0.339960 5.869290 -0.915276
v 0.000000 5.817427 -0.644208
v 0.339961 5.869290 -0.915276
v 0.000000 5.819726 -1.299693
v -0.339961 7.648470 -0.566761
v 0.000000 7.405439 -0.353689
v 0.339961 7.648027 -0.567149
v 0.000000 8.116907 -0.738169
v -0.418865 9.037377 0.343687
v -0.000000 8.755237 0.533484
v 0.418864 9.037377 0.343687
v -0.000000 9.282389 0.066390
vn -0.3322 -0.0396 0.9424
vn -0.9954 -0.0643 0.0709
vn -0.8812 0.4028 -0.2474
vn 0.1814 0.6967 0.6940
vn 0.9492 -0.3110 0.0475
vn -0.0094 -0.5539 0.8325
vn -0.3645 -0.7160 0.5954
vn 0.2211 -0.7823 0.5823
vn -0.0602 -0.5816 0.8112
vn -0.0753 -0.9417 0.3279
vn -0.1368 0.5625 0.8154
vn -0.9617 -0.2679 0.0587
vn -0.0154 0.8059 -0.5918
vn 0.9539 0.2943 -0.0581
vn 0.1889 -0.7425 -0.6427
vn -0.9486 0.1872 0.2552
vn -0.1869 0.7847 -0.5910
vn 0.7938 0.4933 0.3557
vn 0.0782 -0.6392 0.7651
vn 0.7604 0.4685 0.4498
vn -0.9152 0.1589 0.3703
vn 0.1611 -0.7600 -0.6296
vn -0.4229 0.6359 -0.6456
vn -0.9895 0.1355 -0.0512
vn -0.4374 0.3782 -0.8158
vn -0.1972 0.6446 -0.7386
vn -0.3086 0.8653 -0.3951
vn -0.3174 0.3292 0.8893
vn -0.9034 0.4288 0.0076
vn 0.4064 -0.5294 0.7447
vn 0.3305 -0.4856 0.8093
vn -0.0184 0.9237 0.3827
vn -0.6224 0.1522 0.7678
vn -0.4110 -0.9116 -0.0041
vn -0.4291 0.4842 -0.7625
vn -0.5406 0.8386 -0.0674
vn -0.5120 0.3472 -0.7857
vn -0.1990 0.4765 0.8564
vn 0.1489 -0.9735 -0.1736
vn 0.2529 0.3316 0.9089
vn -0.3748 0.8959 0.2386
vn -0.2352 0.6963 -0.6781
vn -0.2919 0.5499 0.7826
vn -0.5449 -0.0693 0.8357
vn -0.0316 -0.8497 -0.5264
vn -0.2559 -0.2196 -0.9414
vn -0.3546 0.5399 -0.7634
vn 0.0533 -0.5159 0.8550
vn 0.9801 -0.1699 -0.1030
vn 0.9296 0.3538 0.1034
vn 0.1021 -0.3793 0.9196
vn -0.9869 -0.1609 -0.0107
vn 0.0334 -0.2245 0.9739
vn 0.2651 -0.8823 -0.3889
vn -0.3486 -0.8770 -0.3307
vn -0.0351 -0.9902 -0.1349
vn -0.0466 -0.7181 -0.6944
vn -0.0232 0.8817 0.4712
vn 0.9993 0.0284 -0.0244
vn -0.0334 0.2307 -0.9725
vn -0.9993 -0.0282 0.0245
vn -0.2460 -0.9627 0.1124
vn 0.9162 0.3905 -0.0901
vn 0.0627 0.4329 -0.8993
vn -0.8974 0.4172 0.1438
vn 0.0312 -0.2312 0.9724
vn -0.8623 0.4455 0.2407
vn 0.8641 0.4736 0.1706
vn -0.0112 -0.9855 -0.1695
vn 0.4645 0.6031 -0.6485
vn 0.9893 0.1451 -0.0116
vn 0.5765 0.2861 -0.7654
vn -0.2898 0.2874 -0.9129
vn 0.3326 0.8609 0.3850
vn 0.2205 0.2775 0.9351
vn 0.9069 0.4213 -0.0075
vn -0.4544 -0.5737 0.6815
vn 0.2709 -0.2565 0.9278
vn -0.0281 0.2958 0.9548
vn 0.6613 0.0105 0.7501
vn 0.5519 -0.8330 -0.0375
vn 0.3442 0.6787 -0.6488
vn 0.6679 0.7263 0.1627
vn 0.2437 0.4078 -0.8800
vn 0.2719 0.6410 0.7178
vn -0.4009 -0.9048 -0.1440
vn 0.1510 0.1535 0.9765
vn 0.5690 0.6578 0.4935
vn 0.1532 0.8487 -0.5062
vn 0.1603 0.5696 0.8061
vn 0.2332 0.0777 0.9693
vn 0.0804 -0.1057 -0.9911
vn 0.3676 0.2386 -0.8988
vn 0.2644 0.7094 -0.6533
vn 0.1809 0.4979 0.8482
vn 0.5932 0.0586 0.8030
vn -0.5595 0.3186 0.7652
vn -0.6987 -0.2472 -0.6714
vn 0.6995 -0.2472 -0.6705
vn 0.5579 0.3192 0.7661
vn 0.7283 -0.1435 -0.6701
vn 0.6001 0.1542 0.7849
vn -0.5996 0.1544 0.7852
vn -0.7286 -0.1435 -0.6698
vn 0.6154 -0.1469 0.7744
vn -0.6152 -0.1470 0.7745
vn -0.6818 0.1594 -0.7139
vn 0.6817 0.1594 -0.7141
vn -0.7082 0.3783 -0.5961
vn 0.7082 0.3784 -0.5961
vn 0.6383 -0.4352 0.6349
vn -0.6383 -0.4352 0.6350
vt 0.203125 0.375000
vt 0.109375 0.375000
vt 0.109375 0.062500
vt 0.203125 0.062500
vt 0.218750 0.375000
vt 0.218750 0.187500
vt 0.265625 0.250000
vt 0.265625 0.375000
vt 0.250000 0.144531
vt 0.226074 0.289062
vt 0.250000 0.250000
vt 0.328125 0.375000
vt 0.281250 0.312500
vt 0.328125 0.312500
vt 0.359375 0.250000
vt 0.343750 0.250000
vt 0.343750 0.062500
vt 0.359375 0.062500
vt 0.312500 0.187500
vt 0.312500 0.125000
vt 0.328125 0.062500
vt 0.328125 0.250000
vt 0.296875 0.125000
vt 0.296875 0.187500
vt 0.281250 0.250000
vt 0.281250 0.062500
vt 0.437500 0.187500
vt 0.437500 0.250000
vt 0.406250 0.250000
vt 0.406250 0.187500
vt 0.375000 0.250000
vt 0.375000 0.062500
vt 0.484375 0.375000
vt 0.468750 0.375000
vt 0.468750 0.312500
vt 0.484375 0.312500
vt 0.453125 0.250000
vt 0.453125 0.375000
vt 0.437500 0.375000
vt 0.453125 0.187500
vt 0.484375 0.125000
vt 0.437500 0.062500
vt 0.453125 0.062500
vt 0.390625 0.312500
vt 0.390625 0.125000
vt 0.406250 0.062500
vt 0.406250 0.375000
vt 0.453125 0.312500
vt 0.500000 0.187500
vt 0.562500 0.187500
vt 0.500000 0.500000
vt 0.500000 0.375000
vt 0.625000 0.062500
vt 0.578125 0.062500
vt 0.578125 0.187500
vt 0.625000 0.187500
vt 0.500000 0.062500
vt 0.562500 0.062500
vt 0.562500 0.375000
vt 0.609375 0.875000
vt 0.671875 0.875000
vt 0.640625 1.000000
vt 0.765625 0.437500
vt 0.718750 0.437500
vt 0.718750 0.250000
vt 0.765625 0.250000
vt 0.687500 0.437500
vt 0.640625 0.250000
vt 0.640625 0.437500
vt 0.593750 1.000000
vt 0.578125 1.000000
vt 0.578125 0.625000
vt 0.000000 0.062500
vt 0.093750 0.500000
vt 0.265625 0.500000
vt 0.578125 0.312500
vt 0.625000 0.312500
vt 0.562500 0.500000
vt 0.625000 0.375000
vt 0.656250 0.562500
vt 0.609375 0.562500
vt 0.609375 0.750000
vt 0.656250 0.750000
vt 0.468750 1.000000
vt 0.468750 0.625000
vt 0.625000 0.500000
vt 0.218750 0.062500
vt 0.265625 0.062500
vt 0.000000 0.375000
vt 0.093750 0.375000
vt 0.093750 0.062500
vt 0.765625 0.875000
vt 0.765625 1.000000
vt 0.281250 0.375000
vt 0.671875 0.500000
vt 0.687500 0.500000
vt 0.687500 0.625000
vt 0.671875 0.625000
vt 0.703125 0.500000
vt 0.703125 0.625000
vt 0.687500 0.812500
vt 0.671875 0.812500
vt 0.703125 0.812500
vt 0.734375 0.500000
vt 0.750000 0.500000
vt 0.750000 0.687500
vt 0.734375 0.687500
vt 0.718750 0.500000
vt 0.718750 0.687500
vt 0.750000 0.812500
vt 0.734375 0.812500
vt 0.718750 0.812500
s 0
usemtl Material
f 83/1/1 1/2/1 3/3/1 81/4/1
f 3/5/2 4/6/2 8/7/2 7/8/2
f 4/9/3 3/10/3 1/11/3 2/11/3
f 81/11/4 3/10/4 7/7/4 5/7/4
f 82/12/5 81/13/5 5/13/5 6/14/5
f 9/15/6 11/16/6 14/17/6 15/18/6
f 12/19/7 11/20/7 7/21/7 8/22/7
f 9/23/8 10/24/8 6/25/8 5/26/8
f 11/20/9 9/23/9 5/26/9 7/21/9
f 10/24/10 12/19/10 8/22/10 6/25/10
f 15/27/11 14/28/11 22/29/11 21/30/11
f 11/31/12 12/15/12 13/18/12 14/32/12
f 12/15/13 10/16/13 16/17/13 13/18/13
f 10/31/14 9/15/14 15/18/14 16/32/14
f 20/33/15 19/34/15 18/35/15 17/36/15
f 14/28/16 13/37/16 17/38/16 18/39/16
f 13/37/17 16/40/17 20/41/17 17/36/17
f 16/40/18 15/27/18 19/42/18 20/43/18
f 21/30/19 22/29/19 24/44/19 23/45/19
f 19/42/20 15/27/20 21/30/20 23/46/20
f 14/28/21 18/39/21 24/47/21 22/29/21
f 18/35/22 19/34/22 23/38/22 24/48/22
f 84/49/23 25/50/23 27/51/23 86/52/23
f 2/53/24 1/54/24 26/55/24 25/56/24
f 80/57/25 2/58/25 25/50/25 84/49/25
f 27/51/26 25/50/26 33/59/26
f 1/60/27 2/61/27 29/62/27
f 85/63/28 26/64/28 31/65/28 89/66/28
f 26/64/29 25/67/29 30/68/29 31/65/29
f 84/69/30 25/67/30 30/68/30
f 25/70/31 33/71/31 36/72/31
f 27/73/32 28/73/32 90/73/32 87/73/32
f 67/74/33 86/75/33 92/75/33 91/74/33
f 25/56/34 26/55/34 32/76/34 33/77/34
f 34/78/35 33/59/35 40/79/35
f 39/80/36 40/81/36 38/82/36 37/83/36
f 40/84/37 33/71/37 36/72/37 35/85/37
f 26/50/38 28/52/38 32/59/38
f 33/79/39 32/86/39 39/78/39 40/59/39
f 32/59/40 34/78/40 39/79/40
f 34/78/41 40/86/41 39/79/41
f 34/78/42 27/51/42 33/59/42
f 26/50/43 85/49/43 28/52/43
f 1/58/44 83/57/44 85/49/44 26/50/44
f 4/6/45 82/87/45 6/88/45 8/7/45
f 2/89/46 80/90/46 82/91/46 4/73/46
f 2/61/47 80/92/47 88/93/47 29/62/47
f 83/1/48 81/4/48 43/3/48 41/2/48
f 43/5/49 47/87/49 48/88/49 44/8/49
f 44/11/50 42/11/50 41/11/50 43/11/50
f 81/5/51 45/87/51 47/88/51 43/8/51
f 82/12/52 46/94/52 45/13/52 81/14/52
f 49/16/53 55/17/53 54/18/53 51/15/53
f 52/23/54 48/26/54 47/21/54 51/20/54
f 49/19/55 45/22/55 46/25/55 50/24/55
f 51/20/56 47/21/56 45/22/56 49/19/56
f 50/24/57 46/25/57 48/26/57 52/23/57
f 55/28/58 61/29/58 62/30/58 54/27/58
f 51/15/59 54/18/59 53/32/59 52/31/59
f 52/16/60 53/17/60 56/18/60 50/15/60
f 50/15/61 56/18/61 55/32/61 49/31/61
f 60/36/62 57/33/62 58/34/62 59/35/62
f 54/27/63 58/42/63 57/43/63 53/40/63
f 53/40/64 57/41/64 60/36/64 56/37/64
f 56/37/65 60/38/65 59/39/65 55/28/65
f 61/29/66 63/44/66 64/45/66 62/30/66
f 59/39/67 63/47/67 61/29/67 55/28/67
f 54/27/68 62/30/68 64/46/68 58/42/68
f 58/34/69 64/38/69 63/48/69 59/35/69
f 84/49/70 86/52/70 67/51/70 65/50/70
f 42/53/71 65/77/71 66/76/71 41/54/71
f 80/57/72 84/49/72 65/50/72 42/58/72
f 67/51/73 72/59/73 65/50/73
f 41/60/74 68/62/74 42/61/74
f 85/63/75 89/66/75 70/65/75 66/64/75
f 66/64/76 70/65/76 69/68/76 65/67/76
f 84/69/77 69/68/77 65/67/77
f 65/70/78 75/72/78 72/71/78
f 34/78/79 32/59/79 28/52/79 27/51/79
f 86/75/80 27/74/80 87/74/80 92/75/80
f 65/51/81 72/78/81 71/59/81 66/52/81
f 73/78/82 79/79/82 72/59/82
f 78/80/83 76/83/83 77/82/83 79/81/83
f 79/84/84 74/85/84 75/72/84 72/71/84
f 66/50/85 71/59/85 28/52/85
f 72/78/86 79/86/86 78/79/86 71/59/86
f 71/59/87 78/79/87 73/78/87
f 73/78/88 78/79/88 79/86/88
f 73/78/89 72/59/89 67/51/89
f 66/50/90 28/52/90 85/49/90
f 41/58/91 66/50/91 85/49/91 83/57/91
f 44/8/92 48/5/92 46/87/92 82/88/92
f 42/89/93 44/73/93 82/91/93 80/90/93
f 42/61/94 68/62/94 88/93/94 80/92/94
f 28/52/95 71/59/95 73/78/95 67/51/95
f 28/95/96 67/73/96 91/73/96 90/95/96
f 87/95/97 90/96/97 94/97/97 93/98/97
f 92/96/98 87/99/98 93/100/98 96/97/98
f 91/95/99 92/96/99 96/97/99 95/98/99
f 90/96/100 91/99/100 95/100/100 94/97/100
f 95/98/101 96/97/101 100/101/101 99/102/101
f 94/97/102 95/100/102 99/103/102 98/101/102
f 93/98/103 94/97/103 98/101/103 97/102/103
f 96/97/104 93/100/104 97/103/104 100/101/104
f 98/104/105 99/105/105 103/106/105 102/107/105
f 97/108/106 98/104/106 102/107/106 101/109/106
f 100/104/107 97/105/107 101/106/107 104/107/107
f 99/108/108 100/104/108 104/107/108 103/109/108
f 104/107/109 101/106/109 105/110/109 108/111/109
f 103/109/110 104/107/110 108/111/110 107/112/110
f 102/107/111 103/106/111 107/110/111 106/111/111
f 101/109/112 102/107/112 106/111/112 105/112/112
o Icosphere
v 1.252045 9.275347 1.359042
v 1.260388 9.802768 1.304936
v 0.711762 9.783175 0.310068
v 0.741920 11.314780 1.728981
v 1.143703 10.768381 0.584072
v 0.703418 9.268877 0.226916
v 0.761418 9.336669 0.157811
v 1.360957 9.740591 1.339848
v 0.770399 9.729803 0.217240
v 1.351976 9.350879 1.381733
v 0.424926 9.033379 0.118939
v 1.523743 8.529231 1.351293
v 1.438415 11.115272 1.297279
v 0.174381 11.356756 2.599691
v -1.279175 9.271253 1.356349
v -1.287519 9.800429 1.305269
v -0.738894 9.784170 0.311080
v -0.769053 11.313988 1.729738
v -1.170836 10.768370 0.584439
v -0.730549 9.282775 0.221261
v -0.788549 9.349555 0.155428
v -1.388088 9.737823 1.339963
v -0.797531 9.732713 0.219190
v -1.379106 9.347097 1.379753
v -0.452057 9.058618 0.086842
v -1.550873 8.525868 1.342504
v -1.465548 11.112550 1.300430
v -0.201514 11.352860 2.601350
v -0.013565 10.061661 2.532690
v -0.013565 9.525655 2.614663
v -0.013567 11.065181 0.080399
v -0.013567 11.584363 0.980334
v -0.013565 10.009715 2.652664
v -0.013565 9.613955 2.710495
v -0.013564 9.321976 3.560675
v -0.013563 8.550800 4.330108
vn 0.4957 0.8226 -0.2785
vn 0.8512 -0.2440 -0.4646
vn 0.6975 0.0385 0.7156
vn 0.9422 0.2659 0.2037
vn 0.8932 -0.0104 -0.4495
vn 0.4367 -0.6868 0.5811
vn 0.5978 -0.7502 -0.2825
vn 0.6809 -0.6557 -0.3262
vn 0.0011 -1.0000 0.0078
vn 0.7703 0.2864 -0.5697
vn 0.8201 0.3672 0.4389
vn 0.6999 0.0821 0.7095
vn 0.5118 0.8312 -0.2171
vn 0.4025 0.7929 -0.4575
vn 0.4134 0.0712 -0.9078
vn 0.3731 0.9070 0.1953
vn 0.4634 0.8299 0.3106
vn -0.6902 0.1131 -0.7147
vn -0.4931 0.8257 -0.2740
vn 0.0006 0.8697 -0.4936
vn -0.8507 -0.2441 -0.4655
vn -0.6974 0.0382 0.7157
vn -0.9423 0.2655 0.2040
vn 0.0001 0.5398 0.8418
vn -0.0003 0.9408 0.3391
vn 0.0009 0.1567 -0.9876
vn -0.8931 -0.0068 -0.4498
vn -0.4357 -0.6874 0.5811
vn -0.5965 -0.7475 -0.2924
vn -0.6837 -0.6473 -0.3370
vn 0.0223 0.4663 -0.8843
vn -0.7776 0.2938 -0.5559
vn -0.8213 0.3654 0.4381
vn -0.7002 0.0801 0.7095
vn -0.5121 0.8312 -0.2164
vn -0.4026 0.7929 -0.4574
vn -0.4135 0.0707 -0.9078
vn -0.0008 -0.1768 -0.9842
vn -0.3760 0.9059 0.1950
vn -0.4653 0.8287 0.3112
vn 0.6897 0.1145 -0.7150
vn -0.0045 -0.7081 -0.7061
vn -0.0011 -0.9230 -0.3847
vt 0.312500 0.750000
vt 0.312500 0.437500
vt 0.328125 0.500000
vt 0.328125 0.750000
vt 0.437500 0.750000
vt 0.437500 0.937500
vt 0.421875 0.812500
vt 0.437500 0.500000
vt 0.421875 0.625000
vt 0.453125 0.437500
vt 0.281250 0.562500
vt 0.296875 0.687500
vt 0.281250 0.687500
vt 0.218750 0.875000
vt 0.250000 0.750000
vt 0.250000 1.000000
vt 0.203125 0.937500
vt 0.187500 0.937500
vt 0.187500 0.812500
vt 0.156250 0.937500
vt 0.156250 0.812500
vt 0.390625 0.750000
vt 0.390625 0.812500
vt 0.125000 0.750000
vt 0.203125 0.750000
vt 0.203125 0.562500
vt -0.000000 0.562500
vt 0.109375 0.562500
vt 0.109375 1.000000
vt -0.000000 1.000000
vt 0.312500 1.000000
vt 0.328125 0.937500
vt 0.453125 1.000000
vt 0.343750 0.750000
vt 0.375000 0.625000
vt 0.234375 0.562500
vt 0.234375 0.687500
vt 0.218750 0.687500
vt 0.125000 0.937500
vt 0.140625 0.812500
vt 0.140625 0.937500
vt 0.296875 0.750000
vt 0.296875 1.000000
s 0
usemtl Material.001
f 111/113/113 110/114/113 116/115/113 117/116/113
f 110/117/114 111/118/114 113/119/114
f 137/120/115 110/117/115 112/121/115
f 110/117/116 113/119/116 112/121/116
f 117/116/117 116/115/117 118/114/117 115/113/117
f 138/120/118 109/115/118 118/114/118 142/122/118
f 109/115/119 114/116/119 115/113/119 118/114/119
f 114/123/120 109/124/120 119/125/120
f 144/126/121 134/127/121 120/128/121
f 119/129/122 109/130/122 120/131/122
f 109/130/123 143/132/123 144/133/123 120/131/123
f 116/115/124 141/120/124 142/122/124 118/114/124
f 112/121/125 113/119/125 140/134/125
f 113/119/126 139/135/126 140/134/126
f 111/118/127 139/135/127 113/119/127
f 109/136/128 138/137/128 143/138/128
f 110/114/129 137/122/129 141/120/129 116/115/129
f 110/139/130 137/140/130 122/141/130 121/142/130
f 125/143/131 131/144/131 130/118/131 124/145/131
f 111/113/132 117/116/132 131/144/132 125/143/132
f 124/146/133 127/144/133 125/115/133
f 137/120/134 126/147/134 124/115/134
f 124/115/135 126/147/135 127/146/135
f 137/120/136 112/121/136 126/147/136
f 112/121/137 140/134/137 126/147/137
f 117/116/138 115/113/138 129/143/138 131/144/138
f 131/144/139 129/143/139 132/145/139 130/118/139
f 138/120/140 142/122/140 132/145/140 123/118/140
f 123/118/141 132/145/141 129/143/141 128/144/141
f 128/148/142 133/149/142 123/150/142
f 114/123/143 119/125/143 133/149/143 128/148/143
f 133/151/144 134/152/144 123/153/144
f 123/153/145 134/152/145 144/133/145 143/132/145
f 130/118/146 132/145/146 142/122/146 141/120/146
f 126/147/147 140/134/147 127/146/147
f 127/146/148 140/134/148 139/135/148
f 125/144/149 127/146/149 139/135/149
f 125/144/150 139/135/150 111/118/150
f 123/136/151 143/138/151 138/137/151
f 124/145/152 130/118/152 141/120/152 137/122/152
f 124/140/153 135/141/153 136/142/153 137/139/153
f 128/144/154 129/143/154 115/113/154 114/116/154
f 120/128/155 134/127/155 133/154/155 119/155/155
o BezierCircle
v -26.683170 10.649023 -1.546623
v -26.439865 10.566792 -5.096894
v -25.731138 10.327261 -8.502262
v -24.588779 9.941174 -11.731503
v -23.044582 9.419273 -14.753392
v -21.130333 8.772306 -17.536705
v -18.877823 8.011015 -20.050215
v -16.318838 7.146144 -22.262699
v -13.485172 6.188437 -24.142933
v -10.408615 5.148640 -25.659693
v -7.120955 4.037494 -26.781750
v -3.653981 2.865746 -27.477882
v -0.039484 1.644138 -27.716871
v 3.575013 0.422530 -27.477888
v 7.041987 -0.749218 -26.781755
v 10.329647 -1.860364 -25.659697
v 13.406204 -2.900162 -24.142939
v 16.239868 -3.857868 -22.262705
v 18.798851 -4.722738 -20.050219
v 21.051361 -5.484029 -17.536705
v 22.965611 -6.130996 -14.753392
v 24.509808 -6.652895 -11.731503
v 25.652164 -7.038984 -8.502262
v 26.360889 -7.278514 -5.096893
v 26.604202 -7.360748 -1.546623
v 26.360897 -7.278516 2.003647
v 25.652170 -7.038985 5.409015
v 24.509811 -6.652897 8.638256
v 22.965614 -6.130998 11.660146
v 21.051365 -5.484031 14.443458
v 18.798855 -4.722739 16.956968
v 16.239870 -3.857868 19.169453
v 13.406204 -2.900162 21.049686
v 10.329647 -1.860364 22.566446
v 7.041987 -0.749218 23.688503
v 3.575013 0.422530 24.384636
v -0.039484 1.644138 24.623625
v -3.653981 2.865746 24.384642
v -7.120955 4.037494 23.688509
v -10.408615 5.148640 22.566450
v -13.485172 6.188437 21.049692
v -16.318836 7.146143 19.169458
v -18.877819 8.011014 16.956972
v -21.130329 8.772305 14.443460
v -23.044579 9.419271 11.660146
v -24.588776 9.941172 8.638256
v -25.731133 10.327259 5.409015
v -26.439857 10.566790 2.003647
l 145 146
l 146 147
l 147 148
l 148 149
l 149 150
l 150 151
l 151 152
l 152 153
l 153 154
l 154 155
l 155 156
l 156 157
l 157 158
l 158 159
l 159 160
l 160 161
l 161 162
l 162 163
l 163 164
l 164 165
l 165 166
l 166 167
l 167 168
l 168 169
l 169 170
l 170 171
l 171 172
l 172 173
l 173 174
l 174 175
l 175 176
l 176 177
l 177 178
l 178 179
l 179 180
l 180 181
l 181 182
l 182 183
l 183 184
l 184 185
l 185 186
l 186 187
l 187 188
l 188 189
l 189 190
l 190 191
l 191 192
l 192 145
