# Blender 3.6.4
# www.blender.org
mtllib ost47.mtl
o Cube
v -1.651682 0.059444 0.977018
v -1.529100 0.673207 -1.389385
v -2.168924 -1.189959 0.451308
v -2.148602 -0.847057 -1.761996
v -0.334231 -3.123920 0.260515
v -0.319635 -2.896278 -1.255361
v -1.775595 -3.162909 0.200138
v -1.760834 -2.911842 -1.301600
v -0.882881 -3.200320 -0.492107
v -0.879405 -3.141194 -0.845764
v -1.204797 -3.205301 -0.496104
v -1.201320 -3.146175 -0.849761
v -1.219220 -4.043345 -0.842405
v -1.222160 -4.040792 -0.483845
v -0.900253 -4.047043 -0.481160
v -0.897313 -4.049595 -0.839721
v -1.502897 -5.077091 -1.021673
v -1.498029 -4.636470 -0.519141
v -0.645302 -4.577312 -0.510150
v -0.640766 -4.554338 -1.001324
v -0.933082 -4.248116 0.297276
v -1.210011 -4.236121 0.294920
v -0.713893 -4.546395 0.301196
v -1.440775 -4.532282 0.295135
v -1.369661 1.807887 -0.988238
v -1.329032 1.737746 0.774433
v -0.487423 3.183235 -0.105482
v 0.002573 3.084544 0.157991
v -2.234129 0.475254 -1.673693
v -1.757164 0.959579 -1.424317
v -1.708111 0.876274 1.000573
v -2.119644 1.969887 0.201358
v -2.223900 2.061769 -0.407507
v -2.948091 2.389690 0.262861
v -5.135329 -0.258798 1.008244
v -2.633240 0.412892 -1.173727
v -5.368978 0.830724 1.907680
v -5.591365 0.395732 0.938651
v -4.766457 1.097418 1.359392
v -4.959819 1.109033 0.962739
v 1.685360 -0.268310 1.032104
v 1.503428 0.808164 -1.094593
v 2.200535 -1.412204 0.230338
v 2.116416 -0.533130 -1.817261
v 0.368371 -3.243781 -0.362832
v 0.311813 -2.658068 -1.786911
v 1.812625 -3.272454 -0.541439
v 1.751288 -2.630368 -1.920726
v 0.899639 -3.135558 -1.193557
v 0.885194 -2.984348 -1.518376
v 1.221309 -3.135117 -1.207656
v 1.206864 -2.983907 -1.532475
v 1.229560 -3.850260 -1.765292
v 1.243302 -3.943347 -1.419276
v 0.921659 -3.954262 -1.409439
v 0.907917 -3.861175 -1.755454
v 1.505709 -4.345263 -2.042191
v 1.518732 -4.431874 -1.592912
v 0.668662 -4.460874 -1.571801
v 0.649011 -4.296710 -2.034697
v 0.978982 -4.355131 -0.714105
v 1.255648 -4.339351 -0.720847
v 0.761538 -4.646479 -0.783849
v 1.487825 -4.621833 -0.806063
v 1.348310 1.779852 -0.897193
v 1.377400 1.715940 0.841609
v 0.461589 3.195393 -0.166567
v 2.193998 0.695755 -1.420590
v 1.722840 0.943222 -1.347969
v 1.768112 0.860812 1.055532
v 2.257673 2.238616 -0.014361
v 2.239171 2.250216 -0.921669
v 3.023384 2.429874 -0.126334
v 4.831607 -0.396593 -1.228742
v 2.559888 0.753317 -1.516440
v 5.287739 -0.009928 0.068276
v 5.373029 0.141236 -1.002969
v 4.696344 0.567069 -0.159984
v 4.861116 0.777290 -0.511432
v 0.000000 0.659971 -2.353794
v 0.003919 -1.071865 0.683102
v -0.005254 -0.715602 -2.249225
v 0.007264 -0.071971 1.403316
v -0.000000 1.618504 -1.958405
v 0.004441 1.428161 1.373650
v -0.012099 3.271563 -0.519419
v -0.414176 3.212874 -0.177834
v 0.000000 0.061724 -2.536163
v 0.014086 0.452698 1.570815
v -0.011551 3.101373 0.156638
v 0.383647 3.138887 -0.018299
v 0.073497 3.024452 -0.459933
v 0.152963 4.189153 -0.962087
v 0.395788 4.250431 -0.615371
v 0.775285 4.078136 -0.711356
v 0.443538 3.707223 -0.991904
v 0.527302 5.656856 -1.161712
v 0.724646 5.550684 -0.785515
v 1.145261 5.534009 -0.906118
v 0.972947 5.537838 -1.392020
v 0.597479 7.335971 -0.524339
v 0.792294 7.011662 -0.246875
v 1.215601 7.212642 -0.269370
v 1.008373 7.752695 -0.413131
v 0.231073 8.416799 0.671124
v 0.517088 8.023558 0.904857
v 0.992458 8.265439 0.986039
v 0.740444 8.646724 0.664353
vn -0.1525 -0.4516 0.8791
vn -0.9806 -0.1918 -0.0399
vn -0.9294 0.3660 0.0475
vn -0.0723 -0.1656 0.9835
vn 0.9878 -0.1549 -0.0191
vn -0.0103 0.0140 0.9998
vn -0.2675 -0.9499 -0.1614
vn 0.3156 -0.9384 -0.1409
vn 0.0219 -0.9964 0.0820
vn 0.0240 -0.8736 -0.4860
vn 0.0274 0.9686 0.2469
vn -0.9998 0.0203 -0.0074
vn 0.0104 -0.0076 -0.9999
vn 0.9998 -0.0200 0.0074
vn 0.2928 -0.8815 0.3704
vn -0.9243 0.3402 -0.1730
vn -0.0757 0.2170 -0.9732
vn 0.8977 0.4402 0.0185
vn -0.0082 0.0071 0.9999
vn 0.8643 0.4913 0.1077
vn -0.8687 0.4909 0.0659
vn 0.0276 -0.9962 0.0830
vn -0.4481 0.6214 -0.6427
vn -0.9857 0.1683 0.0083
vn -0.5054 0.3402 -0.7930
vn -0.2913 0.6420 -0.7092
vn -0.3446 0.9129 0.2189
vn -0.2871 0.2696 0.9192
vn -0.9135 0.4053 0.0344
vn 0.4260 -0.5599 0.7107
vn 0.3985 -0.4660 0.7899
vn -0.1066 0.8775 0.4676
vn -0.6579 0.4139 0.6292
vn -0.2832 -0.9578 -0.0481
vn -0.5180 0.4008 -0.7557
vn -0.6333 0.7725 -0.0467
vn -0.5972 0.2941 -0.7462
vn -0.3206 0.6376 0.7005
vn 0.2437 -0.9548 -0.1704
vn 0.2606 0.3846 0.8855
vn -0.4574 0.8540 0.2480
vn -0.3167 0.6710 -0.6704
vn -0.2195 0.5771 0.7866
vn -0.3093 0.1002 0.9457
vn -0.1024 -0.3239 -0.9405
vn -0.3672 0.1640 -0.9156
vn -0.2694 0.6533 -0.7076
vn 0.0972 -0.5606 0.8223
vn 0.9804 -0.1615 -0.1133
vn 0.9285 0.3556 0.1074
vn 0.1156 -0.4088 0.9053
vn -0.9868 -0.1606 -0.0198
vn 0.0404 -0.2529 0.9666
vn 0.2673 -0.8690 -0.4164
vn -0.3503 -0.8681 -0.3516
vn -0.0333 -0.9865 -0.1605
vn -0.0491 -0.6951 -0.7173
vn -0.0249 0.8673 0.4971
vn 0.9990 0.0345 -0.0294
vn -0.0405 0.2591 -0.9650
vn -0.9990 -0.0342 0.0295
vn -0.0155 -0.9643 -0.2645
vn 0.8840 0.4616 0.0745
vn 0.0038 0.5131 -0.8583
vn -0.8971 0.4091 0.1671
vn 0.0383 -0.2596 0.9650
vn -0.8631 0.4336 0.2588
vn 0.8477 0.4897 0.2038
vn 0.0267 -0.9721 -0.2329
vn 0.4745 0.5966 -0.6473
vn 0.9879 0.1548 -0.0083
vn 0.5873 0.2804 -0.7592
vn -0.2065 0.3435 -0.9162
vn 0.3295 0.8534 0.4038
vn 0.2529 0.2643 0.9307
vn 0.9110 0.4123 -0.0018
vn -0.4639 -0.5721 0.6764
vn 0.1971 -0.3252 0.9249
vn -0.0336 0.2873 0.9572
vn 0.5688 0.3721 0.7335
vn 0.4760 -0.8788 -0.0336
vn 0.4607 0.6525 -0.6017
vn 0.7391 0.6104 0.2850
vn 0.3549 0.4431 -0.8232
vn 0.2968 0.6483 0.7011
vn -0.5086 -0.8359 -0.2064
vn 0.1217 0.0914 0.9883
vn 0.6014 0.5293 0.5985
vn 0.2620 0.8532 -0.4511
vn 0.1851 0.5816 0.7922
vn 0.2805 0.0854 0.9561
vn 0.0883 -0.0892 -0.9921
vn 0.3836 0.2856 -0.8782
vn 0.2628 0.7171 -0.6455
vn 0.1854 0.4841 0.8552
vn 0.0241 -0.9688 -0.2466
vn -0.5300 0.6456 0.5498
vn -0.5631 -0.2945 -0.7721
vn 0.7631 -0.5775 -0.2902
vn 0.3637 0.4377 0.8223
vn 0.8558 -0.3093 -0.4147
vn 0.2735 0.0578 0.9601
vn -0.8135 0.2751 0.5124
vn -0.3786 -0.0642 -0.9233
vn 0.2304 -0.3500 0.9080
vn -0.8854 -0.1284 0.4466
vn -0.2547 0.3766 -0.8907
vn 0.8982 0.1474 -0.4141
vn -0.3773 0.6444 -0.6652
vn 0.9122 0.3881 -0.1318
vn 0.2986 -0.6930 0.6562
vn -0.8707 -0.4605 0.1726
vt 0.203125 0.375000
vt 0.109375 0.375000
vt 0.109375 0.062500
vt 0.203125 0.062500
vt 0.218750 0.375000
vt 0.218750 0.187500
vt 0.265625 0.250000
vt 0.265625 0.375000
vt 0.250000 0.144531
vt 0.226074 0.289062
vt 0.250000 0.250000
vt 0.328125 0.375000
vt 0.281250 0.312500
vt 0.328125 0.312500
vt 0.359375 0.250000
vt 0.343750 0.250000
vt 0.343750 0.062500
vt 0.359375 0.062500
vt 0.312500 0.187500
vt 0.312500 0.125000
vt 0.328125 0.062500
vt 0.328125 0.250000
vt 0.296875 0.125000
vt 0.296875 0.187500
vt 0.281250 0.250000
vt 0.281250 0.062500
vt 0.437500 0.187500
vt 0.437500 0.250000
vt 0.406250 0.250000
vt 0.406250 0.187500
vt 0.375000 0.250000
vt 0.375000 0.062500
vt 0.484375 0.375000
vt 0.468750 0.375000
vt 0.468750 0.312500
vt 0.484375 0.312500
vt 0.453125 0.250000
vt 0.453125 0.375000
vt 0.437500 0.375000
vt 0.453125 0.187500
vt 0.484375 0.125000
vt 0.437500 0.062500
vt 0.453125 0.062500
vt 0.390625 0.312500
vt 0.390625 0.125000
vt 0.406250 0.062500
vt 0.406250 0.375000
vt 0.453125 0.312500
vt 0.500000 0.187500
vt 0.562500 0.187500
vt 0.500000 0.500000
vt 0.500000 0.375000
vt 0.625000 0.062500
vt 0.578125 0.062500
vt 0.578125 0.187500
vt 0.625000 0.187500
vt 0.500000 0.062500
vt 0.562500 0.062500
vt 0.562500 0.375000
vt 0.609375 0.875000
vt 0.671875 0.875000
vt 0.640625 1.000000
vt 0.765625 0.437500
vt 0.718750 0.437500
vt 0.718750 0.250000
vt 0.765625 0.250000
vt 0.687500 0.437500
vt 0.640625 0.250000
vt 0.640625 0.437500
vt 0.593750 1.000000
vt 0.578125 1.000000
vt 0.578125 0.625000
vt 0.000000 0.062500
vt 0.093750 0.500000
vt 0.265625 0.500000
vt 0.578125 0.312500
vt 0.625000 0.312500
vt 0.562500 0.500000
vt 0.625000 0.375000
vt 0.656250 0.562500
vt 0.609375 0.562500
vt 0.609375 0.750000
vt 0.656250 0.750000
vt 0.468750 1.000000
vt 0.468750 0.625000
vt 0.625000 0.500000
vt 0.218750 0.062500
vt 0.265625 0.062500
vt 0.000000 0.375000
vt 0.093750 0.375000
vt 0.093750 0.062500
vt 0.765625 0.875000
vt 0.765625 1.000000
vt 0.281250 0.375000
vt 0.671875 0.500000
vt 0.687500 0.500000
vt 0.687500 0.625000
vt 0.671875 0.625000
vt 0.703125 0.500000
vt 0.703125 0.625000
vt 0.687500 0.812500
vt 0.671875 0.812500
vt 0.703125 0.812500
vt 0.734375 0.500000
vt 0.750000 0.500000
vt 0.750000 0.687500
vt 0.734375 0.687500
vt 0.718750 0.500000
vt 0.718750 0.687500
vt 0.750000 0.812500
vt 0.734375 0.812500
vt 0.718750 0.812500
s 0
usemtl Material
f 83/1/1 1/2/1 3/3/1 81/4/1
f 3/5/2 4/6/2 8/7/2 7/8/2
f 4/9/3 3/10/3 1/11/3 2/11/3
f 81/11/4 3/10/4 7/7/4 5/7/4
f 82/12/5 81/13/5 5/13/5 6/14/5
f 9/15/6 11/16/6 14/17/6 15/18/6
f 12/19/7 11/20/7 7/21/7 8/22/7
f 9/23/8 10/24/8 6/25/8 5/26/8
f 11/20/9 9/23/9 5/26/9 7/21/9
f 10/24/10 12/19/10 8/22/10 6/25/10
f 15/27/11 14/28/11 22/29/11 21/30/11
f 11/31/12 12/15/12 13/18/12 14/32/12
f 12/15/13 10/16/13 16/17/13 13/18/13
f 10/31/14 9/15/14 15/18/14 16/32/14
f 20/33/15 19/34/15 18/35/15 17/36/15
f 14/28/16 13/37/16 17/38/16 18/39/16
f 13/37/17 16/40/17 20/41/17 17/36/17
f 16/40/18 15/27/18 19/42/18 20/43/18
f 21/30/19 22/29/19 24/44/19 23/45/19
f 19/42/20 15/27/20 21/30/20 23/46/20
f 14/28/21 18/39/21 24/47/21 22/29/21
f 18/35/22 19/34/22 23/38/22 24/48/22
f 84/49/23 25/50/23 27/51/23 86/52/23
f 2/53/24 1/54/24 26/55/24 25/56/24
f 80/57/25 2/58/25 25/50/25 84/49/25
f 27/51/26 25/50/26 33/59/26
f 1/60/27 2/61/27 29/62/27
f 85/63/28 26/64/28 31/65/28 89/66/28
f 26/64/29 25/67/29 30/68/29 31/65/29
f 84/69/30 25/67/30 30/68/30
f 25/70/31 33/71/31 36/72/31
f 27/73/32 28/73/32 90/73/32 87/73/32
f 67/74/33 86/75/33 92/75/33 91/74/33
f 25/56/34 26/55/34 32/76/34 33/77/34
f 34/78/35 33/59/35 40/79/35
f 39/80/36 40/81/36 38/82/36 37/83/36
f 40/84/37 33/71/37 36/72/37 35/85/37
f 26/50/38 28/52/38 32/59/38
f 33/79/39 32/86/39 39/78/39 40/59/39
f 32/59/40 34/78/40 39/79/40
f 34/78/41 40/86/41 39/79/41
f 34/78/42 27/51/42 33/59/42
f 26/50/43 85/49/43 28/52/43
f 1/58/44 83/57/44 85/49/44 26/50/44
f 4/6/45 82/87/45 6/88/45 8/7/45
f 2/89/46 80/90/46 82/91/46 4/73/46
f 2/61/47 80/92/47 88/93/47 29/62/47
f 83/1/48 81/4/48 43/3/48 41/2/48
f 43/5/49 47/87/49 48/88/49 44/8/49
f 44/11/50 42/11/50 41/11/50 43/11/50
f 81/5/51 45/87/51 47/88/51 43/8/51
f 82/12/52 46/94/52 45/13/52 81/14/52
f 49/16/53 55/17/53 54/18/53 51/15/53
f 52/23/54 48/26/54 47/21/54 51/20/54
f 49/19/55 45/22/55 46/25/55 50/24/55
f 51/20/56 47/21/56 45/22/56 49/19/56
f 50/24/57 46/25/57 48/26/57 52/23/57
f 55/28/58 61/29/58 62/30/58 54/27/58
f 51/15/59 54/18/59 53/32/59 52/31/59
f 52/16/60 53/17/60 56/18/60 50/15/60
f 50/15/61 56/18/61 55/32/61 49/31/61
f 60/36/62 57/33/62 58/34/62 59/35/62
f 54/27/63 58/42/63 57/43/63 53/40/63
f 53/40/64 57/41/64 60/36/64 56/37/64
f 56/37/65 60/38/65 59/39/65 55/28/65
f 61/29/66 63/44/66 64/45/66 62/30/66
f 59/39/67 63/47/67 61/29/67 55/28/67
f 54/27/68 62/30/68 64/46/68 58/42/68
f 58/34/69 64/38/69 63/48/69 59/35/69
f 84/49/70 86/52/70 67/51/70 65/50/70
f 42/53/71 65/77/71 66/76/71 41/54/71
f 80/57/72 84/49/72 65/50/72 42/58/72
f 67/51/73 72/59/73 65/50/73
f 41/60/74 68/62/74 42/61/74
f 85/63/75 89/66/75 70/65/75 66/64/75
f 66/64/76 70/65/76 69/68/76 65/67/76
f 84/69/77 69/68/77 65/67/77
f 65/70/78 75/72/78 72/71/78
f 34/78/79 32/59/79 28/52/79 27/51/79
f 86/75/80 27/74/80 87/74/80 92/75/80
f 65/51/81 72/78/81 71/59/81 66/52/81
f 73/78/82 79/79/82 72/59/82
f 78/80/83 76/83/83 77/82/83 79/81/83
f 79/84/84 74/85/84 75/72/84 72/71/84
f 66/50/85 71/59/85 28/52/85
f 72/78/86 79/86/86 78/79/86 71/59/86
f 71/59/87 78/79/87 73/78/87
f 73/78/88 78/79/88 79/86/88
f 73/78/89 72/59/89 67/51/89
f 66/50/90 28/52/90 85/49/90
f 41/58/91 66/50/91 85/49/91 83/57/91
f 44/8/92 48/5/92 46/87/92 82/88/92
f 42/89/93 44/73/93 82/91/93 80/90/93
f 42/61/94 68/62/94 88/93/94 80/92/94
f 28/52/95 71/59/95 73/78/95 67/51/95
f 28/95/96 67/73/96 91/73/96 90/95/96
f 87/95/97 90/96/97 94/97/97 93/98/97
f 92/96/98 87/99/98 93/100/98 96/97/98
f 91/95/99 92/96/99 96/97/99 95/98/99
f 90/96/100 91/99/100 95/100/100 94/97/100
f 95/98/101 96/97/101 100/101/101 99/102/101
f 94/97/102 95/100/102 99/103/102 98/101/102
f 93/98/103 94/97/103 98/101/103 97/102/103
f 96/97/104 93/100/104 97/103/104 100/101/104
f 98/104/105 99/105/105 103/106/105 102/107/105
f 97/108/106 98/104/106 102/107/106 101/109/106
f 100/104/107 97/105/107 101/106/107 104/107/107
f 99/108/108 100/104/108 104/107/108 103/109/108
f 104/107/109 101/106/109 105/110/109 108/111/109
f 103/109/110 104/107/110 108/111/110 107/112/110
f 102/107/111 103/106/111 107/110/111 106/111/111
f 101/109/112 102/107/112 106/111/112 105/112/112
o Icosphere
v 1.698323 8.209614 1.936470
v 1.793184 8.718291 1.902459
v 1.255040 8.867105 1.088193
v 1.467512 10.228198 2.380533
v 1.685657 9.655769 1.491425
v 1.223503 8.399807 0.930424
v 1.286928 8.455526 0.876241
v 1.883512 8.638240 1.933017
v 1.321052 8.817869 1.004718
v 1.809513 8.262362 1.960719
v 1.052575 8.300787 0.792979
v 1.843066 7.440244 1.916467
v 2.197167 9.954552 1.933001
v 1.061138 10.418450 3.215039
v -0.766436 8.703074 1.887967
v -0.688379 9.216837 1.861521
v -0.118589 9.144192 0.854331
v 0.002430 10.522898 2.321634
v -0.513680 10.097868 1.155820
v -0.127018 8.692200 0.715923
v -0.178612 8.768921 0.665031
v -0.795353 9.176210 1.895875
v -0.163417 9.119688 0.757525
v -0.851245 8.795781 1.917953
v 0.271370 8.500340 0.502221
v -1.137955 8.040259 1.796547
v -0.636009 10.523119 1.910889
v 0.690344 10.487652 3.219546
v 0.650550 9.206299 3.130119
v 0.545218 8.679008 3.200048
v 0.666451 10.210600 0.933188
v 0.597698 10.587597 1.757400
v 0.642128 9.152275 3.248874
v 0.564313 8.763020 3.297814
v 0.519775 8.454773 4.141056
v 0.378614 7.679141 4.892857
vn 0.5776 0.7871 -0.2165
vn 0.8111 -0.1544 -0.5642
vn 0.7175 -0.0648 0.6936
vn 0.9769 0.1693 0.1307
vn 0.8737 -0.0621 -0.4825
vn 0.2918 -0.7764 0.5587
vn 0.4460 -0.8182 -0.3628
vn 0.6868 -0.5827 -0.4343
vn -0.1966 -0.9803 -0.0180
vn 0.8633 0.1747 -0.4736
vn 0.8794 0.2054 0.4294
vn 0.7139 -0.0719 0.6966
vn 0.5596 0.7525 -0.3472
vn 0.5774 0.7596 -0.2993
vn 0.5321 0.1367 -0.8356
vn 0.5549 0.8058 0.2070
vn 0.6253 0.7192 0.3028
vn -0.6659 0.2546 -0.7012
vn -0.3041 0.9254 -0.2260
vn 0.2416 0.9078 -0.3429
vn -0.8579 -0.2067 -0.4704
vn -0.6834 0.1070 0.7222
vn -0.8890 0.3804 0.2549
vn 0.0770 0.5490 0.8323
vn 0.1771 0.9391 0.2945
vn 0.2037 0.2769 -0.9391
vn -0.8684 0.1305 -0.4783
vn -0.5622 -0.6115 0.5567
vn -0.7009 -0.6099 -0.3697
vn -0.5356 -0.7950 -0.2848
vn 0.3040 0.8210 -0.4832
vn -0.6776 0.4590 -0.5746
vn -0.7556 0.4759 0.4501
vn -0.6781 0.1835 0.7117
vn -0.2981 0.9317 -0.2077
vn -0.1647 0.8917 -0.4216
vn -0.2010 0.2186 -0.9549
vn 0.1590 -0.0441 -0.9863
vn -0.2043 0.9535 0.2217
vn -0.2990 0.8959 0.3285
vn 0.6952 0.0138 -0.7187
vn -0.0150 -0.6206 -0.7840
vn -0.1274 -0.8564 -0.5004
vt 0.312500 0.750000
vt 0.312500 0.437500
vt 0.328125 0.500000
vt 0.328125 0.750000
vt 0.437500 0.750000
vt 0.437500 0.937500
vt 0.421875 0.812500
vt 0.437500 0.500000
vt 0.421875 0.625000
vt 0.453125 0.437500
vt 0.281250 0.562500
vt 0.296875 0.687500
vt 0.281250 0.687500
vt 0.218750 0.875000
vt 0.250000 0.750000
vt 0.250000 1.000000
vt 0.203125 0.937500
vt 0.187500 0.937500
vt 0.187500 0.812500
vt 0.156250 0.937500
vt 0.156250 0.812500
vt 0.390625 0.750000
vt 0.390625 0.812500
vt 0.125000 0.750000
vt 0.203125 0.750000
vt 0.203125 0.562500
vt -0.000000 0.562500
vt 0.109375 0.562500
vt 0.109375 1.000000
vt -0.000000 1.000000
vt 0.312500 1.000000
vt 0.328125 0.937500
vt 0.453125 1.000000
vt 0.343750 0.750000
vt 0.375000 0.625000
vt 0.234375 0.562500
vt 0.234375 0.687500
vt 0.218750 0.687500
vt 0.125000 0.937500
vt 0.140625 0.812500
vt 0.140625 0.937500
vt 0.296875 0.750000
vt 0.296875 1.000000
s 0
usemtl Material.001
f 111/113/113 110/114/113 116/115/113 117/116/113
f 110/117/114 111/118/114 113/119/114
f 137/120/115 110/117/115 112/121/115
f 110/117/116 113/119/116 112/121/116
f 117/116/117 116/115/117 118/114/117 115/113/117
f 138/120/118 109/115/118 118/114/118 142/122/118
f 109/115/119 114/116/119 115/113/119 118/114/119
f 114/123/120 109/124/120 119/125/120
f 144/126/121 134/127/121 120/128/121
f 119/129/122 109/130/122 120/131/122
f 109/130/123 143/132/123 144/133/123 120/131/123
f 116/115/124 141/120/124 142/122/124 118/114/124
f 112/121/125 113/119/125 140/134/125
f 113/119/126 139/135/126 140/134/126
f 111/118/127 139/135/127 113/119/127
f 109/136/128 138/137/128 143/138/128
f 110/114/129 137/122/129 141/120/129 116/115/129
f 110/139/130 137/140/130 122/141/130 121/142/130
f 125/143/131 131/144/131 130/118/131 124/145/131
f 111/113/132 117/116/132 131/144/132 125/143/132
f 124/146/133 127/144/133 125/115/133
f 137/120/134 126/147/134 124/115/134
f 124/115/135 126/147/135 127/146/135
f 137/120/136 112/121/136 126/147/136
f 112/121/137 140/134/137 126/147/137
f 117/116/138 115/113/138 129/143/138 131/144/138
f 131/144/139 129/143/139 132/145/139 130/118/139
f 138/120/140 142/122/140 132/145/140 123/118/140
f 123/118/141 132/145/141 129/143/141 128/144/141
f 128/148/142 133/149/142 123/150/142
f 114/123/143 119/125/143 133/149/143 128/148/143
f 133/151/144 134/152/144 123/153/144
f 123/153/145 134/152/145 144/133/145 143/132/145
f 130/118/146 132/145/146 142/122/146 141/120/146
f 126/147/147 140/134/147 127/146/147
f 127/146/148 140/134/148 139/135/148
f 125/144/149 127/146/149 139/135/149
f 125/144/150 139/135/150 111/118/150
f 123/136/151 143/138/151 138/137/151
f 124/145/152 130/118/152 141/120/152 137/122/152
f 124/140/153 135/141/153 136/142/153 137/139/153
f 128/144/154 129/143/154 115/113/154 114/116/154
f 120/128/155 134/127/155 133/154/155 119/155/155
o BezierCircle
v -26.683170 10.649023 -1.546623
v -26.439865 10.566792 -5.096894
v -25.731138 10.327261 -8.502262
v -24.588779 9.941174 -11.731503
v -23.044582 9.419273 -14.753392
v -21.130333 8.772306 -17.536705
v -18.877823 8.011015 -20.050215
v -16.318838 7.146144 -22.262699
v -13.485172 6.188437 -24.142933
v -10.408615 5.148640 -25.659693
v -7.120955 4.037494 -26.781750
v -3.653981 2.865746 -27.477882
v -0.039484 1.644138 -27.716871
v 3.575013 0.422530 -27.477888
v 7.041987 -0.749218 -26.781755
v 10.329647 -1.860364 -25.659697
v 13.406204 -2.900162 -24.142939
v 16.239868 -3.857868 -22.262705
v 18.798851 -4.722738 -20.050219
v 21.051361 -5.484029 -17.536705
v 22.965611 -6.130996 -14.753392
v 24.509808 -6.652895 -11.731503
v 25.652164 -7.038984 -8.502262
v 26.360889 -7.278514 -5.096893
v 26.604202 -7.360748 -1.546623
v 26.360897 -7.278516 2.003647
v 25.652170 -7.038985 5.409015
v 24.509811 -6.652897 8.638256
v 22.965614 -6.130998 11.660146
v 21.051365 -5.484031 14.443458
v 18.798855 -4.722739 16.956968
v 16.239870 -3.857868 19.169453
v 13.406204 -2.900162 21.049686
v 10.329647 -1.860364 22.566446
v 7.041987 -0.749218 23.688503
v 3.575013 0.422530 24.384636
v -0.039484 1.644138 24.623625
v -3.653981 2.865746 24.384642
v -7.120955 4.037494 23.688509
v -10.408615 5.148640 22.566450
v -13.485172 6.188437 21.049692
v -16.318836 7.146143 19.169458
v -18.877819 8.011014 16.956972
v -21.130329 8.772305 14.443460
v -23.044579 9.419271 11.660146
v -24.588776 9.941172 8.638256
v -25.731133 10.327259 5.409015
v -26.439857 10.566790 2.003647
l 145 146
l 146 147
l 147 148
l 148 149
l 149 150
l 150 151
l 151 152
l 152 153
l 153 154
l 154 155
l 155 156
l 156 157
l 157 158
l 158 159
l 159 160
l 160 161
l 161 162
l 162 163
l 163 164
l 164 165
l 165 166
l 166 167
l 167 168
l 168 169
l 169 170
l 170 171
l 171 172
l 172 173
l 173 174
l 174 175
l 175 176
l 176 177
l 177 178
l 178 179
l 179 180
l 180 181
l 181 182
l 182 183
l 183 184
l 184 185
l 185 186
l 186 187
l 187 188
l 188 189
l 189 190
l 190 191
l 191 192
l 192 145
