# Blender 3.6.4
# www.blender.org
mtllib ost42.mtl
o Cube
v -1.592910 0.681609 0.540544
v -1.472743 0.201925 -1.860980
v -2.182526 -0.492240 0.594138
v -2.188257 -1.326239 -1.470456
v -0.473363 -2.388479 1.403509
v -0.480951 -2.932151 0.025720
v -1.929232 -2.247144 1.467439
v -1.933203 -2.856254 0.071932
v -1.057759 -2.717498 0.922604
v -1.058695 -2.860942 0.593965
v -1.379281 -2.701460 0.916519
v -1.380216 -2.844905 0.587880
v -1.284116 -3.532094 0.240075
v -1.276874 -3.668560 0.571596
v -0.956900 -3.633469 0.579051
v -0.964142 -3.497004 0.247530
v -1.504882 -3.992863 -0.080187
v -1.485576 -4.157195 0.341403
v -0.636785 -4.073432 0.353257
v -0.651136 -3.852963 -0.084812
v -0.940803 -4.121870 1.218329
v -1.216922 -4.145994 1.214430
v -0.685030 -4.367313 1.111709
v -1.407548 -4.446549 1.094876
v -1.367422 1.791047 -1.077233
v -1.330736 1.804166 0.634465
v -0.466903 3.189907 -0.105711
v 0.003448 3.080400 0.159459
v -2.190663 -0.092238 -2.047560
v -1.765758 0.935330 -1.480943
v -1.724551 0.958646 0.912119
v -2.201366 2.120596 0.172189
v -2.285796 2.224295 -0.439460
v -3.000891 2.610591 0.214026
v -5.474903 0.181888 0.795007
v -2.790135 0.574988 -1.216655
v -5.648353 1.277226 1.700977
v -5.860178 0.879169 0.713875
v -4.994125 1.490228 1.189711
v -5.163924 1.526136 0.783833
v 1.689639 -0.399963 1.033438
v 1.506595 0.834781 -0.971822
v 2.200262 -1.488056 0.139419
v 2.113003 -0.418200 -1.807649
v 0.360860 -3.240596 -0.610830
v 0.301937 -2.525935 -1.975120
v 1.804028 -3.266580 -0.822924
v 1.740418 -2.485416 -2.128376
v 0.889434 -3.060467 -1.454253
v 0.874454 -2.876504 -1.761685
v 1.211057 -3.059509 -1.469352
v 1.196077 -2.875546 -1.776783
v 1.215209 -3.713293 -2.097859
v 1.229742 -3.841643 -1.763351
v 0.908098 -3.852576 -1.753571
v 0.893564 -3.724225 -2.088080
v 1.499611 -4.654648 -2.611090
v 1.504369 -4.371133 -2.012212
v 0.652936 -4.338978 -1.966479
v 0.632617 -4.139521 -2.414463
v 0.966314 -4.323250 -1.103536
v 1.243008 -4.307666 -1.109577
v 0.747700 -4.605206 -1.202223
v 1.473990 -4.580519 -1.224306
v 1.357895 1.779054 -0.875053
v 1.396935 1.703370 0.852886
v 0.442740 3.198995 -0.172237
v 2.197356 0.755517 -1.301982
v 1.739938 0.953214 -1.332168
v 1.795581 0.853960 1.057301
v 2.306547 2.368791 -0.084994
v 2.243853 2.364445 -0.994835
v 3.063426 2.648772 -0.241702
v 5.119473 -0.026243 -1.282061
v 2.632964 0.822665 -1.544287
v 5.619665 0.518735 -0.059987
v 5.605781 0.588870 -1.142844
v 4.946164 1.001248 -0.279879
v 5.057112 1.199264 -0.658479
v 0.000000 0.659971 -2.353794
v 0.002489 -1.013847 0.688504
v -0.009708 -0.801874 -2.215368
v 0.016089 0.021739 1.340579
v -0.000000 1.618504 -1.958405
v 0.011891 1.450123 1.328854
v -0.011624 3.266231 -0.517582
v -0.418633 3.207398 -0.160846
v 0.000000 0.061724 -2.536163
v 0.019777 0.481917 1.542624
v -0.002255 3.091130 0.160384
v 0.416393 3.173429 -0.132826
v 0.011528 3.106525 -0.509839
v -0.211799 4.363389 -0.680214
v 0.121125 4.452589 -0.423936
v 0.465027 4.312951 -0.638997
v 0.110238 3.952048 -0.909013
v -0.067521 5.864845 -0.971056
v 0.248993 5.785240 -0.679127
v 0.608660 5.808243 -0.927826
v 0.290930 5.786615 -1.333272
v 0.055257 7.629080 -0.581559
v 0.359527 7.354762 -0.353059
v 0.731427 7.572027 -0.538750
v 0.442524 8.071991 -0.712169
v 0.027667 8.982632 0.381200
v 0.408790 8.659525 0.584724
v 0.860787 8.912893 0.434465
v 0.482531 9.202383 0.142080
vn -0.2784 -0.1796 0.9435
vn -0.9919 -0.1159 0.0511
vn -0.9001 0.4111 -0.1440
vn 0.0740 0.4471 0.8914
vn 0.9683 -0.2492 0.0148
vn -0.0096 -0.3443 0.9388
vn -0.3347 -0.8633 0.3778
vn 0.2277 -0.9036 0.3627
vn -0.0507 -0.7946 0.6050
vn -0.0499 -0.9960 0.0747
vn -0.0902 0.7929 0.6026
vn -0.9921 -0.1247 0.0136
vn 0.0049 0.4651 -0.8852
vn 0.9913 0.1309 -0.0137
vn 0.1205 -0.9043 -0.4095
vn -0.9310 0.3265 0.1632
vn -0.0899 0.6155 -0.7830
vn 0.8320 0.5118 0.2140
vn 0.0202 -0.3806 0.9245
vn 0.7966 0.5195 0.3091
vn -0.9017 0.3352 0.2732
vn 0.1028 -0.9274 -0.3598
vn -0.4244 0.6350 -0.6455
vn -0.9886 0.1461 -0.0376
vn -0.4321 0.3934 -0.8115
vn -0.2071 0.6445 -0.7360
vn -0.3263 0.9237 -0.2008
vn -0.3037 0.3088 0.9013
vn -0.9068 0.4213 0.0135
vn 0.4076 -0.5379 0.7379
vn 0.3339 -0.4834 0.8092
vn -0.0532 0.9023 0.4279
vn -0.6302 0.2017 0.7497
vn -0.3877 -0.9216 -0.0157
vn -0.4393 0.4758 -0.7620
vn -0.5511 0.8319 -0.0653
vn -0.5216 0.3421 -0.7816
vn -0.2315 0.5426 0.8075
vn 0.1593 -0.9719 -0.1731
vn 0.2541 0.3373 0.9065
vn -0.3840 0.8917 0.2395
vn -0.2441 0.6940 -0.6774
vn -0.2581 0.5622 0.7857
vn -0.4472 0.0164 0.8943
vn -0.0632 -0.7155 -0.6958
vn -0.2962 -0.0963 -0.9503
vn -0.3004 0.5607 -0.7716
vn 0.0453 -0.5810 0.8126
vn 0.9796 -0.1518 -0.1319
vn 0.9295 0.3428 0.1363
vn 0.1135 -0.4893 0.8647
vn -0.9866 -0.1623 -0.0188
vn 0.0427 -0.3515 0.9352
vn 0.2632 -0.8221 -0.5048
vn -0.3718 -0.8244 -0.4267
vn -0.0458 -0.9673 -0.2494
vn -0.0615 -0.6068 -0.7924
vn -0.0205 0.8114 0.5841
vn 0.9990 0.0344 -0.0292
vn -0.0427 0.3574 -0.9330
vn -0.9990 -0.0342 0.0293
vn -0.2917 -0.9529 0.0835
vn 0.9162 0.3918 -0.0841
vn 0.0759 0.5257 -0.8473
vn -0.8973 0.3916 0.2040
vn 0.0405 -0.3579 0.9329
vn -0.8609 0.4071 0.3052
vn 0.8672 0.4469 0.2197
vn -0.0171 -0.9562 -0.2923
vn 0.4782 0.5955 -0.6455
vn 0.9897 0.1431 -0.0086
vn 0.6165 0.2420 -0.7492
vn -0.2976 0.2625 -0.9179
vn 0.3211 0.8192 0.4751
vn 0.2317 0.2670 0.9354
vn 0.9062 0.4228 -0.0029
vn -0.4632 -0.5835 0.6671
vn 0.2928 -0.2546 0.9217
vn -0.0288 0.2949 0.9551
vn 0.6511 0.0753 0.7553
vn 0.5535 -0.8317 -0.0438
vn 0.3572 0.6765 -0.6441
vn 0.6771 0.7145 0.1761
vn 0.2555 0.4124 -0.8745
vn 0.2737 0.6390 0.7189
vn -0.4132 -0.8981 -0.1505
vn 0.1482 0.1467 0.9780
vn 0.5741 0.6443 0.5052
vn 0.1652 0.8498 -0.5005
vn 0.1699 0.5750 0.8003
vn 0.2512 0.0737 0.9651
vn 0.0689 0.0201 -0.9974
vn 0.3823 0.3078 -0.8713
vn 0.2646 0.7387 -0.6199
vn 0.1813 0.4963 0.8490
vn -0.0734 -0.9157 -0.3951
vn -0.5520 0.3945 0.7347
vn -0.6830 -0.2159 -0.6977
vn 0.7131 -0.3340 -0.6164
vn 0.5442 0.3036 0.7821
vn 0.7495 -0.2076 -0.6286
vn 0.5594 0.1045 0.8223
vn -0.6332 0.2046 0.7465
vn -0.6883 -0.0873 -0.7202
vn 0.5495 -0.2119 0.8082
vn -0.6745 -0.1095 0.7301
vn -0.6124 0.2302 -0.7563
vn 0.7325 0.1176 -0.6705
vn -0.6342 0.4586 -0.6225
vn 0.7749 0.3407 -0.5325
vn 0.5582 -0.5103 0.6542
vn -0.7132 -0.4038 0.5730
vt 0.203125 0.375000
vt 0.109375 0.375000
vt 0.109375 0.062500
vt 0.203125 0.062500
vt 0.218750 0.375000
vt 0.218750 0.187500
vt 0.265625 0.250000
vt 0.265625 0.375000
vt 0.250000 0.144531
vt 0.226074 0.289062
vt 0.250000 0.250000
vt 0.328125 0.375000
vt 0.281250 0.312500
vt 0.328125 0.312500
vt 0.359375 0.250000
vt 0.343750 0.250000
vt 0.343750 0.062500
vt 0.359375 0.062500
vt 0.312500 0.187500
vt 0.312500 0.125000
vt 0.328125 0.062500
vt 0.328125 0.250000
vt 0.296875 0.125000
vt 0.296875 0.187500
vt 0.281250 0.250000
vt 0.281250 0.062500
vt 0.437500 0.187500
vt 0.437500 0.250000
vt 0.406250 0.250000
vt 0.406250 0.187500
vt 0.375000 0.250000
vt 0.375000 0.062500
vt 0.484375 0.375000
vt 0.468750 0.375000
vt 0.468750 0.312500
vt 0.484375 0.312500
vt 0.453125 0.250000
vt 0.453125 0.375000
vt 0.437500 0.375000
vt 0.453125 0.187500
vt 0.484375 0.125000
vt 0.437500 0.062500
vt 0.453125 0.062500
vt 0.390625 0.312500
vt 0.390625 0.125000
vt 0.406250 0.062500
vt 0.406250 0.375000
vt 0.453125 0.312500
vt 0.500000 0.187500
vt 0.562500 0.187500
vt 0.500000 0.500000
vt 0.500000 0.375000
vt 0.625000 0.062500
vt 0.578125 0.062500
vt 0.578125 0.187500
vt 0.625000 0.187500
vt 0.500000 0.062500
vt 0.562500 0.062500
vt 0.562500 0.375000
vt 0.609375 0.875000
vt 0.671875 0.875000
vt 0.640625 1.000000
vt 0.765625 0.437500
vt 0.718750 0.437500
vt 0.718750 0.250000
vt 0.765625 0.250000
vt 0.687500 0.437500
vt 0.640625 0.250000
vt 0.640625 0.437500
vt 0.593750 1.000000
vt 0.578125 1.000000
vt 0.578125 0.625000
vt 0.000000 0.062500
vt 0.093750 0.500000
vt 0.265625 0.500000
vt 0.578125 0.312500
vt 0.625000 0.312500
vt 0.562500 0.500000
vt 0.625000 0.375000
vt 0.656250 0.562500
vt 0.609375 0.562500
vt 0.609375 0.750000
vt 0.656250 0.750000
vt 0.468750 1.000000
vt 0.468750 0.625000
vt 0.625000 0.500000
vt 0.218750 0.062500
vt 0.265625 0.062500
vt 0.000000 0.375000
vt 0.093750 0.375000
vt 0.093750 0.062500
vt 0.765625 0.875000
vt 0.765625 1.000000
vt 0.281250 0.375000
vt 0.671875 0.500000
vt 0.687500 0.500000
vt 0.687500 0.625000
vt 0.671875 0.625000
vt 0.703125 0.500000
vt 0.703125 0.625000
vt 0.687500 0.812500
vt 0.671875 0.812500
vt 0.703125 0.812500
vt 0.734375 0.500000
vt 0.750000 0.500000
vt 0.750000 0.687500
vt 0.734375 0.687500
vt 0.718750 0.500000
vt 0.718750 0.687500
vt 0.750000 0.812500
vt 0.734375 0.812500
vt 0.718750 0.812500
s 0
usemtl Material
f 83/1/1 1/2/1 3/3/1 81/4/1
f 3/5/2 4/6/2 8/7/2 7/8/2
f 4/9/3 3/10/3 1/11/3 2/11/3
f 81/11/4 3/10/4 7/7/4 5/7/4
f 82/12/5 81/13/5 5/13/5 6/14/5
f 9/15/6 11/16/6 14/17/6 15/18/6
f 12/19/7 11/20/7 7/21/7 8/22/7
f 9/23/8 10/24/8 6/25/8 5/26/8
f 11/20/9 9/23/9 5/26/9 7/21/9
f 10/24/10 12/19/10 8/22/10 6/25/10
f 15/27/11 14/28/11 22/29/11 21/30/11
f 11/31/12 12/15/12 13/18/12 14/32/12
f 12/15/13 10/16/13 16/17/13 13/18/13
f 10/31/14 9/15/14 15/18/14 16/32/14
f 20/33/15 19/34/15 18/35/15 17/36/15
f 14/28/16 13/37/16 17/38/16 18/39/16
f 13/37/17 16/40/17 20/41/17 17/36/17
f 16/40/18 15/27/18 19/42/18 20/43/18
f 21/30/19 22/29/19 24/44/19 23/45/19
f 19/42/20 15/27/20 21/30/20 23/46/20
f 14/28/21 18/39/21 24/47/21 22/29/21
f 18/35/22 19/34/22 23/38/22 24/48/22
f 84/49/23 25/50/23 27/51/23 86/52/23
f 2/53/24 1/54/24 26/55/24 25/56/24
f 80/57/25 2/58/25 25/50/25 84/49/25
f 27/51/26 25/50/26 33/59/26
f 1/60/27 2/61/27 29/62/27
f 85/63/28 26/64/28 31/65/28 89/66/28
f 26/64/29 25/67/29 30/68/29 31/65/29
f 84/69/30 25/67/30 30/68/30
f 25/70/31 33/71/31 36/72/31
f 27/73/32 28/73/32 90/73/32 87/73/32
f 67/74/33 86/75/33 92/75/33 91/74/33
f 25/56/34 26/55/34 32/76/34 33/77/34
f 34/78/35 33/59/35 40/79/35
f 39/80/36 40/81/36 38/82/36 37/83/36
f 40/84/37 33/71/37 36/72/37 35/85/37
f 26/50/38 28/52/38 32/59/38
f 33/79/39 32/86/39 39/78/39 40/59/39
f 32/59/40 34/78/40 39/79/40
f 34/78/41 40/86/41 39/79/41
f 34/78/42 27/51/42 33/59/42
f 26/50/43 85/49/43 28/52/43
f 1/58/44 83/57/44 85/49/44 26/50/44
f 4/6/45 82/87/45 6/88/45 8/7/45
f 2/89/46 80/90/46 82/91/46 4/73/46
f 2/61/47 80/92/47 88/93/47 29/62/47
f 83/1/48 81/4/48 43/3/48 41/2/48
f 43/5/49 47/87/49 48/88/49 44/8/49
f 44/11/50 42/11/50 41/11/50 43/11/50
f 81/5/51 45/87/51 47/88/51 43/8/51
f 82/12/52 46/94/52 45/13/52 81/14/52
f 49/16/53 55/17/53 54/18/53 51/15/53
f 52/23/54 48/26/54 47/21/54 51/20/54
f 49/19/55 45/22/55 46/25/55 50/24/55
f 51/20/56 47/21/56 45/22/56 49/19/56
f 50/24/57 46/25/57 48/26/57 52/23/57
f 55/28/58 61/29/58 62/30/58 54/27/58
f 51/15/59 54/18/59 53/32/59 52/31/59
f 52/16/60 53/17/60 56/18/60 50/15/60
f 50/15/61 56/18/61 55/32/61 49/31/61
f 60/36/62 57/33/62 58/34/62 59/35/62
f 54/27/63 58/42/63 57/43/63 53/40/63
f 53/40/64 57/41/64 60/36/64 56/37/64
f 56/37/65 60/38/65 59/39/65 55/28/65
f 61/29/66 63/44/66 64/45/66 62/30/66
f 59/39/67 63/47/67 61/29/67 55/28/67
f 54/27/68 62/30/68 64/46/68 58/42/68
f 58/34/69 64/38/69 63/48/69 59/35/69
f 84/49/70 86/52/70 67/51/70 65/50/70
f 42/53/71 65/77/71 66/76/71 41/54/71
f 80/57/72 84/49/72 65/50/72 42/58/72
f 67/51/73 72/59/73 65/50/73
f 41/60/74 68/62/74 42/61/74
f 85/63/75 89/66/75 70/65/75 66/64/75
f 66/64/76 70/65/76 69/68/76 65/67/76
f 84/69/77 69/68/77 65/67/77
f 65/70/78 75/72/78 72/71/78
f 34/78/79 32/59/79 28/52/79 27/51/79
f 86/75/80 27/74/80 87/74/80 92/75/80
f 65/51/81 72/78/81 71/59/81 66/52/81
f 73/78/82 79/79/82 72/59/82
f 78/80/83 76/83/83 77/82/83 79/81/83
f 79/84/84 74/85/84 75/72/84 72/71/84
f 66/50/85 71/59/85 28/52/85
f 72/78/86 79/86/86 78/79/86 71/59/86
f 71/59/87 78/79/87 73/78/87
f 73/78/88 78/79/88 79/86/88
f 73/78/89 72/59/89 67/51/89
f 66/50/90 28/52/90 85/49/90
f 41/58/91 66/50/91 85/49/91 83/57/91
f 44/8/92 48/5/92 46/87/92 82/88/92
f 42/89/93 44/73/93 82/91/93 80/90/93
f 42/61/94 68/62/94 88/93/94 80/92/94
f 28/52/95 71/59/95 73/78/95 67/51/95
f 28/95/96 67/73/96 91/73/96 90/95/96
f 87/95/97 90/96/97 94/97/97 93/98/97
f 92/96/98 87/99/98 93/100/98 96/97/98
f 91/95/99 92/96/99 96/97/99 95/98/99
f 90/96/100 91/99/100 95/100/100 94/97/100
f 95/98/101 96/97/101 100/101/101 99/102/101
f 94/97/102 95/100/102 99/103/102 98/101/102
f 93/98/103 94/97/103 98/101/103 97/102/103
f 96/97/104 93/100/104 97/103/104 100/101/104
f 98/104/105 99/105/105 103/106/105 102/107/105
f 97/108/106 98/104/106 102/107/106 101/109/106
f 100/104/107 97/105/107 101/106/107 104/107/107
f 99/108/108 100/104/108 104/107/108 103/109/108
f 104/107/109 101/106/109 105/110/109 108/111/109
f 103/109/110 104/107/110 108/111/110 107/112/110
f 102/107/111 103/106/111 107/110/111 106/111/111
f 101/109/112 102/107/112 106/111/112 105/112/112
o Icosphere
v 1.679258 9.056902 1.456895
v 1.734944 9.580254 1.405094
v 1.202438 9.619663 0.426291
v 1.339006 11.124374 1.830961
v 1.698894 10.549916 0.726849
v 1.156227 9.112218 0.331704
v 1.220488 9.174453 0.265321
v 1.829410 9.509262 1.440690
v 1.259644 9.563148 0.334843
v 1.785303 9.122748 1.480961
v 0.876738 8.914142 0.212040
v 1.884328 8.291298 1.451432
v 2.030191 10.868628 1.403219
v 0.784574 11.226719 2.685755
v -0.841164 9.285058 1.416252
v -0.801985 9.811794 1.367884
v -0.241029 9.748836 0.377202
v -0.165290 11.261447 1.804674
v -0.604477 10.755317 0.652557
v -0.268298 9.254012 0.279378
v -0.319857 9.325809 0.214866
v -0.907837 9.759006 1.401288
v -0.300284 9.704753 0.283257
v -0.934101 9.369760 1.439207
v 0.010080 9.015827 0.133004
v -1.176465 8.568923 1.388925
v -0.861478 11.132912 1.366567
v 0.409623 11.257372 2.683173
v 0.482294 9.957420 2.615427
v 0.431801 9.423709 2.696818
v 0.585524 10.954546 0.199098
v 0.599389 11.453561 1.094221
v 0.476304 9.905678 2.735339
v 0.439049 9.511612 2.792741
v 0.403660 9.220744 3.642565
v 0.324637 8.452760 4.411129
vn 0.5625 0.7841 -0.2624
vn 0.8344 -0.2948 -0.4658
vn 0.6913 -0.0220 0.7223
vn 0.9586 0.1864 0.2155
vn 0.8942 -0.0794 -0.4406
vn 0.3642 -0.7248 0.5848
vn 0.5305 -0.7990 -0.2831
vn 0.6358 -0.6978 -0.3298
vn -0.0905 -0.9959 0.0067
vn 0.8081 0.2204 -0.5462
vn 0.8453 0.2921 0.4473
vn 0.6971 0.0170 0.7168
vn 0.5733 0.7883 -0.2233
vn 0.4819 0.7621 -0.4323
vn 0.4433 0.0526 -0.8948
vn 0.4540 0.8683 0.1999
vn 0.5351 0.7841 0.3144
vn -0.6690 0.1756 -0.7222
vn -0.4094 0.8698 -0.2752
vn 0.0948 0.8745 -0.4756
vn -0.8607 -0.1806 -0.4759
vn -0.6992 0.0935 0.7088
vn -0.9179 0.3431 0.1992
vn 0.0345 0.5400 0.8410
vn 0.0795 0.9374 0.3390
vn 0.0487 0.1730 -0.9837
vn -0.8832 0.0711 -0.4636
vn -0.5034 -0.6455 0.5744
vn -0.6567 -0.6882 -0.3083
vn -0.7082 -0.6188 -0.3400
vn 0.1037 0.5176 -0.8493
vn -0.7378 0.3671 -0.5665
vn -0.7915 0.4353 0.4291
vn -0.6985 0.1420 0.7014
vn -0.4268 0.8766 -0.2224
vn -0.3139 0.8313 -0.4586
vn -0.3708 0.1181 -0.9212
vn 0.0193 -0.1591 -0.9871
vn -0.2952 0.9359 0.1921
vn -0.3913 0.8678 0.3062
vn 0.7045 0.0535 -0.7077
vn -0.0440 -0.6959 -0.7168
vn -0.0740 -0.9146 -0.3974
vt 0.312500 0.750000
vt 0.312500 0.437500
vt 0.328125 0.500000
vt 0.328125 0.750000
vt 0.437500 0.750000
vt 0.437500 0.937500
vt 0.421875 0.812500
vt 0.437500 0.500000
vt 0.421875 0.625000
vt 0.453125 0.437500
vt 0.281250 0.562500
vt 0.296875 0.687500
vt 0.281250 0.687500
vt 0.218750 0.875000
vt 0.250000 0.750000
vt 0.250000 1.000000
vt 0.203125 0.937500
vt 0.187500 0.937500
vt 0.187500 0.812500
vt 0.156250 0.937500
vt 0.156250 0.812500
vt 0.390625 0.750000
vt 0.390625 0.812500
vt 0.125000 0.750000
vt 0.203125 0.750000
vt 0.203125 0.562500
vt -0.000000 0.562500
vt 0.109375 0.562500
vt 0.109375 1.000000
vt -0.000000 1.000000
vt 0.312500 1.000000
vt 0.328125 0.937500
vt 0.453125 1.000000
vt 0.343750 0.750000
vt 0.375000 0.625000
vt 0.234375 0.562500
vt 0.234375 0.687500
vt 0.218750 0.687500
vt 0.125000 0.937500
vt 0.140625 0.812500
vt 0.140625 0.937500
vt 0.296875 0.750000
vt 0.296875 1.000000
s 0
usemtl Material.001
f 111/113/113 110/114/113 116/115/113 117/116/113
f 110/117/114 111/118/114 113/119/114
f 137/120/115 110/117/115 112/121/115
f 110/117/116 113/119/116 112/121/116
f 117/116/117 116/115/117 118/114/117 115/113/117
f 138/120/118 109/115/118 118/114/118 142/122/118
f 109/115/119 114/116/119 115/113/119 118/114/119
f 114/123/120 109/124/120 119/125/120
f 144/126/121 134/127/121 120/128/121
f 119/129/122 109/130/122 120/131/122
f 109/130/123 143/132/123 144/133/123 120/131/123
f 116/115/124 141/120/124 142/122/124 118/114/124
f 112/121/125 113/119/125 140/134/125
f 113/119/126 139/135/126 140/134/126
f 111/118/127 139/135/127 113/119/127
f 109/136/128 138/137/128 143/138/128
f 110/114/129 137/122/129 141/120/129 116/115/129
f 110/139/130 137/140/130 122/141/130 121/142/130
f 125/143/131 131/144/131 130/118/131 124/145/131
f 111/113/132 117/116/132 131/144/132 125/143/132
f 124/146/133 127/144/133 125/115/133
f 137/120/134 126/147/134 124/115/134
f 124/115/135 126/147/135 127/146/135
f 137/120/136 112/121/136 126/147/136
f 112/121/137 140/134/137 126/147/137
f 117/116/138 115/113/138 129/143/138 131/144/138
f 131/144/139 129/143/139 132/145/139 130/118/139
f 138/120/140 142/122/140 132/145/140 123/118/140
f 123/118/141 132/145/141 129/143/141 128/144/141
f 128/148/142 133/149/142 123/150/142
f 114/123/143 119/125/143 133/149/143 128/148/143
f 133/151/144 134/152/144 123/153/144
f 123/153/145 134/152/145 144/133/145 143/132/145
f 130/118/146 132/145/146 142/122/146 141/120/146
f 126/147/147 140/134/147 127/146/147
f 127/146/148 140/134/148 139/135/148
f 125/144/149 127/146/149 139/135/149
f 125/144/150 139/135/150 111/118/150
f 123/136/151 143/138/151 138/137/151
f 124/145/152 130/118/152 141/120/152 137/122/152
f 124/140/153 135/141/153 136/142/153 137/139/153
f 128/144/154 129/143/154 115/113/154 114/116/154
f 120/128/155 134/127/155 133/154/155 119/155/155
o BezierCircle
v -26.683170 10.649023 -1.546623
v -26.439865 10.566792 -5.096894
v -25.731138 10.327261 -8.502262
v -24.588779 9.941174 -11.731503
v -23.044582 9.419273 -14.753392
v -21.130333 8.772306 -17.536705
v -18.877823 8.011015 -20.050215
v -16.318838 7.146144 -22.262699
v -13.485172 6.188437 -24.142933
v -10.408615 5.148640 -25.659693
v -7.120955 4.037494 -26.781750
v -3.653981 2.865746 -27.477882
v -0.039484 1.644138 -27.716871
v 3.575013 0.422530 -27.477888
v 7.041987 -0.749218 -26.781755
v 10.329647 -1.860364 -25.659697
v 13.406204 -2.900162 -24.142939
v 16.239868 -3.857868 -22.262705
v 18.798851 -4.722738 -20.050219
v 21.051361 -5.484029 -17.536705
v 22.965611 -6.130996 -14.753392
v 24.509808 -6.652895 -11.731503
v 25.652164 -7.038984 -8.502262
v 26.360889 -7.278514 -5.096893
v 26.604202 -7.360748 -1.546623
v 26.360897 -7.278516 2.003647
v 25.652170 -7.038985 5.409015
v 24.509811 -6.652897 8.638256
v 22.965614 -6.130998 11.660146
v 21.051365 -5.484031 14.443458
v 18.798855 -4.722739 16.956968
v 16.239870 -3.857868 19.169453
v 13.406204 -2.900162 21.049686
v 10.329647 -1.860364 22.566446
v 7.041987 -0.749218 23.688503
v 3.575013 0.422530 24.384636
v -0.039484 1.644138 24.623625
v -3.653981 2.865746 24.384642
v -7.120955 4.037494 23.688509
v -10.408615 5.148640 22.566450
v -13.485172 6.188437 21.049692
v -16.318836 7.146143 19.169458
v -18.877819 8.011014 16.956972
v -21.130329 8.772305 14.443460
v -23.044579 9.419271 11.660146
v -24.588776 9.941172 8.638256
v -25.731133 10.327259 5.409015
v -26.439857 10.566790 2.003647
l 145 146
l 146 147
l 147 148
l 148 149
l 149 150
l 150 151
l 151 152
l 152 153
l 153 154
l 154 155
l 155 156
l 156 157
l 157 158
l 158 159
l 159 160
l 160 161
l 161 162
l 162 163
l 163 164
l 164 165
l 165 166
l 166 167
l 167 168
l 168 169
l 169 170
l 170 171
l 171 172
l 172 173
l 173 174
l 174 175
l 175 176
l 176 177
l 177 178
l 178 179
l 179 180
l 180 181
l 181 182
l 182 183
l 183 184
l 184 185
l 185 186
l 186 187
l 187 188
l 188 189
l 189 190
l 190 191
l 191 192
l 192 145
