# Blender 3.6.4
# www.blender.org
mtllib ost45.mtl
o Cube
v -1.649640 0.125939 0.952244
v -1.529721 0.637992 -1.445039
v -2.167592 -1.135016 0.483824
v -2.150401 -0.906769 -1.745060
v -0.333831 -3.079965 0.385834
v -0.321337 -2.928306 -1.136468
v -1.775182 -3.114172 0.343627
v -1.762704 -2.946776 -1.169745
v -0.883572 -3.190285 -0.346866
v -0.880634 -3.150863 -0.703262
v -1.205495 -3.195346 -0.350080
v -1.202557 -3.155925 -0.706477
v -1.220740 -4.051299 -0.649348
v -1.223114 -4.028864 -0.291477
v -0.901205 -4.035089 -0.288951
v -0.898831 -4.057524 -0.646822
v -1.503608 -5.027762 -0.777579
v -1.499105 -4.618885 -0.294337
v -0.646475 -4.566256 -0.288885
v -0.642671 -4.568956 -0.780733
v -0.932875 -4.192669 0.499489
v -1.209803 -4.180708 0.496902
v -0.713778 -4.490363 0.519605
v -1.440664 -4.476306 0.513901
v -1.373760 1.811150 -0.997868
v -1.337983 1.749662 0.762006
v -0.477766 3.186621 -0.105635
v 0.002999 3.082587 0.158685
v -2.235244 0.424355 -1.721681
v -1.764497 0.962000 -1.431391
v -1.721039 0.888437 0.993216
v -2.160050 2.040436 0.187620
v -2.255063 2.138152 -0.422624
v -2.975639 2.493685 0.239767
v -5.302583 -0.054696 0.907943
v -2.709547 0.488059 -1.193887
v -5.507611 1.037997 1.810506
v -5.725674 0.620984 0.832631
v -4.879726 1.280140 1.279561
v -5.062319 1.303698 0.878359
v 1.701442 -0.514865 1.019757
v 1.500278 0.850618 -0.861377
v 2.209331 -1.540466 0.044270
v 2.101727 -0.308332 -1.794802
v 0.367914 -3.219582 -0.830555
v 0.295485 -2.394714 -2.129029
v 1.811189 -3.230599 -1.080561
v 1.732737 -2.331258 -2.306734
v 0.890052 -2.970381 -1.681673
v 0.871577 -2.758588 -1.970434
v 1.211515 -2.966636 -1.699493
v 1.193040 -2.754843 -1.988254
v 1.212064 -3.558863 -2.386327
v 1.230154 -3.717819 -2.065412
v 0.908654 -3.730999 -2.053817
v 0.890564 -3.572043 -2.374732
v 1.497787 -4.529402 -3.012340
v 1.504257 -4.227883 -2.367931
v 0.653197 -4.196492 -2.308929
v 0.628090 -3.958127 -2.736845
v 0.974541 -4.260051 -1.451129
v 1.251111 -4.242783 -1.458165
v 0.755990 -4.532498 -1.573757
v 1.481953 -4.502738 -1.599938
v 1.353511 1.765517 -0.851497
v 1.389174 1.674855 0.866092
v 0.452696 3.197278 -0.169359
v 2.187222 0.804558 -1.195550
v 1.730765 0.946985 -1.313799
v 1.783423 0.828208 1.062078
v 2.282332 2.300097 -0.047476
v 2.242738 2.304623 -0.956296
v 3.045427 2.533370 -0.180090
v 4.971255 -0.226173 -1.250628
v 2.594436 0.785588 -1.529721
v 5.452135 0.235102 0.012773
v 5.488891 0.349717 -1.065747
v 4.820429 0.768779 -0.212865
v 4.959699 0.974328 -0.577847
v 0.000000 0.659971 -2.353794
v 0.005308 -1.083362 0.667626
v -0.007579 -0.694361 -2.235035
v 0.010841 -0.106988 1.391359
v -0.000000 1.618504 -1.958405
v 0.006276 1.410983 1.376532
v -0.011888 3.269120 -0.518584
v -0.416488 3.212019 -0.171218
v 0.000000 0.061724 -2.536163
v 0.016224 0.436017 1.568883
v -0.008199 3.097248 0.158755
v 0.400185 3.143691 -0.062757
v 0.051112 3.056855 -0.484666
v 0.018027 4.275869 -0.865036
v 0.302045 4.339810 -0.550609
v 0.668440 4.172451 -0.695700
v 0.323275 3.811473 -0.975295
v 0.340399 5.753028 -1.106726
v 0.586435 5.649282 -0.759677
v 0.988144 5.639976 -0.933700
v 0.754415 5.642081 -1.393236
v 0.493468 7.464701 -0.561385
v 0.725829 7.152681 -0.299221
v 1.141277 7.351173 -0.388906
v 0.919850 7.884776 -0.547225
v 0.318600 8.664379 0.567043
v 0.632187 8.288091 0.793194
v 1.116685 8.525088 0.780227
v 0.823590 8.880407 0.463661
vn -0.1645 -0.4336 0.8860
vn -0.9807 -0.1934 -0.0282
vn -0.9291 0.3685 0.0314
vn -0.0595 -0.1061 0.9926
vn 0.9876 -0.1561 -0.0192
vn -0.0088 0.0694 0.9975
vn -0.2680 -0.9573 -0.1081
vn 0.3093 -0.9463 -0.0937
vn 0.0186 -0.9909 0.1333
vn 0.0210 -0.9008 -0.4338
vn 0.0281 0.9808 0.1928
vn -0.9998 0.0202 -0.0070
vn 0.0088 -0.0631 -0.9980
vn 0.9998 -0.0200 0.0070
vn 0.2647 -0.8885 0.3748
vn -0.9228 0.3438 -0.1739
vn -0.0672 0.1743 -0.9824
vn 0.8976 0.4407 -0.0065
vn -0.0066 0.0626 0.9980
vn 0.8646 0.4962 0.0790
vn -0.8669 0.4968 0.0418
vn 0.0232 -0.9907 0.1340
vn -0.4427 0.6249 -0.6431
vn -0.9863 0.1647 0.0028
vn -0.4922 0.3509 -0.7966
vn -0.2434 0.6345 -0.7336
vn -0.3488 0.9199 0.1791
vn -0.2858 0.2702 0.9194
vn -0.9120 0.4090 0.0305
vn 0.4212 -0.5586 0.7145
vn 0.3511 -0.4741 0.8074
vn -0.0947 0.8799 0.4656
vn -0.6516 0.3342 0.6810
vn -0.3406 -0.9392 -0.0443
vn -0.4819 0.4376 -0.7591
vn -0.5952 0.8017 -0.0558
vn -0.5622 0.3180 -0.7634
vn -0.2894 0.6209 0.7285
vn 0.2039 -0.9639 -0.1715
vn 0.2584 0.3620 0.8957
vn -0.4231 0.8727 0.2438
vn -0.2826 0.6827 -0.6738
vn -0.2161 0.5747 0.7894
vn -0.3138 0.0924 0.9450
vn -0.0946 -0.3645 -0.9264
vn -0.3602 0.1358 -0.9230
vn -0.2707 0.6412 -0.7181
vn 0.0545 -0.6382 0.7680
vn 0.9790 -0.1348 -0.1531
vn 0.9291 0.3349 0.1567
vn 0.1237 -0.5619 0.8179
vn -0.9865 -0.1615 -0.0266
vn 0.0526 -0.4371 0.8979
vn 0.2613 -0.7703 -0.5817
vn -0.3893 -0.7813 -0.4880
vn -0.0535 -0.9437 -0.3266
vn -0.0748 -0.5192 -0.8513
vn -0.0179 0.7533 0.6575
vn 0.9985 0.0413 -0.0348
vn -0.0526 0.4428 -0.8951
vn -0.9985 -0.0411 0.0349
vn -0.3186 -0.9457 0.0651
vn 0.9142 0.3970 -0.0819
vn 0.0813 0.5877 -0.8050
vn -0.8970 0.3669 0.2464
vn 0.0504 -0.4433 0.8950
vn -0.8594 0.3731 0.3496
vn 0.8695 0.4266 0.2489
vn -0.0212 -0.9266 -0.3754
vn 0.4907 0.5880 -0.6430
vn 0.9893 0.1460 -0.0060
vn 0.6448 0.2095 -0.7351
vn -0.2720 0.2691 -0.9239
vn 0.3132 0.7842 0.5357
vn 0.2488 0.2544 0.9345
vn 0.9075 0.4201 0.0019
vn -0.4726 -0.5884 0.6561
vn 0.2791 -0.2819 0.9180
vn -0.0315 0.2909 0.9562
vn 0.6037 0.2747 0.7484
vn 0.5278 -0.8481 -0.0459
vn 0.4124 0.6652 -0.6225
vn 0.7127 0.6614 0.2336
vn 0.3073 0.4300 -0.8489
vn 0.2840 0.6389 0.7149
vn -0.4649 -0.8670 -0.1794
vn 0.1350 0.1176 0.9838
vn 0.5916 0.5848 0.5551
vn 0.2164 0.8529 -0.4751
vn 0.1827 0.5792 0.7945
vn 0.2781 0.0673 0.9582
vn 0.0599 0.1071 -0.9924
vn 0.3931 0.3663 -0.8434
vn 0.2648 0.7591 -0.5947
vn 0.1833 0.4896 0.8524
vn -0.0687 -0.9233 -0.3779
vn -0.5434 0.5574 0.6277
vn -0.6121 -0.2506 -0.7500
vn 0.7540 -0.4982 -0.4281
vn 0.4439 0.3694 0.8164
vn 0.8169 -0.2856 -0.5011
vn 0.3950 0.0616 0.9166
vn -0.7455 0.2615 0.6131
vn -0.5147 -0.0534 -0.8557
vn 0.3561 -0.3083 0.8822
vn -0.8155 -0.1040 0.5694
vn -0.3993 0.3328 -0.8543
vn 0.8449 0.1156 -0.5222
vn -0.4649 0.5878 -0.6621
vn 0.8862 0.3520 -0.3012
vn 0.3841 -0.6359 0.6694
vn -0.8391 -0.4224 0.3427
vt 0.203125 0.375000
vt 0.109375 0.375000
vt 0.109375 0.062500
vt 0.203125 0.062500
vt 0.218750 0.375000
vt 0.218750 0.187500
vt 0.265625 0.250000
vt 0.265625 0.375000
vt 0.250000 0.144531
vt 0.226074 0.289062
vt 0.250000 0.250000
vt 0.328125 0.375000
vt 0.281250 0.312500
vt 0.328125 0.312500
vt 0.359375 0.250000
vt 0.343750 0.250000
vt 0.343750 0.062500
vt 0.359375 0.062500
vt 0.312500 0.187500
vt 0.312500 0.125000
vt 0.328125 0.062500
vt 0.328125 0.250000
vt 0.296875 0.125000
vt 0.296875 0.187500
vt 0.281250 0.250000
vt 0.281250 0.062500
vt 0.437500 0.187500
vt 0.437500 0.250000
vt 0.406250 0.250000
vt 0.406250 0.187500
vt 0.375000 0.250000
vt 0.375000 0.062500
vt 0.484375 0.375000
vt 0.468750 0.375000
vt 0.468750 0.312500
vt 0.484375 0.312500
vt 0.453125 0.250000
vt 0.453125 0.375000
vt 0.437500 0.375000
vt 0.453125 0.187500
vt 0.484375 0.125000
vt 0.437500 0.062500
vt 0.453125 0.062500
vt 0.390625 0.312500
vt 0.390625 0.125000
vt 0.406250 0.062500
vt 0.406250 0.375000
vt 0.453125 0.312500
vt 0.500000 0.187500
vt 0.562500 0.187500
vt 0.500000 0.500000
vt 0.500000 0.375000
vt 0.625000 0.062500
vt 0.578125 0.062500
vt 0.578125 0.187500
vt 0.625000 0.187500
vt 0.500000 0.062500
vt 0.562500 0.062500
vt 0.562500 0.375000
vt 0.609375 0.875000
vt 0.671875 0.875000
vt 0.640625 1.000000
vt 0.765625 0.437500
vt 0.718750 0.437500
vt 0.718750 0.250000
vt 0.765625 0.250000
vt 0.687500 0.437500
vt 0.640625 0.250000
vt 0.640625 0.437500
vt 0.593750 1.000000
vt 0.578125 1.000000
vt 0.578125 0.625000
vt 0.000000 0.062500
vt 0.093750 0.500000
vt 0.265625 0.500000
vt 0.578125 0.312500
vt 0.625000 0.312500
vt 0.562500 0.500000
vt 0.625000 0.375000
vt 0.656250 0.562500
vt 0.609375 0.562500
vt 0.609375 0.750000
vt 0.656250 0.750000
vt 0.468750 1.000000
vt 0.468750 0.625000
vt 0.625000 0.500000
vt 0.218750 0.062500
vt 0.265625 0.062500
vt 0.000000 0.375000
vt 0.093750 0.375000
vt 0.093750 0.062500
vt 0.765625 0.875000
vt 0.765625 1.000000
vt 0.281250 0.375000
vt 0.671875 0.500000
vt 0.687500 0.500000
vt 0.687500 0.625000
vt 0.671875 0.625000
vt 0.703125 0.500000
vt 0.703125 0.625000
vt 0.687500 0.812500
vt 0.671875 0.812500
vt 0.703125 0.812500
vt 0.734375 0.500000
vt 0.750000 0.500000
vt 0.750000 0.687500
vt 0.734375 0.687500
vt 0.718750 0.500000
vt 0.718750 0.687500
vt 0.750000 0.812500
vt 0.734375 0.812500
vt 0.718750 0.812500
s 0
usemtl Material
f 83/1/1 1/2/1 3/3/1 81/4/1
f 3/5/2 4/6/2 8/7/2 7/8/2
f 4/9/3 3/10/3 1/11/3 2/11/3
f 81/11/4 3/10/4 7/7/4 5/7/4
f 82/12/5 81/13/5 5/13/5 6/14/5
f 9/15/6 11/16/6 14/17/6 15/18/6
f 12/19/7 11/20/7 7/21/7 8/22/7
f 9/23/8 10/24/8 6/25/8 5/26/8
f 11/20/9 9/23/9 5/26/9 7/21/9
f 10/24/10 12/19/10 8/22/10 6/25/10
f 15/27/11 14/28/11 22/29/11 21/30/11
f 11/31/12 12/15/12 13/18/12 14/32/12
f 12/15/13 10/16/13 16/17/13 13/18/13
f 10/31/14 9/15/14 15/18/14 16/32/14
f 20/33/15 19/34/15 18/35/15 17/36/15
f 14/28/16 13/37/16 17/38/16 18/39/16
f 13/37/17 16/40/17 20/41/17 17/36/17
f 16/40/18 15/27/18 19/42/18 20/43/18
f 21/30/19 22/29/19 24/44/19 23/45/19
f 19/42/20 15/27/20 21/30/20 23/46/20
f 14/28/21 18/39/21 24/47/21 22/29/21
f 18/35/22 19/34/22 23/38/22 24/48/22
f 84/49/23 25/50/23 27/51/23 86/52/23
f 2/53/24 1/54/24 26/55/24 25/56/24
f 80/57/25 2/58/25 25/50/25 84/49/25
f 27/51/26 25/50/26 33/59/26
f 1/60/27 2/61/27 29/62/27
f 85/63/28 26/64/28 31/65/28 89/66/28
f 26/64/29 25/67/29 30/68/29 31/65/29
f 84/69/30 25/67/30 30/68/30
f 25/70/31 33/71/31 36/72/31
f 27/73/32 28/73/32 90/73/32 87/73/32
f 67/74/33 86/75/33 92/75/33 91/74/33
f 25/56/34 26/55/34 32/76/34 33/77/34
f 34/78/35 33/59/35 40/79/35
f 39/80/36 40/81/36 38/82/36 37/83/36
f 40/84/37 33/71/37 36/72/37 35/85/37
f 26/50/38 28/52/38 32/59/38
f 33/79/39 32/86/39 39/78/39 40/59/39
f 32/59/40 34/78/40 39/79/40
f 34/78/41 40/86/41 39/79/41
f 34/78/42 27/51/42 33/59/42
f 26/50/43 85/49/43 28/52/43
f 1/58/44 83/57/44 85/49/44 26/50/44
f 4/6/45 82/87/45 6/88/45 8/7/45
f 2/89/46 80/90/46 82/91/46 4/73/46
f 2/61/47 80/92/47 88/93/47 29/62/47
f 83/1/48 81/4/48 43/3/48 41/2/48
f 43/5/49 47/87/49 48/88/49 44/8/49
f 44/11/50 42/11/50 41/11/50 43/11/50
f 81/5/51 45/87/51 47/88/51 43/8/51
f 82/12/52 46/94/52 45/13/52 81/14/52
f 49/16/53 55/17/53 54/18/53 51/15/53
f 52/23/54 48/26/54 47/21/54 51/20/54
f 49/19/55 45/22/55 46/25/55 50/24/55
f 51/20/56 47/21/56 45/22/56 49/19/56
f 50/24/57 46/25/57 48/26/57 52/23/57
f 55/28/58 61/29/58 62/30/58 54/27/58
f 51/15/59 54/18/59 53/32/59 52/31/59
f 52/16/60 53/17/60 56/18/60 50/15/60
f 50/15/61 56/18/61 55/32/61 49/31/61
f 60/36/62 57/33/62 58/34/62 59/35/62
f 54/27/63 58/42/63 57/43/63 53/40/63
f 53/40/64 57/41/64 60/36/64 56/37/64
f 56/37/65 60/38/65 59/39/65 55/28/65
f 61/29/66 63/44/66 64/45/66 62/30/66
f 59/39/67 63/47/67 61/29/67 55/28/67
f 54/27/68 62/30/68 64/46/68 58/42/68
f 58/34/69 64/38/69 63/48/69 59/35/69
f 84/49/70 86/52/70 67/51/70 65/50/70
f 42/53/71 65/77/71 66/76/71 41/54/71
f 80/57/72 84/49/72 65/50/72 42/58/72
f 67/51/73 72/59/73 65/50/73
f 41/60/74 68/62/74 42/61/74
f 85/63/75 89/66/75 70/65/75 66/64/75
f 66/64/76 70/65/76 69/68/76 65/67/76
f 84/69/77 69/68/77 65/67/77
f 65/70/78 75/72/78 72/71/78
f 34/78/79 32/59/79 28/52/79 27/51/79
f 86/75/80 27/74/80 87/74/80 92/75/80
f 65/51/81 72/78/81 71/59/81 66/52/81
f 73/78/82 79/79/82 72/59/82
f 78/80/83 76/83/83 77/82/83 79/81/83
f 79/84/84 74/85/84 75/72/84 72/71/84
f 66/50/85 71/59/85 28/52/85
f 72/78/86 79/86/86 78/79/86 71/59/86
f 71/59/87 78/79/87 73/78/87
f 73/78/88 78/79/88 79/86/88
f 73/78/89 72/59/89 67/51/89
f 66/50/90 28/52/90 85/49/90
f 41/58/91 66/50/91 85/49/91 83/57/91
f 44/8/92 48/5/92 46/87/92 82/88/92
f 42/89/93 44/73/93 82/91/93 80/90/93
f 42/61/94 68/62/94 88/93/94 80/92/94
f 28/52/95 71/59/95 73/78/95 67/51/95
f 28/95/96 67/73/96 91/73/96 90/95/96
f 87/95/97 90/96/97 94/97/97 93/98/97
f 92/96/98 87/99/98 93/100/98 96/97/98
f 91/95/99 92/96/99 96/97/99 95/98/99
f 90/96/100 91/99/100 95/100/100 94/97/100
f 95/98/101 96/97/101 100/101/101 99/102/101
f 94/97/102 95/100/102 99/103/102 98/101/102
f 93/98/103 94/97/103 98/101/103 97/102/103
f 96/97/104 93/100/104 97/103/104 100/101/104
f 98/104/105 99/105/105 103/106/105 102/107/105
f 97/108/106 98/104/106 102/107/106 101/109/106
f 100/104/107 97/105/107 101/106/107 104/107/107
f 99/108/108 100/104/108 104/107/108 103/109/108
f 104/107/109 101/106/109 105/110/109 108/111/109
f 103/109/110 104/107/110 108/111/110 107/112/110
f 102/107/111 103/106/111 107/110/111 106/111/111
f 101/109/112 102/107/112 106/111/112 105/112/112
o Icosphere
v 1.866131 8.519647 1.772706
v 1.964521 9.031751 1.732778
v 1.441077 9.159960 0.847035
v 1.665433 10.568422 2.194742
v 1.934340 9.990514 1.219985
v 1.383392 8.676785 0.710950
v 1.450129 8.733125 0.652311
v 2.053625 8.952003 1.765617
v 1.502171 9.105998 0.759460
v 1.977427 8.573806 1.797497
v 1.160912 8.546623 0.572232
v 2.007661 7.745652 1.757765
v 2.371104 10.276906 1.753633
v 1.197762 10.741263 3.029347
v -0.612557 8.994253 1.715799
v -0.530575 9.511464 1.681700
v 0.036870 9.422097 0.681059
v 0.188524 10.851261 2.142093
v -0.309477 10.409566 0.979196
v 0.001940 8.953115 0.554875
v -0.046243 9.029963 0.498498
v -0.639044 9.469801 1.715000
v -0.015111 9.391636 0.583955
v -0.697465 9.087057 1.742650
v 0.340633 8.730109 0.361750
v -0.997071 8.321136 1.646823
v -0.474877 10.824640 1.712429
v 0.826777 10.808317 3.029387
v 0.786102 9.518923 2.946669
v 0.683399 8.991680 3.020755
v 0.892512 10.521770 0.666593
v 0.868591 10.945478 1.529699
v 0.776261 9.466126 3.065866
v 0.700428 9.076878 3.117874
v 0.645288 8.777452 3.963665
v 0.498177 8.009005 4.721676
vn 0.6002 0.7670 -0.2266
vn 0.8167 -0.2519 -0.5191
vn 0.6997 -0.0773 0.7103
vn 0.9728 0.1322 0.1900
vn 0.8828 -0.1048 -0.4579
vn 0.2915 -0.7677 0.5707
vn 0.4529 -0.8297 -0.3263
vn 0.6334 -0.6700 -0.3871
vn -0.1878 -0.9822 -0.0084
vn 0.8520 0.1654 -0.4968
vn 0.8727 0.2093 0.4411
vn 0.7027 -0.0617 0.7088
vn 0.5930 0.7537 -0.2832
vn 0.5665 0.7458 -0.3504
vn 0.5020 0.0882 -0.8604
vn 0.5431 0.8138 0.2068
vn 0.6145 0.7248 0.3115
vn -0.6554 0.2473 -0.7136
vn -0.3137 0.9167 -0.2474
vn 0.2138 0.8924 -0.3974
vn -0.8648 -0.1596 -0.4761
vn -0.6879 0.1234 0.7153
vn -0.8883 0.3980 0.2292
vn 0.0734 0.5395 0.8388
vn 0.1664 0.9300 0.3279
vn 0.1503 0.2348 -0.9604
vn -0.8688 0.1414 -0.4745
vn -0.5624 -0.6061 0.5624
vn -0.7075 -0.6155 -0.3472
vn -0.6405 -0.7007 -0.3142
vn 0.2573 0.7053 -0.6606
vn -0.6863 0.4505 -0.5710
vn -0.7546 0.4880 0.4388
vn -0.6825 0.1915 0.7053
vn -0.3201 0.9230 -0.2135
vn -0.1955 0.8782 -0.4365
vn -0.2638 0.1928 -0.9451
vn 0.1001 -0.0909 -0.9908
vn -0.2082 0.9556 0.2087
vn -0.3060 0.8972 0.3183
vn 0.7021 0.0050 -0.7120
vn -0.0475 -0.6490 -0.7593
vn -0.1359 -0.8788 -0.4574
vt 0.312500 0.750000
vt 0.312500 0.437500
vt 0.328125 0.500000
vt 0.328125 0.750000
vt 0.437500 0.750000
vt 0.437500 0.937500
vt 0.421875 0.812500
vt 0.437500 0.500000
vt 0.421875 0.625000
vt 0.453125 0.437500
vt 0.281250 0.562500
vt 0.296875 0.687500
vt 0.281250 0.687500
vt 0.218750 0.875000
vt 0.250000 0.750000
vt 0.250000 1.000000
vt 0.203125 0.937500
vt 0.187500 0.937500
vt 0.187500 0.812500
vt 0.156250 0.937500
vt 0.156250 0.812500
vt 0.390625 0.750000
vt 0.390625 0.812500
vt 0.125000 0.750000
vt 0.203125 0.750000
vt 0.203125 0.562500
vt -0.000000 0.562500
vt 0.109375 0.562500
vt 0.109375 1.000000
vt -0.000000 1.000000
vt 0.312500 1.000000
vt 0.328125 0.937500
vt 0.453125 1.000000
vt 0.343750 0.750000
vt 0.375000 0.625000
vt 0.234375 0.562500
vt 0.234375 0.687500
vt 0.218750 0.687500
vt 0.125000 0.937500
vt 0.140625 0.812500
vt 0.140625 0.937500
vt 0.296875 0.750000
vt 0.296875 1.000000
s 0
usemtl Material.001
f 111/113/113 110/114/113 116/115/113 117/116/113
f 110/117/114 111/118/114 113/119/114
f 137/120/115 110/117/115 112/121/115
f 110/117/116 113/119/116 112/121/116
f 117/116/117 116/115/117 118/114/117 115/113/117
f 138/120/118 109/115/118 118/114/118 142/122/118
f 109/115/119 114/116/119 115/113/119 118/114/119
f 114/123/120 109/124/120 119/125/120
f 144/126/121 134/127/121 120/128/121
f 119/129/122 109/130/122 120/131/122
f 109/130/123 143/132/123 144/133/123 120/131/123
f 116/115/124 141/120/124 142/122/124 118/114/124
f 112/121/125 113/119/125 140/134/125
f 113/119/126 139/135/126 140/134/126
f 111/118/127 139/135/127 113/119/127
f 109/136/128 138/137/128 143/138/128
f 110/114/129 137/122/129 141/120/129 116/115/129
f 110/139/130 137/140/130 122/141/130 121/142/130
f 125/143/131 131/144/131 130/118/131 124/145/131
f 111/113/132 117/116/132 131/144/132 125/143/132
f 124/146/133 127/144/133 125/115/133
f 137/120/134 126/147/134 124/115/134
f 124/115/135 126/147/135 127/146/135
f 137/120/136 112/121/136 126/147/136
f 112/121/137 140/134/137 126/147/137
f 117/116/138 115/113/138 129/143/138 131/144/138
f 131/144/139 129/143/139 132/145/139 130/118/139
f 138/120/140 142/122/140 132/145/140 123/118/140
f 123/118/141 132/145/141 129/143/141 128/144/141
f 128/148/142 133/149/142 123/150/142
f 114/123/143 119/125/143 133/149/143 128/148/143
f 133/151/144 134/152/144 123/153/144
f 123/153/145 134/152/145 144/133/145 143/132/145
f 130/118/146 132/145/146 142/122/146 141/120/146
f 126/147/147 140/134/147 127/146/147
f 127/146/148 140/134/148 139/135/148
f 125/144/149 127/146/149 139/135/149
f 125/144/150 139/135/150 111/118/150
f 123/136/151 143/138/151 138/137/151
f 124/145/152 130/118/152 141/120/152 137/122/152
f 124/140/153 135/141/153 136/142/153 137/139/153
f 128/144/154 129/143/154 115/113/154 114/116/154
f 120/128/155 134/127/155 133/154/155 119/155/155
o BezierCircle
v -26.683170 10.649023 -1.546623
v -26.439865 10.566792 -5.096894
v -25.731138 10.327261 -8.502262
v -24.588779 9.941174 -11.731503
v -23.044582 9.419273 -14.753392
v -21.130333 8.772306 -17.536705
v -18.877823 8.011015 -20.050215
v -16.318838 7.146144 -22.262699
v -13.485172 6.188437 -24.142933
v -10.408615 5.148640 -25.659693
v -7.120955 4.037494 -26.781750
v -3.653981 2.865746 -27.477882
v -0.039484 1.644138 -27.716871
v 3.575013 0.422530 -27.477888
v 7.041987 -0.749218 -26.781755
v 10.329647 -1.860364 -25.659697
v 13.406204 -2.900162 -24.142939
v 16.239868 -3.857868 -22.262705
v 18.798851 -4.722738 -20.050219
v 21.051361 -5.484029 -17.536705
v 22.965611 -6.130996 -14.753392
v 24.509808 -6.652895 -11.731503
v 25.652164 -7.038984 -8.502262
v 26.360889 -7.278514 -5.096893
v 26.604202 -7.360748 -1.546623
v 26.360897 -7.278516 2.003647
v 25.652170 -7.038985 5.409015
v 24.509811 -6.652897 8.638256
v 22.965614 -6.130998 11.660146
v 21.051365 -5.484031 14.443458
v 18.798855 -4.722739 16.956968
v 16.239870 -3.857868 19.169453
v 13.406204 -2.900162 21.049686
v 10.329647 -1.860364 22.566446
v 7.041987 -0.749218 23.688503
v 3.575013 0.422530 24.384636
v -0.039484 1.644138 24.623625
v -3.653981 2.865746 24.384642
v -7.120955 4.037494 23.688509
v -10.408615 5.148640 22.566450
v -13.485172 6.188437 21.049692
v -16.318836 7.146143 19.169458
v -18.877819 8.011014 16.956972
v -21.130329 8.772305 14.443460
v -23.044579 9.419271 11.660146
v -24.588776 9.941172 8.638256
v -25.731133 10.327259 5.409015
v -26.439857 10.566790 2.003647
l 145 146
l 146 147
l 147 148
l 148 149
l 149 150
l 150 151
l 151 152
l 152 153
l 153 154
l 154 155
l 155 156
l 156 157
l 157 158
l 158 159
l 159 160
l 160 161
l 161 162
l 162 163
l 163 164
l 164 165
l 165 166
l 166 167
l 167 168
l 168 169
l 169 170
l 170 171
l 171 172
l 172 173
l 173 174
l 174 175
l 175 176
l 176 177
l 177 178
l 178 179
l 179 180
l 180 181
l 181 182
l 182 183
l 183 184
l 184 185
l 185 186
l 186 187
l 187 188
l 188 189
l 189 190
l 190 191
l 191 192
l 192 145
