# Blender 3.6.4
# www.blender.org
mtllib ost53.mtl
o Cube
v -1.671103 -0.309259 1.041284
v -1.517094 0.809219 -1.067103
v -2.185930 -1.440157 0.221434
v -2.130585 -0.509847 -1.802469
v -0.350457 -3.241781 -0.434757
v -0.312745 -2.621417 -1.845383
v -1.793252 -3.278924 -0.604613
v -1.752929 -2.599506 -1.966684
v -0.889138 -3.117940 -1.263556
v -0.879642 -2.957939 -1.584320
v -1.210950 -3.119438 -1.273830
v -1.201454 -2.959436 -1.594594
v -1.220986 -3.819356 -1.850423
v -1.229924 -3.921815 -1.506907
v -0.908118 -3.930673 -1.501175
v -0.899180 -3.828214 -1.844692
v -1.502812 -4.650126 -2.252310
v -1.505376 -4.452912 -1.705974
v -0.653612 -4.430898 -1.680135
v -0.640800 -4.262629 -2.141283
v -0.954313 -4.350505 -0.816283
v -1.231143 -4.336543 -0.819321
v -0.735724 -4.638298 -0.896434
v -1.462378 -4.618296 -0.909375
v -1.357914 1.792925 -0.939964
v -1.306772 1.674754 0.828131
v -0.511797 3.172605 -0.104717
v 0.001386 3.089541 0.156215
v -2.217358 0.705327 -1.381334
v -1.736467 0.955507 -1.388857
v -1.675637 0.818927 1.026730
v -2.001107 1.794955 0.236117
v -2.127934 1.869831 -0.368675
v -2.855788 2.126910 0.322126
v -4.651245 -0.744514 1.261474
v -2.419606 0.232748 -1.123174
v -4.959892 0.333159 2.152537
v -5.187276 -0.151963 1.208798
v -4.429736 0.655442 1.561060
v -4.647353 0.632729 1.177674
v 1.597498 0.674312 0.546680
v 1.451706 0.206768 -1.866802
v 2.196690 -0.496692 0.580306
v 2.181451 -1.312014 -1.492409
v 0.507514 -2.409049 1.394191
v 0.502063 -2.940943 0.010737
v 1.966448 -2.261516 1.438378
v 1.955066 -2.857142 0.037103
v 1.090389 -2.731641 0.900748
v 1.087709 -2.871910 0.570751
v 1.411704 -2.713686 0.890506
v 1.409023 -2.853955 0.560509
v 1.292290 -3.466502 0.112873
v 1.284918 -3.647749 0.422189
v 0.965920 -3.607143 0.438379
v 0.973293 -3.425896 0.129064
v 1.503225 -3.904175 -0.257770
v 1.480388 -4.100875 0.126297
v 0.633689 -4.004237 0.157375
v 0.649226 -3.725908 -0.245646
v 0.944371 -4.179591 1.003455
v 1.219813 -4.208892 0.992851
v 0.682039 -4.402154 0.866789
v 1.402351 -4.493845 0.830230
v 1.317376 1.741477 -1.101959
v 1.329595 1.818871 0.654162
v 0.484241 3.188986 -0.158449
v 2.161057 -0.083903 -2.060596
v 1.690660 0.868172 -1.478815
v 1.716965 0.974259 0.945537
v 2.181067 2.081343 0.068224
v 2.218200 2.107165 -0.832570
v 2.941089 2.165046 0.004695
v 4.447771 -0.795365 -1.199159
v 2.470564 0.673538 -1.480894
v 4.809208 -0.594977 0.167657
v 5.030535 -0.366097 -0.869801
v 4.332109 0.081097 -0.056119
v 4.561699 0.294080 -0.367221
v 0.000000 0.659971 -2.353794
v 0.001121 -1.008004 0.695806
v 0.005600 -0.813093 -2.221217
v -0.010558 0.039074 1.345411
v -0.000000 1.618504 -1.958405
v -0.006763 1.462132 1.323489
v -0.012515 3.277171 -0.521277
v -0.414176 3.212874 -0.177834
v 0.000000 0.061724 -2.536163
v 0.004112 0.501085 1.537218
v -0.011551 3.101373 0.156638
v 0.383647 3.138887 -0.018299
v 0.073497 3.024452 -0.459933
v 0.152963 4.189153 -0.962087
v 0.395788 4.250431 -0.615371
v 0.775285 4.078136 -0.711356
v 0.443538 3.707223 -0.991904
v 0.527302 5.656856 -1.161711
v 0.724646 5.550684 -0.785515
v 1.145261 5.534009 -0.906118
v 0.972947 5.537838 -1.392020
v 0.597479 7.335971 -0.524339
v 0.792294 7.011662 -0.246874
v 1.215601 7.212642 -0.269370
v 1.008373 7.752695 -0.413131
v 0.231073 8.416798 0.671124
v 0.517088 8.023558 0.904858
v 0.992458 8.265439 0.986040
v 0.740444 8.646724 0.664353
vn -0.0573 -0.5493 0.8337
vn -0.9805 -0.1655 -0.1064
vn -0.9290 0.3481 0.1255
vn -0.1032 -0.4316 0.8961
vn 0.9869 -0.1598 -0.0205
vn -0.0271 -0.2791 0.9599
vn -0.2663 -0.8594 -0.4365
vn 0.3574 -0.8551 -0.3757
vn 0.0403 -0.9820 -0.1846
vn 0.0474 -0.6725 -0.7386
vn 0.0249 0.8538 0.5200
vn -0.9995 0.0280 -0.0167
vn 0.0271 0.2852 -0.9581
vn 0.9995 -0.0278 0.0167
vn 0.2299 -0.9727 0.0315
vn -0.9155 0.3986 -0.0543
vn -0.0684 0.4832 -0.8729
vn 0.8975 0.4100 0.1622
vn -0.0249 -0.2857 0.9580
vn 0.8632 0.4327 0.2602
vn -0.8617 0.4640 0.2056
vn 0.0069 -0.9733 -0.2294
vn -0.4712 0.6075 -0.6394
vn -0.9842 0.1745 0.0295
vn -0.5873 0.2548 -0.7682
vn -0.4136 0.6435 -0.6441
vn -0.3170 0.8472 0.4263
vn -0.2662 0.2629 0.9274
vn -0.9164 0.3973 0.0487
vn 0.4444 -0.5709 0.6903
vn 0.5086 -0.4335 0.7439
vn -0.1255 0.8698 0.4772
vn -0.6387 0.4473 0.6261
vn -0.1321 -0.9887 -0.0705
vn -0.6009 0.2951 -0.7429
vn -0.7246 0.6889 -0.0206
vn -0.6809 0.2220 -0.6979
vn -0.4097 0.6719 0.6170
vn 0.3453 -0.9231 -0.1691
vn 0.2590 0.4448 0.8574
vn -0.5421 0.7990 0.2603
vn -0.4029 0.6337 -0.6604
vn -0.2093 0.5706 0.7941
vn -0.2636 0.0947 0.9600
vn -0.0878 -0.0553 -0.9946
vn -0.3789 0.2734 -0.8841
vn -0.2666 0.7195 -0.6414
vn 0.2818 -0.1839 0.9417
vn 0.9932 -0.1102 0.0372
vn 0.8951 0.4192 -0.1520
vn -0.0611 0.4361 0.8978
vn -0.9660 -0.2576 0.0204
vn 0.0204 -0.4595 0.8879
vn 0.3447 -0.8649 0.3648
vn -0.2175 -0.9083 0.3573
vn 0.0630 -0.7999 0.5968
vn 0.0566 -0.9963 0.0643
vn 0.1140 0.6988 0.7062
vn 0.9881 -0.1540 -0.0026
vn -0.0113 0.6076 -0.7941
vn -0.9866 0.1629 0.0032
vn -0.1494 -0.8433 -0.5162
vn 0.9392 0.2826 0.1950
vn 0.1131 0.6976 -0.7075
vn -0.8182 0.4948 0.2929
vn -0.0206 -0.5055 0.8626
vn -0.7816 0.4883 0.3882
vn 0.9107 0.2750 0.3081
vn -0.1249 -0.8647 -0.4865
vn 0.4294 0.6201 -0.6566
vn 0.9842 0.1670 -0.0591
vn 0.4384 0.3985 -0.8056
vn 0.0232 0.5553 -0.8314
vn 0.3246 0.9247 -0.1987
vn 0.2877 0.3163 0.9040
vn 0.9136 0.4058 -0.0262
vn -0.4360 -0.5072 0.7434
vn -0.0970 -0.4242 0.9003
vn -0.0382 0.2787 0.9596
vn 0.5453 0.4316 0.7186
vn 0.3408 -0.9399 0.0214
vn 0.5789 0.6092 -0.5420
vn 0.7814 0.4667 0.4142
vn 0.4806 0.4632 -0.7446
vn 0.3121 0.6112 0.7273
vn -0.6086 -0.7424 -0.2802
vn 0.0806 0.0247 0.9964
vn 0.6005 0.3803 0.7035
vn 0.3768 0.8431 -0.3837
vn 0.2443 0.5644 0.7885
vn 0.4419 0.0156 0.8969
vn 0.0642 -0.7117 -0.6996
vn 0.2956 -0.0885 -0.9512
vn 0.2986 0.5641 -0.7698
vn 0.1925 0.4711 0.8608
vn 0.0074 -0.9664 -0.2571
vn -0.5300 0.6456 0.5498
vn -0.5631 -0.2945 -0.7721
vn 0.7631 -0.5775 -0.2902
vn 0.3637 0.4377 0.8223
vn 0.8558 -0.3093 -0.4147
vn 0.2735 0.0578 0.9601
vn -0.8135 0.2751 0.5124
vn -0.3786 -0.0642 -0.9233
vn 0.2304 -0.3500 0.9080
vn -0.8854 -0.1284 0.4466
vn -0.2547 0.3766 -0.8907
vn 0.8982 0.1474 -0.4141
vn -0.3773 0.6444 -0.6652
vn 0.9122 0.3881 -0.1318
vn 0.2986 -0.6930 0.6562
vn -0.8707 -0.4605 0.1726
vt 0.203125 0.375000
vt 0.109375 0.375000
vt 0.109375 0.062500
vt 0.203125 0.062500
vt 0.218750 0.375000
vt 0.218750 0.187500
vt 0.265625 0.250000
vt 0.265625 0.375000
vt 0.250000 0.144531
vt 0.226074 0.289062
vt 0.250000 0.250000
vt 0.328125 0.375000
vt 0.281250 0.312500
vt 0.328125 0.312500
vt 0.359375 0.250000
vt 0.343750 0.250000
vt 0.343750 0.062500
vt 0.359375 0.062500
vt 0.312500 0.187500
vt 0.312500 0.125000
vt 0.328125 0.062500
vt 0.328125 0.250000
vt 0.296875 0.125000
vt 0.296875 0.187500
vt 0.281250 0.250000
vt 0.281250 0.062500
vt 0.437500 0.187500
vt 0.437500 0.250000
vt 0.406250 0.250000
vt 0.406250 0.187500
vt 0.375000 0.250000
vt 0.375000 0.062500
vt 0.484375 0.375000
vt 0.468750 0.375000
vt 0.468750 0.312500
vt 0.484375 0.312500
vt 0.453125 0.250000
vt 0.453125 0.375000
vt 0.437500 0.375000
vt 0.453125 0.187500
vt 0.484375 0.125000
vt 0.437500 0.062500
vt 0.453125 0.062500
vt 0.390625 0.312500
vt 0.390625 0.125000
vt 0.406250 0.062500
vt 0.406250 0.375000
vt 0.453125 0.312500
vt 0.500000 0.187500
vt 0.562500 0.187500
vt 0.500000 0.500000
vt 0.500000 0.375000
vt 0.625000 0.062500
vt 0.578125 0.062500
vt 0.578125 0.187500
vt 0.625000 0.187500
vt 0.500000 0.062500
vt 0.562500 0.062500
vt 0.562500 0.375000
vt 0.609375 0.875000
vt 0.671875 0.875000
vt 0.640625 1.000000
vt 0.765625 0.437500
vt 0.718750 0.437500
vt 0.718750 0.250000
vt 0.765625 0.250000
vt 0.687500 0.437500
vt 0.640625 0.250000
vt 0.640625 0.437500
vt 0.593750 1.000000
vt 0.578125 1.000000
vt 0.578125 0.625000
vt 0.000000 0.062500
vt 0.093750 0.500000
vt 0.265625 0.500000
vt 0.578125 0.312500
vt 0.625000 0.312500
vt 0.562500 0.500000
vt 0.625000 0.375000
vt 0.656250 0.562500
vt 0.609375 0.562500
vt 0.609375 0.750000
vt 0.656250 0.750000
vt 0.468750 1.000000
vt 0.468750 0.625000
vt 0.625000 0.500000
vt 0.218750 0.062500
vt 0.265625 0.062500
vt 0.000000 0.375000
vt 0.093750 0.375000
vt 0.093750 0.062500
vt 0.765625 0.875000
vt 0.765625 1.000000
vt 0.281250 0.375000
vt 0.671875 0.500000
vt 0.687500 0.500000
vt 0.687500 0.625000
vt 0.671875 0.625000
vt 0.703125 0.500000
vt 0.703125 0.625000
vt 0.687500 0.812500
vt 0.671875 0.812500
vt 0.703125 0.812500
vt 0.734375 0.500000
vt 0.750000 0.500000
vt 0.750000 0.687500
vt 0.734375 0.687500
vt 0.718750 0.500000
vt 0.718750 0.687500
vt 0.750000 0.812500
vt 0.734375 0.812500
vt 0.718750 0.812500
s 0
usemtl Material
f 83/1/1 1/2/1 3/3/1 81/4/1
f 3/5/2 4/6/2 8/7/2 7/8/2
f 4/9/3 3/10/3 1/11/3 2/11/3
f 81/11/4 3/10/4 7/7/4 5/7/4
f 82/12/5 81/13/5 5/13/5 6/14/5
f 9/15/6 11/16/6 14/17/6 15/18/6
f 12/19/7 11/20/7 7/21/7 8/22/7
f 9/23/8 10/24/8 6/25/8 5/26/8
f 11/20/9 9/23/9 5/26/9 7/21/9
f 10/24/10 12/19/10 8/22/10 6/25/10
f 15/27/11 14/28/11 22/29/11 21/30/11
f 11/31/12 12/15/12 13/18/12 14/32/12
f 12/15/13 10/16/13 16/17/13 13/18/13
f 10/31/14 9/15/14 15/18/14 16/32/14
f 20/33/15 19/34/15 18/35/15 17/36/15
f 14/28/16 13/37/16 17/38/16 18/39/16
f 13/37/17 16/40/17 20/41/17 17/36/17
f 16/40/18 15/27/18 19/42/18 20/43/18
f 21/30/19 22/29/19 24/44/19 23/45/19
f 19/42/20 15/27/20 21/30/20 23/46/20
f 14/28/21 18/39/21 24/47/21 22/29/21
f 18/35/22 19/34/22 23/38/22 24/48/22
f 84/49/23 25/50/23 27/51/23 86/52/23
f 2/53/24 1/54/24 26/55/24 25/56/24
f 80/57/25 2/58/25 25/50/25 84/49/25
f 27/51/26 25/50/26 33/59/26
f 1/60/27 2/61/27 29/62/27
f 85/63/28 26/64/28 31/65/28 89/66/28
f 26/64/29 25/67/29 30/68/29 31/65/29
f 84/69/30 25/67/30 30/68/30
f 25/70/31 33/71/31 36/72/31
f 27/73/32 28/73/32 90/73/32 87/73/32
f 67/74/33 86/75/33 92/75/33 91/74/33
f 25/56/34 26/55/34 32/76/34 33/77/34
f 34/78/35 33/59/35 40/79/35
f 39/80/36 40/81/36 38/82/36 37/83/36
f 40/84/37 33/71/37 36/72/37 35/85/37
f 26/50/38 28/52/38 32/59/38
f 33/79/39 32/86/39 39/78/39 40/59/39
f 32/59/40 34/78/40 39/79/40
f 34/78/41 40/86/41 39/79/41
f 34/78/42 27/51/42 33/59/42
f 26/50/43 85/49/43 28/52/43
f 1/58/44 83/57/44 85/49/44 26/50/44
f 4/6/45 82/87/45 6/88/45 8/7/45
f 2/89/46 80/90/46 82/91/46 4/73/46
f 2/61/47 80/92/47 88/93/47 29/62/47
f 83/1/48 81/4/48 43/3/48 41/2/48
f 43/5/49 47/87/49 48/88/49 44/8/49
f 44/11/50 42/11/50 41/11/50 43/11/50
f 81/5/51 45/87/51 47/88/51 43/8/51
f 82/12/52 46/94/52 45/13/52 81/14/52
f 49/16/53 55/17/53 54/18/53 51/15/53
f 52/23/54 48/26/54 47/21/54 51/20/54
f 49/19/55 45/22/55 46/25/55 50/24/55
f 51/20/56 47/21/56 45/22/56 49/19/56
f 50/24/57 46/25/57 48/26/57 52/23/57
f 55/28/58 61/29/58 62/30/58 54/27/58
f 51/15/59 54/18/59 53/32/59 52/31/59
f 52/16/60 53/17/60 56/18/60 50/15/60
f 50/15/61 56/18/61 55/32/61 49/31/61
f 60/36/62 57/33/62 58/34/62 59/35/62
f 54/27/63 58/42/63 57/43/63 53/40/63
f 53/40/64 57/41/64 60/36/64 56/37/64
f 56/37/65 60/38/65 59/39/65 55/28/65
f 61/29/66 63/44/66 64/45/66 62/30/66
f 59/39/67 63/47/67 61/29/67 55/28/67
f 54/27/68 62/30/68 64/46/68 58/42/68
f 58/34/69 64/38/69 63/48/69 59/35/69
f 84/49/70 86/52/70 67/51/70 65/50/70
f 42/53/71 65/77/71 66/76/71 41/54/71
f 80/57/72 84/49/72 65/50/72 42/58/72
f 67/51/73 72/59/73 65/50/73
f 41/60/74 68/62/74 42/61/74
f 85/63/75 89/66/75 70/65/75 66/64/75
f 66/64/76 70/65/76 69/68/76 65/67/76
f 84/69/77 69/68/77 65/67/77
f 65/70/78 75/72/78 72/71/78
f 34/78/79 32/59/79 28/52/79 27/51/79
f 86/75/80 27/74/80 87/74/80 92/75/80
f 65/51/81 72/78/81 71/59/81 66/52/81
f 73/78/82 79/79/82 72/59/82
f 78/80/83 76/83/83 77/82/83 79/81/83
f 79/84/84 74/85/84 75/72/84 72/71/84
f 66/50/85 71/59/85 28/52/85
f 72/78/86 79/86/86 78/79/86 71/59/86
f 71/59/87 78/79/87 73/78/87
f 73/78/88 78/79/88 79/86/88
f 73/78/89 72/59/89 67/51/89
f 66/50/90 28/52/90 85/49/90
f 41/58/91 66/50/91 85/49/91 83/57/91
f 44/8/92 48/5/92 46/87/92 82/88/92
f 42/89/93 44/73/93 82/91/93 80/90/93
f 42/61/94 68/62/94 88/93/94 80/92/94
f 28/52/95 71/59/95 73/78/95 67/51/95
f 28/95/96 67/73/96 91/73/96 90/95/96
f 87/95/97 90/96/97 94/97/97 93/98/97
f 92/96/98 87/99/98 93/100/98 96/97/98
f 91/95/99 92/96/99 96/97/99 95/98/99
f 90/96/100 91/99/100 95/100/100 94/97/100
f 95/98/101 96/97/101 100/101/101 99/102/101
f 94/97/102 95/100/102 99/103/102 98/101/102
f 93/98/103 94/97/103 98/101/103 97/102/103
f 96/97/104 93/100/104 97/103/104 100/101/104
f 98/104/105 99/105/105 103/106/105 102/107/105
f 97/108/106 98/104/106 102/107/106 101/109/106
f 100/104/107 97/105/107 101/106/107 104/107/107
f 99/108/108 100/104/108 104/107/108 103/109/108
f 104/107/109 101/106/109 105/110/109 108/111/109
f 103/109/110 104/107/110 108/111/110 107/112/110
f 102/107/111 103/106/111 107/110/111 106/111/111
f 101/109/112 102/107/112 106/111/112 105/112/112
o Icosphere
v 1.698323 8.209614 1.936471
v 1.793184 8.718291 1.902460
v 1.255040 8.867105 1.088193
v 1.467512 10.228198 2.380534
v 1.685657 9.655769 1.491426
v 1.223503 8.399807 0.930425
v 1.286928 8.455526 0.876241
v 1.883511 8.638240 1.933018
v 1.321052 8.817869 1.004718
v 1.809513 8.262362 1.960720
v 1.052575 8.300787 0.792980
v 1.843066 7.440244 1.916468
v 2.197167 9.954551 1.933002
v 1.061138 10.418450 3.215040
v -0.766436 8.703074 1.887968
v -0.688379 9.216837 1.861522
v -0.118589 9.144192 0.854332
v 0.002430 10.522898 2.321635
v -0.513680 10.097868 1.155821
v -0.127017 8.692200 0.715924
v -0.178612 8.768921 0.665032
v -0.795353 9.176210 1.895875
v -0.163417 9.119688 0.757526
v -0.851245 8.795782 1.917954
v 0.271370 8.500340 0.502222
v -1.137955 8.040258 1.796547
v -0.636009 10.523119 1.910890
v 0.690344 10.487650 3.219547
v 0.650550 9.206299 3.130120
v 0.545218 8.679008 3.200049
v 0.666451 10.210600 0.933189
v 0.597698 10.587597 1.757400
v 0.642128 9.152275 3.248875
v 0.564313 8.763020 3.297815
v 0.519775 8.454773 4.141057
v 0.378614 7.679141 4.892858
vn 0.5776 0.7871 -0.2165
vn 0.8111 -0.1544 -0.5642
vn 0.7175 -0.0648 0.6936
vn 0.9769 0.1693 0.1307
vn 0.8737 -0.0621 -0.4825
vn 0.2918 -0.7764 0.5587
vn 0.4460 -0.8182 -0.3628
vn 0.6868 -0.5827 -0.4343
vn -0.1966 -0.9803 -0.0180
vn 0.8633 0.1747 -0.4736
vn 0.8794 0.2054 0.4294
vn 0.7139 -0.0719 0.6966
vn 0.5596 0.7525 -0.3472
vn 0.5774 0.7596 -0.2993
vn 0.5321 0.1367 -0.8356
vn 0.5549 0.8058 0.2070
vn 0.6253 0.7192 0.3028
vn -0.6659 0.2546 -0.7012
vn -0.3041 0.9254 -0.2260
vn 0.2416 0.9078 -0.3429
vn -0.8579 -0.2067 -0.4704
vn -0.6834 0.1070 0.7222
vn -0.8890 0.3804 0.2549
vn 0.0770 0.5490 0.8323
vn 0.1771 0.9391 0.2945
vn 0.2037 0.2769 -0.9391
vn -0.8684 0.1305 -0.4783
vn -0.5622 -0.6115 0.5567
vn -0.7009 -0.6099 -0.3697
vn -0.5356 -0.7950 -0.2848
vn 0.3040 0.8210 -0.4832
vn -0.6776 0.4590 -0.5746
vn -0.7556 0.4759 0.4501
vn -0.6781 0.1835 0.7117
vn -0.2981 0.9317 -0.2077
vn -0.1647 0.8917 -0.4216
vn -0.2010 0.2186 -0.9549
vn 0.1590 -0.0441 -0.9863
vn -0.2043 0.9535 0.2217
vn -0.2990 0.8959 0.3285
vn 0.6952 0.0138 -0.7187
vn -0.0150 -0.6206 -0.7840
vn -0.1274 -0.8564 -0.5004
vt 0.312500 0.750000
vt 0.312500 0.437500
vt 0.328125 0.500000
vt 0.328125 0.750000
vt 0.437500 0.750000
vt 0.437500 0.937500
vt 0.421875 0.812500
vt 0.437500 0.500000
vt 0.421875 0.625000
vt 0.453125 0.437500
vt 0.281250 0.562500
vt 0.296875 0.687500
vt 0.281250 0.687500
vt 0.218750 0.875000
vt 0.250000 0.750000
vt 0.250000 1.000000
vt 0.203125 0.937500
vt 0.187500 0.937500
vt 0.187500 0.812500
vt 0.156250 0.937500
vt 0.156250 0.812500
vt 0.390625 0.750000
vt 0.390625 0.812500
vt 0.125000 0.750000
vt 0.203125 0.750000
vt 0.203125 0.562500
vt -0.000000 0.562500
vt 0.109375 0.562500
vt 0.109375 1.000000
vt -0.000000 1.000000
vt 0.312500 1.000000
vt 0.328125 0.937500
vt 0.453125 1.000000
vt 0.343750 0.750000
vt 0.375000 0.625000
vt 0.234375 0.562500
vt 0.234375 0.687500
vt 0.218750 0.687500
vt 0.125000 0.937500
vt 0.140625 0.812500
vt 0.140625 0.937500
vt 0.296875 0.750000
vt 0.296875 1.000000
s 0
usemtl Material.001
f 111/113/113 110/114/113 116/115/113 117/116/113
f 110/117/114 111/118/114 113/119/114
f 137/120/115 110/117/115 112/121/115
f 110/117/116 113/119/116 112/121/116
f 117/116/117 116/115/117 118/114/117 115/113/117
f 138/120/118 109/115/118 118/114/118 142/122/118
f 109/115/119 114/116/119 115/113/119 118/114/119
f 114/123/120 109/124/120 119/125/120
f 144/126/121 134/127/121 120/128/121
f 119/129/122 109/130/122 120/131/122
f 109/130/123 143/132/123 144/133/123 120/131/123
f 116/115/124 141/120/124 142/122/124 118/114/124
f 112/121/125 113/119/125 140/134/125
f 113/119/126 139/135/126 140/134/126
f 111/118/127 139/135/127 113/119/127
f 109/136/128 138/137/128 143/138/128
f 110/114/129 137/122/129 141/120/129 116/115/129
f 110/139/130 137/140/130 122/141/130 121/142/130
f 125/143/131 131/144/131 130/118/131 124/145/131
f 111/113/132 117/116/132 131/144/132 125/143/132
f 124/146/133 127/144/133 125/115/133
f 137/120/134 126/147/134 124/115/134
f 124/115/135 126/147/135 127/146/135
f 137/120/136 112/121/136 126/147/136
f 112/121/137 140/134/137 126/147/137
f 117/116/138 115/113/138 129/143/138 131/144/138
f 131/144/139 129/143/139 132/145/139 130/118/139
f 138/120/140 142/122/140 132/145/140 123/118/140
f 123/118/141 132/145/141 129/143/141 128/144/141
f 128/148/142 133/149/142 123/150/142
f 114/123/143 119/125/143 133/149/143 128/148/143
f 133/151/144 134/152/144 123/153/144
f 123/153/145 134/152/145 144/133/145 143/132/145
f 130/118/146 132/145/146 142/122/146 141/120/146
f 126/147/147 140/134/147 127/146/147
f 127/146/148 140/134/148 139/135/148
f 125/144/149 127/146/149 139/135/149
f 125/144/150 139/135/150 111/118/150
f 123/136/151 143/138/151 138/137/151
f 124/145/152 130/118/152 141/120/152 137/122/152
f 124/140/153 135/141/153 136/142/153 137/139/153
f 128/144/154 129/143/154 115/113/154 114/116/154
f 120/128/155 134/127/155 133/154/155 119/155/155
o BezierCircle
v -26.683170 10.649023 -1.546623
v -26.439865 10.566792 -5.096894
v -25.731138 10.327261 -8.502262
v -24.588779 9.941174 -11.731503
v -23.044582 9.419273 -14.753392
v -21.130333 8.772306 -17.536705
v -18.877823 8.011015 -20.050215
v -16.318838 7.146144 -22.262699
v -13.485172 6.188437 -24.142933
v -10.408615 5.148640 -25.659693
v -7.120955 4.037494 -26.781750
v -3.653981 2.865746 -27.477882
v -0.039484 1.644138 -27.716871
v 3.575013 0.422530 -27.477888
v 7.041987 -0.749218 -26.781755
v 10.329647 -1.860364 -25.659697
v 13.406204 -2.900162 -24.142939
v 16.239868 -3.857868 -22.262705
v 18.798851 -4.722738 -20.050219
v 21.051361 -5.484029 -17.536705
v 22.965611 -6.130996 -14.753392
v 24.509808 -6.652895 -11.731503
v 25.652164 -7.038984 -8.502262
v 26.360889 -7.278514 -5.096893
v 26.604202 -7.360748 -1.546623
v 26.360897 -7.278516 2.003647
v 25.652170 -7.038985 5.409015
v 24.509811 -6.652897 8.638256
v 22.965614 -6.130998 11.660146
v 21.051365 -5.484031 14.443458
v 18.798855 -4.722739 16.956968
v 16.239870 -3.857868 19.169453
v 13.406204 -2.900162 21.049686
v 10.329647 -1.860364 22.566446
v 7.041987 -0.749218 23.688503
v 3.575013 0.422530 24.384636
v -0.039484 1.644138 24.623625
v -3.653981 2.865746 24.384642
v -7.120955 4.037494 23.688509
v -10.408615 5.148640 22.566450
v -13.485172 6.188437 21.049692
v -16.318836 7.146143 19.169458
v -18.877819 8.011014 16.956972
v -21.130329 8.772305 14.443460
v -23.044579 9.419271 11.660146
v -24.588776 9.941172 8.638256
v -25.731133 10.327259 5.409015
v -26.439857 10.566790 2.003647
l 145 146
l 146 147
l 147 148
l 148 149
l 149 150
l 150 151
l 151 152
l 152 153
l 153 154
l 154 155
l 155 156
l 156 157
l 157 158
l 158 159
l 159 160
l 160 161
l 161 162
l 162 163
l 163 164
l 164 165
l 165 166
l 166 167
l 167 168
l 168 169
l 169 170
l 170 171
l 171 172
l 172 173
l 173 174
l 174 175
l 175 176
l 176 177
l 177 178
l 178 179
l 179 180
l 180 181
l 181 182
l 182 183
l 183 184
l 184 185
l 185 186
l 186 187
l 187 188
l 188 189
l 189 190
l 190 191
l 191 192
l 192 145
