# Blender 3.6.4
# www.blender.org
mtllib ost52.mtl
o Cube
v -1.667242 -0.255732 1.039264
v -1.519400 0.795461 -1.115275
v -2.182636 -1.409232 0.259696
v -2.134190 -0.559294 -1.802035
v -0.347408 -3.237344 -0.333782
v -0.314255 -2.671089 -1.766670
v -1.789973 -3.277489 -0.486969
v -1.754685 -2.656646 -1.876853
v -0.888096 -3.143733 -1.155002
v -0.879786 -2.997526 -1.482318
v -1.209936 -3.146015 -1.164193
v -1.201625 -2.999808 -1.491509
v -1.220903 -3.869863 -1.710428
v -1.228655 -3.957611 -1.362834
v -0.906822 -3.965868 -1.357741
v -0.899070 -3.878120 -1.705335
v -1.502942 -4.730452 -2.086595
v -1.504207 -4.500605 -1.539838
v -0.652262 -4.472983 -1.516037
v -0.641079 -4.324825 -1.984195
v -0.950391 -4.356205 -0.655452
v -1.227245 -4.342684 -0.658214
v -0.731701 -4.646912 -0.723963
v -1.458415 -4.628267 -0.735463
v -1.359260 1.795553 -0.946636
v -1.309019 1.684326 0.821639
v -0.509182 3.173897 -0.104827
v 0.001521 3.089001 0.156408
v -2.220629 0.677261 -1.426470
v -1.738858 0.956199 -1.393885
v -1.679007 0.827104 1.024114
v -2.015027 1.813496 0.232382
v -2.139488 1.890361 -0.372891
v -2.867337 2.155121 0.315696
v -4.707610 -0.694618 1.234278
v -2.444056 0.251373 -1.128575
v -5.007996 0.384615 2.126275
v -5.235295 -0.094802 1.179604
v -4.469491 0.701410 1.539394
v -4.684729 0.682676 1.154453
v 1.583051 0.760373 0.424344
v 1.444270 0.083835 -1.926135
v 2.194609 -0.359004 0.559654
v 2.191323 -1.384953 -1.408477
v 0.528168 -2.194246 1.560913
v 0.531478 -2.861450 0.253650
v 1.988314 -2.007809 1.614244
v 1.985614 -2.757548 0.288969
v 1.118940 -2.547279 1.133931
v 1.118304 -2.723842 0.821832
v 1.439986 -2.526254 1.121382
v 1.439350 -2.702815 0.809282
v 1.302938 -3.240411 0.289980
v 1.287933 -3.449600 0.580834
v 0.970313 -3.400347 0.599871
v 0.985319 -3.191158 0.309017
v 1.503680 -3.657386 -0.113158
v 1.471099 -3.876335 0.245543
v 0.627166 -3.758252 0.281785
v 0.654037 -3.444578 -0.092998
v 0.927077 -4.022379 1.108474
v 1.201494 -4.059492 1.095939
v 0.658545 -4.222462 0.950717
v 1.375746 -4.333677 0.907730
v 1.315759 1.725415 -1.126301
v 1.328575 1.822140 0.622792
v 0.481796 3.189795 -0.159399
v 2.156700 -0.218813 -2.095698
v 1.691506 0.852885 -1.491887
v 1.718172 0.984367 0.922903
v 2.190344 2.098377 0.059434
v 2.221339 2.122937 -0.842254
v 2.951829 2.193698 -0.009020
v 4.491039 -0.754774 -1.200550
v 2.480346 0.682043 -1.484877
v 4.864875 -0.534687 0.159916
v 5.070738 -0.313045 -0.882286
v 4.374684 0.131524 -0.065141
v 4.597335 0.344860 -0.381008
v 0.000000 0.659971 -2.353794
v 0.001398 -0.989799 0.697891
v 0.006426 -0.837329 -2.211681
v -0.011932 0.068464 1.327748
v -0.000000 1.618504 -1.958405
v -0.007811 1.469618 1.309987
v -0.012479 3.276611 -0.521096
v -0.413149 3.212859 -0.180235
v 0.000000 0.061724 -2.536163
v 0.003589 0.511127 1.528513
v -0.012696 3.102896 0.155640
v 0.376400 3.139348 -0.002214
v 0.080995 3.012717 -0.449096
v 0.202242 4.152196 -0.993006
v 0.428326 4.214391 -0.635703
v 0.812128 4.042510 -0.712799
v 0.486014 3.666766 -0.992534
v 0.585501 5.618382 -1.176723
v 0.764364 5.513036 -0.791170
v 1.190326 5.496057 -0.891212
v 1.041761 5.498814 -1.384900
v 0.607930 7.285111 -0.510144
v 0.790741 6.957785 -0.228060
v 1.212965 7.162307 -0.225282
v 1.005345 7.702264 -0.363713
v 0.157115 8.316000 0.698627
v 0.436463 7.919156 0.934325
v 0.902318 8.165284 1.050404
v 0.662012 8.553825 0.728442
vn -0.0584 -0.5270 0.8478
vn -0.9805 -0.1709 -0.0966
vn -0.9291 0.3513 0.1152
vn -0.0988 -0.3956 0.9131
vn 0.9871 -0.1594 -0.0177
vn -0.0238 -0.2380 0.9710
vn -0.2666 -0.8775 -0.3987
vn 0.3504 -0.8710 -0.3443
vn 0.0373 -0.9884 -0.1475
vn 0.0429 -0.7069 -0.7060
vn 0.0255 0.8752 0.4831
vn -0.9995 0.0262 -0.0147
vn 0.0238 0.2442 -0.9694
vn 0.9996 -0.0260 0.0148
vn 0.2387 -0.9677 0.0808
vn -0.9170 0.3925 -0.0716
vn -0.0694 0.4479 -0.8914
vn 0.8976 0.4175 0.1416
vn -0.0216 -0.2447 0.9694
vn 0.8635 0.4443 0.2388
vn -0.8626 0.4702 0.1868
vn 0.0097 -0.9826 -0.1854
vn -0.4680 0.6094 -0.6400
vn -0.9844 0.1740 0.0271
vn -0.5748 0.2695 -0.7727
vn -0.4005 0.6447 -0.6511
vn -0.3212 0.8596 0.3974
vn -0.2612 0.2667 0.9277
vn -0.9162 0.3980 0.0469
vn 0.4419 -0.5693 0.6933
vn 0.4975 -0.4377 0.7489
vn -0.1233 0.8724 0.4729
vn -0.6442 0.4664 0.6062
vn -0.1480 -0.9867 -0.0673
vn -0.5926 0.3073 -0.7446
vn -0.7152 0.6985 -0.0236
vn -0.6723 0.2306 -0.7034
vn -0.3999 0.6695 0.6259
vn 0.3343 -0.9272 -0.1691
vn 0.2597 0.4381 0.8606
vn -0.5331 0.8055 0.2589
vn -0.3937 0.6382 -0.6616
vn -0.2051 0.5686 0.7966
vn -0.2563 0.0956 0.9619
vn -0.0906 -0.0947 -0.9914
vn -0.3739 0.2503 -0.8931
vn -0.2666 0.7100 -0.6518
vn 0.3040 -0.1272 0.9441
vn 0.9946 -0.0921 0.0478
vn 0.8879 0.4172 -0.1937
vn -0.1030 0.5468 0.8309
vn -0.9596 -0.2794 0.0322
vn 0.0193 -0.5199 0.8540
vn 0.3562 -0.8136 0.4595
vn -0.2127 -0.8667 0.4512
vn 0.0684 -0.7227 0.6878
vn 0.0670 -0.9830 0.1712
vn 0.1322 0.6252 0.7692
vn 0.9792 -0.2023 0.0124
vn -0.0028 0.7168 -0.6972
vn -0.9760 0.2173 -0.0115
vn -0.1739 -0.7901 -0.5878
vn 0.9460 0.2345 0.2239
vn 0.1463 0.7484 -0.6469
vn -0.8037 0.4915 0.3355
vn -0.0418 -0.5834 0.8111
vn -0.7678 0.4748 0.4302
vn 0.9165 0.2156 0.3370
vn -0.1478 -0.8098 -0.5678
vn 0.4265 0.6216 -0.6571
vn 0.9841 0.1643 -0.0674
vn 0.4363 0.3935 -0.8092
vn 0.0158 0.5572 -0.8302
vn 0.3183 0.9058 -0.2795
vn 0.2930 0.3250 0.8992
vn 0.9119 0.4093 -0.0311
vn -0.4333 -0.5006 0.7494
vn -0.0986 -0.4201 0.9021
vn -0.0377 0.2796 0.9594
vn 0.5389 0.4432 0.7164
vn 0.3599 -0.9326 0.0279
vn 0.5665 0.6147 -0.5489
vn 0.7786 0.4831 0.4004
vn 0.4668 0.4621 -0.7541
vn 0.3004 0.5905 0.7491
vn -0.5986 -0.7534 -0.2719
vn 0.0855 0.0319 0.9958
vn 0.6024 0.3968 0.6926
vn 0.3646 0.8449 -0.3914
vn 0.2574 0.5597 0.7877
vn 0.4811 -0.0154 0.8765
vn 0.0519 -0.7718 -0.6337
vn 0.2787 -0.1405 -0.9500
vn 0.3172 0.5521 -0.7711
vn 0.1916 0.4724 0.8603
vn 0.0513 -0.9805 -0.1899
vn -0.5231 0.6757 0.5194
vn -0.5446 -0.3134 -0.7779
vn 0.7627 -0.6020 -0.2362
vn 0.3311 0.4671 0.8199
vn 0.8692 -0.3135 -0.3823
vn 0.2265 0.0592 0.9722
vn -0.8372 0.2757 0.4724
vn -0.3240 -0.0725 -0.9433
vn 0.1851 -0.3636 0.9130
vn -0.9061 -0.1431 0.3981
vn -0.2012 0.3909 -0.8981
vn 0.9132 0.1656 -0.3724
vn -0.3509 0.6617 -0.6625
vn 0.9112 0.4065 -0.0667
vn 0.2741 -0.7110 0.6476
vn -0.8711 -0.4794 0.1070
vt 0.203125 0.375000
vt 0.109375 0.375000
vt 0.109375 0.062500
vt 0.203125 0.062500
vt 0.218750 0.375000
vt 0.218750 0.187500
vt 0.265625 0.250000
vt 0.265625 0.375000
vt 0.250000 0.144531
vt 0.226074 0.289062
vt 0.250000 0.250000
vt 0.328125 0.375000
vt 0.281250 0.312500
vt 0.328125 0.312500
vt 0.359375 0.250000
vt 0.343750 0.250000
vt 0.343750 0.062500
vt 0.359375 0.062500
vt 0.312500 0.187500
vt 0.312500 0.125000
vt 0.328125 0.062500
vt 0.328125 0.250000
vt 0.296875 0.125000
vt 0.296875 0.187500
vt 0.281250 0.250000
vt 0.281250 0.062500
vt 0.437500 0.187500
vt 0.437500 0.250000
vt 0.406250 0.250000
vt 0.406250 0.187500
vt 0.375000 0.250000
vt 0.375000 0.062500
vt 0.484375 0.375000
vt 0.468750 0.375000
vt 0.468750 0.312500
vt 0.484375 0.312500
vt 0.453125 0.250000
vt 0.453125 0.375000
vt 0.437500 0.375000
vt 0.453125 0.187500
vt 0.484375 0.125000
vt 0.437500 0.062500
vt 0.453125 0.062500
vt 0.390625 0.312500
vt 0.390625 0.125000
vt 0.406250 0.062500
vt 0.406250 0.375000
vt 0.453125 0.312500
vt 0.500000 0.187500
vt 0.562500 0.187500
vt 0.500000 0.500000
vt 0.500000 0.375000
vt 0.625000 0.062500
vt 0.578125 0.062500
vt 0.578125 0.187500
vt 0.625000 0.187500
vt 0.500000 0.062500
vt 0.562500 0.062500
vt 0.562500 0.375000
vt 0.609375 0.875000
vt 0.671875 0.875000
vt 0.640625 1.000000
vt 0.765625 0.437500
vt 0.718750 0.437500
vt 0.718750 0.250000
vt 0.765625 0.250000
vt 0.687500 0.437500
vt 0.640625 0.250000
vt 0.640625 0.437500
vt 0.593750 1.000000
vt 0.578125 1.000000
vt 0.578125 0.625000
vt 0.000000 0.062500
vt 0.093750 0.500000
vt 0.265625 0.500000
vt 0.578125 0.312500
vt 0.625000 0.312500
vt 0.562500 0.500000
vt 0.625000 0.375000
vt 0.656250 0.562500
vt 0.609375 0.562500
vt 0.609375 0.750000
vt 0.656250 0.750000
vt 0.468750 1.000000
vt 0.468750 0.625000
vt 0.625000 0.500000
vt 0.218750 0.062500
vt 0.265625 0.062500
vt 0.000000 0.375000
vt 0.093750 0.375000
vt 0.093750 0.062500
vt 0.765625 0.875000
vt 0.765625 1.000000
vt 0.281250 0.375000
vt 0.671875 0.500000
vt 0.687500 0.500000
vt 0.687500 0.625000
vt 0.671875 0.625000
vt 0.703125 0.500000
vt 0.703125 0.625000
vt 0.687500 0.812500
vt 0.671875 0.812500
vt 0.703125 0.812500
vt 0.734375 0.500000
vt 0.750000 0.500000
vt 0.750000 0.687500
vt 0.734375 0.687500
vt 0.718750 0.500000
vt 0.718750 0.687500
vt 0.750000 0.812500
vt 0.734375 0.812500
vt 0.718750 0.812500
s 0
usemtl Material
f 83/1/1 1/2/1 3/3/1 81/4/1
f 3/5/2 4/6/2 8/7/2 7/8/2
f 4/9/3 3/10/3 1/11/3 2/11/3
f 81/11/4 3/10/4 7/7/4 5/7/4
f 82/12/5 81/13/5 5/13/5 6/14/5
f 9/15/6 11/16/6 14/17/6 15/18/6
f 12/19/7 11/20/7 7/21/7 8/22/7
f 9/23/8 10/24/8 6/25/8 5/26/8
f 11/20/9 9/23/9 5/26/9 7/21/9
f 10/24/10 12/19/10 8/22/10 6/25/10
f 15/27/11 14/28/11 22/29/11 21/30/11
f 11/31/12 12/15/12 13/18/12 14/32/12
f 12/15/13 10/16/13 16/17/13 13/18/13
f 10/31/14 9/15/14 15/18/14 16/32/14
f 20/33/15 19/34/15 18/35/15 17/36/15
f 14/28/16 13/37/16 17/38/16 18/39/16
f 13/37/17 16/40/17 20/41/17 17/36/17
f 16/40/18 15/27/18 19/42/18 20/43/18
f 21/30/19 22/29/19 24/44/19 23/45/19
f 19/42/20 15/27/20 21/30/20 23/46/20
f 14/28/21 18/39/21 24/47/21 22/29/21
f 18/35/22 19/34/22 23/38/22 24/48/22
f 84/49/23 25/50/23 27/51/23 86/52/23
f 2/53/24 1/54/24 26/55/24 25/56/24
f 80/57/25 2/58/25 25/50/25 84/49/25
f 27/51/26 25/50/26 33/59/26
f 1/60/27 2/61/27 29/62/27
f 85/63/28 26/64/28 31/65/28 89/66/28
f 26/64/29 25/67/29 30/68/29 31/65/29
f 84/69/30 25/67/30 30/68/30
f 25/70/31 33/71/31 36/72/31
f 27/73/32 28/73/32 90/73/32 87/73/32
f 67/74/33 86/75/33 92/75/33 91/74/33
f 25/56/34 26/55/34 32/76/34 33/77/34
f 34/78/35 33/59/35 40/79/35
f 39/80/36 40/81/36 38/82/36 37/83/36
f 40/84/37 33/71/37 36/72/37 35/85/37
f 26/50/38 28/52/38 32/59/38
f 33/79/39 32/86/39 39/78/39 40/59/39
f 32/59/40 34/78/40 39/79/40
f 34/78/41 40/86/41 39/79/41
f 34/78/42 27/51/42 33/59/42
f 26/50/43 85/49/43 28/52/43
f 1/58/44 83/57/44 85/49/44 26/50/44
f 4/6/45 82/87/45 6/88/45 8/7/45
f 2/89/46 80/90/46 82/91/46 4/73/46
f 2/61/47 80/92/47 88/93/47 29/62/47
f 83/1/48 81/4/48 43/3/48 41/2/48
f 43/5/49 47/87/49 48/88/49 44/8/49
f 44/11/50 42/11/50 41/11/50 43/11/50
f 81/5/51 45/87/51 47/88/51 43/8/51
f 82/12/52 46/94/52 45/13/52 81/14/52
f 49/16/53 55/17/53 54/18/53 51/15/53
f 52/23/54 48/26/54 47/21/54 51/20/54
f 49/19/55 45/22/55 46/25/55 50/24/55
f 51/20/56 47/21/56 45/22/56 49/19/56
f 50/24/57 46/25/57 48/26/57 52/23/57
f 55/28/58 61/29/58 62/30/58 54/27/58
f 51/15/59 54/18/59 53/32/59 52/31/59
f 52/16/60 53/17/60 56/18/60 50/15/60
f 50/15/61 56/18/61 55/32/61 49/31/61
f 60/36/62 57/33/62 58/34/62 59/35/62
f 54/27/63 58/42/63 57/43/63 53/40/63
f 53/40/64 57/41/64 60/36/64 56/37/64
f 56/37/65 60/38/65 59/39/65 55/28/65
f 61/29/66 63/44/66 64/45/66 62/30/66
f 59/39/67 63/47/67 61/29/67 55/28/67
f 54/27/68 62/30/68 64/46/68 58/42/68
f 58/34/69 64/38/69 63/48/69 59/35/69
f 84/49/70 86/52/70 67/51/70 65/50/70
f 42/53/71 65/77/71 66/76/71 41/54/71
f 80/57/72 84/49/72 65/50/72 42/58/72
f 67/51/73 72/59/73 65/50/73
f 41/60/74 68/62/74 42/61/74
f 85/63/75 89/66/75 70/65/75 66/64/75
f 66/64/76 70/65/76 69/68/76 65/67/76
f 84/69/77 69/68/77 65/67/77
f 65/70/78 75/72/78 72/71/78
f 34/78/79 32/59/79 28/52/79 27/51/79
f 86/75/80 27/74/80 87/74/80 92/75/80
f 65/51/81 72/78/81 71/59/81 66/52/81
f 73/78/82 79/79/82 72/59/82
f 78/80/83 76/83/83 77/82/83 79/81/83
f 79/84/84 74/85/84 75/72/84 72/71/84
f 66/50/85 71/59/85 28/52/85
f 72/78/86 79/86/86 78/79/86 71/59/86
f 71/59/87 78/79/87 73/78/87
f 73/78/88 78/79/88 79/86/88
f 73/78/89 72/59/89 67/51/89
f 66/50/90 28/52/90 85/49/90
f 41/58/91 66/50/91 85/49/91 83/57/91
f 44/8/92 48/5/92 46/87/92 82/88/92
f 42/89/93 44/73/93 82/91/93 80/90/93
f 42/61/94 68/62/94 88/93/94 80/92/94
f 28/52/95 71/59/95 73/78/95 67/51/95
f 28/95/96 67/73/96 91/73/96 90/95/96
f 87/95/97 90/96/97 94/97/97 93/98/97
f 92/96/98 87/99/98 93/100/98 96/97/98
f 91/95/99 92/96/99 96/97/99 95/98/99
f 90/96/100 91/99/100 95/100/100 94/97/100
f 95/98/101 96/97/101 100/101/101 99/102/101
f 94/97/102 95/100/102 99/103/102 98/101/102
f 93/98/103 94/97/103 98/101/103 97/102/103
f 96/97/104 93/100/104 97/103/104 100/101/104
f 98/104/105 99/105/105 103/106/105 102/107/105
f 97/108/106 98/104/106 102/107/106 101/109/106
f 100/104/107 97/105/107 101/106/107 104/107/107
f 99/108/108 100/104/108 104/107/108 103/109/108
f 104/107/109 101/106/109 105/110/109 108/111/109
f 103/109/110 104/107/110 108/111/110 107/112/110
f 102/107/111 103/106/111 107/110/111 106/111/111
f 101/109/112 102/107/112 106/111/112 105/112/112
o Icosphere
v 1.594311 8.099977 1.981023
v 1.682352 8.608167 1.947924
v 1.134003 8.755864 1.161482
v 1.331407 10.105027 2.427464
v 1.531910 9.532549 1.570798
v 1.117762 8.294716 0.997827
v 1.179103 8.350616 0.945060
v 1.774014 8.529032 1.977723
v 1.202100 8.708873 1.079952
v 1.704898 8.153390 2.004808
v 0.967319 8.205880 0.863934
v 1.748156 7.333833 1.960812
v 2.072211 9.845166 1.978891
v 0.947550 10.299677 3.264246
v -0.868938 8.575291 1.937870
v -0.797945 9.088348 1.912987
v -0.227772 9.026333 0.903818
v -0.131074 10.389472 2.367592
v -0.650586 9.963363 1.202201
v -0.221259 8.580928 0.763127
v -0.275147 8.656823 0.714111
v -0.903869 9.047056 1.947991
v -0.269724 9.003510 0.807662
v -0.954675 8.667076 1.968928
v 0.201979 8.405585 0.544627
v -1.227844 7.913029 1.840338
v -0.760760 10.392330 1.966389
v 0.576211 10.365802 3.270705
v 0.549940 9.086904 3.181705
v 0.449262 8.558636 3.251121
v 0.515869 10.085362 1.012058
v 0.428619 10.446123 1.817530
v 0.542757 9.032544 3.300388
v 0.468360 8.642573 3.348949
v 0.432029 8.332063 4.191754
v 0.302151 7.553625 4.942688
vn 0.5605 0.7991 -0.2174
vn 0.8062 -0.1063 -0.5821
vn 0.7262 -0.0494 0.6857
vn 0.9755 0.1979 0.0960
vn 0.8686 -0.0364 -0.4941
vn 0.3007 -0.7755 0.5551
vn 0.4510 -0.8092 -0.3765
vn 0.7163 -0.5312 -0.4524
vn -0.1902 -0.9815 -0.0199
vn 0.8643 0.1859 -0.4675
vn 0.8802 0.2140 0.4235
vn 0.7198 -0.0667 0.6909
vn 0.5392 0.7530 -0.3770
vn 0.5736 0.7690 -0.2823
vn 0.5406 0.1585 -0.8262
vn 0.5513 0.8088 0.2049
vn 0.6223 0.7242 0.2971
vn -0.6737 0.2488 -0.6958
vn -0.3104 0.9250 -0.2193
vn 0.2429 0.9145 -0.3236
vn -0.8522 -0.2358 -0.4670
vn -0.6822 0.0964 0.7248
vn -0.8926 0.3651 0.2644
vn 0.0743 0.5562 0.8277
vn 0.1729 0.9463 0.2733
vn 0.2201 0.2927 -0.9305
vn -0.8698 0.1152 -0.4797
vn -0.5555 -0.6184 0.5559
vn -0.6916 -0.6163 -0.3767
vn -0.4845 -0.8317 -0.2711
vn 0.3060 0.8602 -0.4080
vn -0.6793 0.4531 -0.5773
vn -0.7605 0.4640 0.4542
vn -0.6777 0.1747 0.7143
vn -0.2983 0.9316 -0.2076
vn -0.1616 0.8940 -0.4179
vn -0.1796 0.2240 -0.9579
vn 0.1808 -0.0265 -0.9832
vn -0.2123 0.9509 0.2252
vn -0.3053 0.8929 0.3310
vn 0.6919 0.0228 -0.7217
vn 0.0023 -0.6113 -0.7914
vn -0.1161 -0.8489 -0.5157
vt 0.312500 0.750000
vt 0.312500 0.437500
vt 0.328125 0.500000
vt 0.328125 0.750000
vt 0.437500 0.750000
vt 0.437500 0.937500
vt 0.421875 0.812500
vt 0.437500 0.500000
vt 0.421875 0.625000
vt 0.453125 0.437500
vt 0.281250 0.562500
vt 0.296875 0.687500
vt 0.281250 0.687500
vt 0.218750 0.875000
vt 0.250000 0.750000
vt 0.250000 1.000000
vt 0.203125 0.937500
vt 0.187500 0.937500
vt 0.187500 0.812500
vt 0.156250 0.937500
vt 0.156250 0.812500
vt 0.390625 0.750000
vt 0.390625 0.812500
vt 0.125000 0.750000
vt 0.203125 0.750000
vt 0.203125 0.562500
vt -0.000000 0.562500
vt 0.109375 0.562500
vt 0.109375 1.000000
vt -0.000000 1.000000
vt 0.312500 1.000000
vt 0.328125 0.937500
vt 0.453125 1.000000
vt 0.343750 0.750000
vt 0.375000 0.625000
vt 0.234375 0.562500
vt 0.234375 0.687500
vt 0.218750 0.687500
vt 0.125000 0.937500
vt 0.140625 0.812500
vt 0.140625 0.937500
vt 0.296875 0.750000
vt 0.296875 1.000000
s 0
usemtl Material.001
f 111/113/113 110/114/113 116/115/113 117/116/113
f 110/117/114 111/118/114 113/119/114
f 137/120/115 110/117/115 112/121/115
f 110/117/116 113/119/116 112/121/116
f 117/116/117 116/115/117 118/114/117 115/113/117
f 138/120/118 109/115/118 118/114/118 142/122/118
f 109/115/119 114/116/119 115/113/119 118/114/119
f 114/123/120 109/124/120 119/125/120
f 144/126/121 134/127/121 120/128/121
f 119/129/122 109/130/122 120/131/122
f 109/130/123 143/132/123 144/133/123 120/131/123
f 116/115/124 141/120/124 142/122/124 118/114/124
f 112/121/125 113/119/125 140/134/125
f 113/119/126 139/135/126 140/134/126
f 111/118/127 139/135/127 113/119/127
f 109/136/128 138/137/128 143/138/128
f 110/114/129 137/122/129 141/120/129 116/115/129
f 110/139/130 137/140/130 122/141/130 121/142/130
f 125/143/131 131/144/131 130/118/131 124/145/131
f 111/113/132 117/116/132 131/144/132 125/143/132
f 124/146/133 127/144/133 125/115/133
f 137/120/134 126/147/134 124/115/134
f 124/115/135 126/147/135 127/146/135
f 137/120/136 112/121/136 126/147/136
f 112/121/137 140/134/137 126/147/137
f 117/116/138 115/113/138 129/143/138 131/144/138
f 131/144/139 129/143/139 132/145/139 130/118/139
f 138/120/140 142/122/140 132/145/140 123/118/140
f 123/118/141 132/145/141 129/143/141 128/144/141
f 128/148/142 133/149/142 123/150/142
f 114/123/143 119/125/143 133/149/143 128/148/143
f 133/151/144 134/152/144 123/153/144
f 123/153/145 134/152/145 144/133/145 143/132/145
f 130/118/146 132/145/146 142/122/146 141/120/146
f 126/147/147 140/134/147 127/146/147
f 127/146/148 140/134/148 139/135/148
f 125/144/149 127/146/149 139/135/149
f 125/144/150 139/135/150 111/118/150
f 123/136/151 143/138/151 138/137/151
f 124/145/152 130/118/152 141/120/152 137/122/152
f 124/140/153 135/141/153 136/142/153 137/139/153
f 128/144/154 129/143/154 115/113/154 114/116/154
f 120/128/155 134/127/155 133/154/155 119/155/155
o BezierCircle
v -26.683170 10.649023 -1.546623
v -26.439865 10.566792 -5.096894
v -25.731138 10.327261 -8.502262
v -24.588779 9.941174 -11.731503
v -23.044582 9.419273 -14.753392
v -21.130333 8.772306 -17.536705
v -18.877823 8.011015 -20.050215
v -16.318838 7.146144 -22.262699
v -13.485172 6.188437 -24.142933
v -10.408615 5.148640 -25.659693
v -7.120955 4.037494 -26.781750
v -3.653981 2.865746 -27.477882
v -0.039484 1.644138 -27.716871
v 3.575013 0.422530 -27.477888
v 7.041987 -0.749218 -26.781755
v 10.329647 -1.860364 -25.659697
v 13.406204 -2.900162 -24.142939
v 16.239868 -3.857868 -22.262705
v 18.798851 -4.722738 -20.050219
v 21.051361 -5.484029 -17.536705
v 22.965611 -6.130996 -14.753392
v 24.509808 -6.652895 -11.731503
v 25.652164 -7.038984 -8.502262
v 26.360889 -7.278514 -5.096893
v 26.604202 -7.360748 -1.546623
v 26.360897 -7.278516 2.003647
v 25.652170 -7.038985 5.409015
v 24.509811 -6.652897 8.638256
v 22.965614 -6.130998 11.660146
v 21.051365 -5.484031 14.443458
v 18.798855 -4.722739 16.956968
v 16.239870 -3.857868 19.169453
v 13.406204 -2.900162 21.049686
v 10.329647 -1.860364 22.566446
v 7.041987 -0.749218 23.688503
v 3.575013 0.422530 24.384636
v -0.039484 1.644138 24.623625
v -3.653981 2.865746 24.384642
v -7.120955 4.037494 23.688509
v -10.408615 5.148640 22.566450
v -13.485172 6.188437 21.049692
v -16.318836 7.146143 19.169458
v -18.877819 8.011014 16.956972
v -21.130329 8.772305 14.443460
v -23.044579 9.419271 11.660146
v -24.588776 9.941172 8.638256
v -25.731133 10.327259 5.409015
v -26.439857 10.566790 2.003647
l 145 146
l 146 147
l 147 148
l 148 149
l 149 150
l 150 151
l 151 152
l 152 153
l 153 154
l 154 155
l 155 156
l 156 157
l 157 158
l 158 159
l 159 160
l 160 161
l 161 162
l 162 163
l 163 164
l 164 165
l 165 166
l 166 167
l 167 168
l 168 169
l 169 170
l 170 171
l 171 172
l 172 173
l 173 174
l 174 175
l 175 176
l 176 177
l 177 178
l 178 179
l 179 180
l 180 181
l 181 182
l 182 183
l 183 184
l 184 185
l 185 186
l 186 187
l 187 188
l 188 189
l 189 190
l 190 191
l 191 192
l 192 145
