# Blender 4.0.2
# www.blender.org
mtllib lpland.mtl
o Plane
v -39.653229 -3.967634 39.653229
v 39.653229 3.471025 39.653229
v -39.653229 2.458028 -39.653229
v 39.653229 2.335204 -39.653229
v -39.653229 -1.037718 0.000000
v 0.000000 -6.617042 39.653229
v 39.653229 3.785938 -0.000000
v 0.000000 -0.749176 -39.653229
v 0.000000 2.732053 -0.000000
v -39.653229 -4.320679 19.826614
v 19.826614 -0.211817 39.653229
v 39.653229 0.181828 -19.826614
v -19.826614 -6.545818 -39.653229
v -39.653229 0.136805 -19.826614
v -19.826614 -3.350476 39.653229
v 39.653229 3.474907 19.826614
v 19.826614 -3.094798 -39.653229
v 0.000000 -0.049991 -19.826614
v 0.000000 5.132474 19.826614
v -19.826614 3.213974 -0.000000
v 19.826614 -1.865837 0.000000
v 19.826614 2.271857 19.826614
v -19.826614 -1.971388 19.826614
v -19.826614 -3.016507 -19.826614
v 19.826614 1.539088 -19.826614
v 29.739922 -2.107475 -9.913307
v 9.913307 3.610820 -9.913307
v 9.913307 1.529590 -29.739922
v -9.913307 5.514217 -9.913307
v -29.739922 -4.021276 -9.913307
v -29.739922 1.774028 -29.739922
v -9.913307 0.277325 29.739922
v -29.739922 5.159680 29.739922
v -29.739922 -6.179942 9.913307
v 29.739922 -1.771162 29.739922
v 9.913307 0.887971 29.739922
v 9.913307 -0.991757 9.913307
v 29.739922 0.115484 9.913307
v -9.913307 2.438644 9.913307
v -9.913307 1.745909 -29.739922
v 29.739922 2.584638 -29.739922
vn -0.0978 0.9712 -0.2171
vn -0.0309 0.9928 -0.1156
vn -0.0033 0.9847 -0.1741
vn -0.0364 0.9716 -0.2339
vn -0.0088 0.9688 0.2478
vn -0.0587 0.9948 0.0832
vn -0.1440 0.9892 -0.0279
vn 0.0408 0.9990 -0.0203
vn -0.1766 0.9568 -0.2310
vn -0.4082 0.8376 0.3630
vn -0.1621 0.9847 0.0635
vn 0.1439 0.9205 0.3632
vn 0.1298 0.9909 0.0355
vn 0.0430 0.9989 0.0185
vn -0.0791 0.9963 0.0322
vn 0.0550 0.9983 0.0173
vn -0.2451 0.9682 0.0494
vn -0.1824 0.9818 -0.0535
vn 0.0748 0.9912 0.1088
vn -0.0911 0.9958 -0.0088
vn 0.0326 0.9519 -0.3048
vn 0.1203 0.9916 -0.0476
vn 0.1340 0.9906 -0.0285
vn -0.1095 0.9900 -0.0888
vn -0.3351 0.9291 -0.1563
vn -0.3163 0.9444 -0.0901
vn -0.0024 0.9534 0.3016
vn -0.0152 0.9943 0.1057
vn -0.1404 0.9854 0.0967
vn -0.1642 0.9859 -0.0334
vn -0.0359 0.9984 0.0443
vn -0.2598 0.9644 0.0500
vn 0.1293 0.9911 0.0308
vn -0.0459 0.8810 0.4709
vn -0.1126 0.9875 -0.1107
vn 0.1518 0.9710 0.1846
vn -0.0600 0.9614 -0.2686
vn -0.0359 0.9944 0.0993
vn 0.1893 0.9743 -0.1221
vn -0.0277 0.9987 -0.0429
vn -0.0675 0.9934 -0.0925
vt 0.375000 0.875000
vt 0.500000 0.750000
vt 0.625000 0.875000
vt 0.500000 1.000000
vt 0.625000 0.125000
vt 0.750000 0.000000
vt 0.875000 0.125000
vt 0.750000 0.250000
vt 0.000000 0.250000
vt 0.000000 0.000000
vt 0.125000 0.125000
vt 0.250000 0.000000
vt 0.625000 0.625000
vt 0.750000 0.500000
vt 0.875000 0.625000
vt 0.750000 0.750000
vt 1.000000 0.250000
vt 0.875000 0.375000
vt 0.000000 0.500000
vt 0.125000 0.375000
vt 0.250000 1.000000
vt 0.625000 0.375000
vt 0.125000 0.875000
vt 0.250000 0.750000
vt 1.000000 0.000000
vt 1.000000 0.500000
vt 0.375000 0.125000
vt 0.500000 0.250000
vt 0.375000 0.375000
vt 0.250000 0.250000
vt 0.125000 0.625000
vt 0.250000 0.500000
vt 0.500000 0.500000
vt 0.500000 0.000000
vt 0.375000 0.625000
vt 0.000000 0.750000
vt 0.750000 1.000000
vt 1.000000 0.750000
vt 0.000000 1.000000
vt 0.875000 0.875000
vt 1.000000 1.000000
s 1
usemtl Material.001
f 40/1/1 18/2/2 28/3/3 8/4/4
f 36/5/5 11/6/6 35/7/7 22/8/8
f 10/9/9 1/10/10 33/11/11
f 33/11/11 1/10/10 15/12/12
f 27/13/13 21/14/14 26/15/15 25/16/16
f 35/7/7 16/17/17 38/18/18 22/8/8
f 5/19/19 10/9/9 34/20/20
f 40/1/1 8/4/4 13/21/21
f 21/14/14 37/22/22 22/8/8 38/18/18
f 13/21/21 31/23/23 24/24/24 40/1/1
f 16/17/17 35/7/7 2/25/25
f 35/7/7 11/6/6 2/25/25
f 26/15/15 21/14/14 38/18/18 7/26/26
f 32/27/27 19/28/28 39/29/29 23/30/30
f 30/31/31 5/19/19 34/20/20 20/32/32
f 27/13/13 9/33/33 37/22/22 21/14/14
f 15/12/12 6/34/34 32/27/27
f 30/31/31 20/32/32 29/35/35 24/24/24
f 20/32/32 34/20/20 23/30/30 39/29/29
f 30/31/31 14/36/36 5/19/19
f 28/3/3 17/37/37 8/4/4
f 33/11/11 15/12/12 32/27/27 23/30/30
f 12/38/38 26/15/15 7/26/26
f 31/23/23 3/39/39 14/36/36
f 41/40/40 4/41/41 17/37/37
f 4/41/41 41/40/40 12/38/38
f 39/29/29 19/28/28 37/22/22 9/33/33
f 29/35/35 18/2/2 40/1/1 24/24/24
f 29/35/35 20/32/32 39/29/29 9/33/33
f 26/15/15 12/38/38 41/40/40 25/16/16
f 30/31/31 24/24/24 31/23/23 14/36/36
f 17/37/37 28/3/3 25/16/16 41/40/40
f 27/13/13 25/16/16 28/3/3 18/2/2
f 29/35/35 9/33/33 27/13/13 18/2/2
f 31/23/23 13/21/21 3/39/39
f 36/5/5 22/8/8 37/22/22 19/28/28
f 33/11/11 23/30/30 34/20/20 10/9/9
f 19/28/28 32/27/27 6/34/34 36/5/5
f 36/5/5 6/34/34 11/6/6
f 7/26/26 38/18/18 16/17/17
